<svg width="240" height="240" viewBox="0 0 240 240" fill="none" xmlns="http://www.w3.org/2000/svg">
<path d="M146.146 88.9874C146.146 89.9778 146.091 90.9682 145.979 91.9773H171.132C171.188 90.9309 171.225 89.9404 171.225 88.9874C171.225 59.2186 149.602 35 119.991 35C90.3799 35 68.7754 59.2186 68.7754 88.9874C68.7754 89.9404 68.8125 90.9309 68.8683 91.9773H94.0209C93.9094 90.9495 93.8536 89.9591 93.8536 88.9874C93.8536 73.1219 104.238 60.2277 120.009 60.2277C135.781 60.2277 146.146 73.1219 146.146 88.9874Z" fill="#012F5C"/>
<path d="M68.7754 98.7441H94.541L119.155 156.095L143.769 98.7441H169.534L122.591 192.928C121.18 195.768 117.149 195.768 115.737 192.928L68.7754 98.7441Z" fill="white"/>
<path d="M127.722 190.928L125.901 194.61C124.619 197.189 122.037 198.796 119.158 198.796C116.278 198.796 113.696 197.189 112.414 194.61L110.575 190.947C94.7111 191.713 82.9336 194.516 82.9336 197.861C82.9336 201.804 99.188 205 119.232 205C139.276 205 155.531 201.804 155.531 197.861C155.512 194.498 143.66 191.695 127.722 190.928Z" fill="#8FDADE"/>
</svg>
