<svg width="64" height="64" viewBox="0 0 64 64" fill="none" xmlns="http://www.w3.org/2000/svg">
<path d="M30.534 58.6002C27.0229 58.4224 23.734 57.6002 20.6673 56.1335C17.6007 54.6668 14.934 52.7446 12.6673 50.3668C10.4007 47.9891 8.61176 45.2224 7.30065 42.0668C5.98954 38.9113 5.33398 35.5557 5.33398 32.0002C5.33398 28.3113 6.03398 24.8446 7.43398 21.6002C8.83398 18.3557 10.734 15.5335 13.134 13.1335C15.534 10.7335 18.3562 8.8335 21.6007 7.4335C24.8451 6.0335 28.3118 5.3335 32.0007 5.3335C38.6229 5.3335 44.3784 7.42238 49.2673 11.6002C54.1562 15.7779 57.1562 21.0224 58.2673 27.3335H54.2007C53.4451 23.6002 51.8673 20.2668 49.4673 17.3335C47.0673 14.4002 44.0673 12.2002 40.4673 10.7335V11.9335C40.4673 13.4891 39.934 14.8446 38.8673 16.0002C37.8007 17.1557 36.4895 17.7335 34.934 17.7335H29.134V23.5335C29.134 24.2891 28.834 24.9113 28.234 25.4002C27.634 25.8891 26.9562 26.1335 26.2007 26.1335H20.6673V32.0002H28.0007V40.3335H23.534L9.93398 26.7335C9.71176 27.6224 9.55621 28.5002 9.46732 29.3668C9.37843 30.2335 9.33398 31.1113 9.33398 32.0002C9.33398 38.0002 11.3562 43.1779 15.4007 47.5335C19.4451 51.8891 24.4895 54.2446 30.534 54.6002V58.6002ZM56.6673 56.8668L47.734 47.9335C46.8007 48.6002 45.7895 49.1113 44.7007 49.4668C43.6118 49.8224 42.4895 50.0002 41.334 50.0002C38.1784 50.0002 35.5007 48.9002 33.3007 46.7002C31.1007 44.5002 30.0007 41.8224 30.0007 38.6668C30.0007 35.5113 31.1007 32.8335 33.3007 30.6335C35.5007 28.4335 38.1784 27.3335 41.334 27.3335C44.4895 27.3335 47.1673 28.4335 49.3673 30.6335C51.5673 32.8335 52.6673 35.5113 52.6673 38.6668C52.6673 39.8224 52.4784 40.9446 52.1007 42.0335C51.7229 43.1224 51.2229 44.1557 50.6007 45.1335L59.534 54.0002L56.6673 56.8668ZM41.334 46.0002C43.3784 46.0002 45.1118 45.2891 46.534 43.8668C47.9562 42.4446 48.6673 40.7113 48.6673 38.6668C48.6673 36.6224 47.9562 34.8891 46.534 33.4668C45.1118 32.0446 43.3784 31.3335 41.334 31.3335C39.2895 31.3335 37.5562 32.0446 36.134 33.4668C34.7118 34.8891 34.0007 36.6224 34.0007 38.6668C34.0007 40.7113 34.7118 42.4446 36.134 43.8668C37.5562 45.2891 39.2895 46.0002 41.334 46.0002Z" fill="#04A3AC"/>
</svg>
