<svg width="64" height="64" viewBox="0 0 64 64" fill="none" xmlns="http://www.w3.org/2000/svg">
<path d="M30.4 2.71997C17.6533 3.54664 8 14.72 8 27.4933V45.3333C8 49.76 11.5733 53.3333 16 53.3333H18.6667C21.6 53.3333 24 50.9333 24 48V37.3333C24 34.4 21.6 32 18.6667 32H13.3333V27.44C13.3333 17.2 21.2267 8.29331 31.44 7.99997C42.0267 7.70664 50.6667 16.16 50.6667 26.6666V32H45.3333C42.4 32 40 34.4 40 37.3333V48C40 50.9333 42.4 53.3333 45.3333 53.3333H50.6667V56H34.6667C33.2 56 32 57.2 32 58.6666C32 60.1333 33.2 61.3333 34.6667 61.3333H48C52.4267 61.3333 56 57.76 56 53.3333V26.6666C56 12.88 44.3733 1.81331 30.4 2.71997Z" fill="#04A3AC"/>
</svg>
