<svg width="64" height="64" viewBox="0 0 64 64" fill="none" xmlns="http://www.w3.org/2000/svg">
<g clip-path="url(#clip0_2525_17833)">
<path d="M41.333 37.3335H39.2264L38.4797 36.6135C41.6797 32.8802 43.333 27.7869 42.4264 22.3735C41.173 14.9602 34.9864 9.0402 27.5197 8.13354C16.2397 6.74687 6.74638 16.2402 8.13305 27.5202C9.03972 34.9869 14.9597 41.1735 22.373 42.4269C27.7864 43.3335 32.8797 41.6802 36.613 38.4802L37.333 39.2269V41.3335L48.6664 52.6669C49.7597 53.7602 51.5464 53.7602 52.6397 52.6669C53.733 51.5735 53.733 49.7869 52.6397 48.6935L41.333 37.3335ZM25.333 37.3335C18.693 37.3335 13.333 31.9735 13.333 25.3335C13.333 18.6935 18.693 13.3335 25.333 13.3335C31.973 13.3335 37.333 18.6935 37.333 25.3335C37.333 31.9735 31.973 37.3335 25.333 37.3335Z" fill="#04A3AC"/>
</g>
<defs>
<clipPath id="clip0_2525_17833">
<rect width="64" height="64" fill="white"/>
</clipPath>
</defs>
</svg>
