<svg width="208" height="64" viewBox="0 0 208 64" fill="none" xmlns="http://www.w3.org/2000/svg">
<g clip-path="url(#clip0_2278_21410)">
<path d="M50.5192 44.6191V60.0835H42.8535V24.1461H50.5192V29.6556C52.9987 24.9948 59.3144 22.8939 66.8975 24.1669L66.9457 32.0278C59.1078 28.9391 50.5192 34.4835 50.5192 44.6191Z" fill="#002D5D"/>
<path d="M80.5973 44.6191V60.0835H72.9316V24.1461H80.5973V29.6556C83.0768 24.9948 89.3926 22.8939 96.9756 24.1669L97.0238 32.0278C89.1859 28.9391 80.5973 34.4835 80.5973 44.6191Z" fill="#002D5D"/>
<path d="M102.348 24.1461H110.096V60.0905H102.348V24.1461Z" fill="#002D5D"/>
<path d="M157.619 24.1461H165.367V60.0905H157.619V24.1461Z" fill="#002D5D"/>
<path d="M28.3418 24.146V29.113L27.5016 28.1391C26.4891 26.9704 25.1392 25.9478 23.4931 25.0852C21.8539 24.2365 19.7739 23.8052 17.2944 23.8052C14.8012 23.8052 12.5076 24.2156 10.4896 25.0295C8.47162 25.8365 6.71533 27.0052 5.25519 28.5008C3.80195 29.9965 2.65175 31.84 1.85281 33.9756C1.04698 36.1252 0.640625 38.5669 0.640625 41.2382C0.640625 44.0695 1.05387 46.7339 1.8597 49.1687C2.66553 51.5895 3.85016 53.6973 5.38605 55.4434C6.20566 56.2643 7.10102 56.96 8.03082 57.5513C8.0997 57.6 8.16857 57.6417 8.24433 57.6834C8.34076 57.7391 8.43718 57.8017 8.5336 57.8573C9.32566 58.3304 10.159 58.7408 11.0475 59.0887C13.1413 59.9026 15.5106 60.313 18.0933 60.313C20.6555 60.313 22.8112 59.8817 24.5055 59.033C26.0483 58.2539 27.3363 57.3426 28.3418 56.306V60.0834H36.4414V24.146H28.3418ZM12.3148 33.913C13.5132 32.4591 15.0491 31.5339 16.8812 31.1721C18.0865 30.9356 19.5121 30.9356 20.7174 31.1721C22.5495 31.5339 24.0854 32.4591 25.2838 33.913C26.861 35.826 27.66 38.6991 27.66 42.4556C27.66 46.2121 26.861 49.0921 25.2838 51.0052C24.0854 52.4591 22.5495 53.3774 20.7174 53.746C20.1114 53.8643 19.4708 53.9269 18.7959 53.9269C18.1278 53.9269 17.4804 53.8643 16.8743 53.746C15.0422 53.3843 13.5063 52.4591 12.3079 51.0052C10.7307 49.0921 9.93175 46.2191 9.93175 42.4556C9.93864 38.6991 10.7376 35.826 12.3148 33.913Z" fill="#002D5D"/>
<path d="M199.652 24.146V29.113L198.812 28.1391C197.8 26.9704 196.45 25.9478 194.804 25.0852C193.164 24.2365 191.084 23.8052 188.605 23.8052C186.112 23.8052 183.818 24.2156 181.8 25.0295C179.782 25.8365 178.026 27.0052 176.566 28.5008C175.112 29.9965 173.962 31.84 173.163 33.9756C172.358 36.1252 171.951 38.5669 171.951 41.2382C171.951 44.0695 172.364 46.7339 173.17 49.1687C173.976 51.5895 175.161 53.6973 176.697 55.4434C177.516 56.2643 178.412 56.96 179.341 57.5513C179.41 57.6 179.479 57.6417 179.555 57.6834C179.651 57.7391 179.748 57.8017 179.844 57.8573C180.636 58.3304 181.47 58.7408 182.358 59.0887C184.452 59.9026 186.821 60.313 189.404 60.313C191.966 60.313 194.122 59.8817 195.816 59.033C197.359 58.2539 198.647 57.3426 199.652 56.306V60.0834H207.752V24.146H199.652ZM183.625 33.913C184.824 32.4591 186.36 31.5339 188.192 31.1721C189.397 30.9356 190.823 30.9356 192.028 31.1721C193.86 31.5339 195.396 32.4591 196.594 33.913C198.172 35.826 198.971 38.6991 198.971 42.4556C198.971 46.2121 198.172 49.0921 196.594 51.0052C195.396 52.4591 193.86 53.3774 192.028 53.746C191.422 53.8643 190.781 53.9269 190.106 53.9269C189.438 53.9269 188.791 53.8643 188.185 53.746C186.353 53.3843 184.817 52.4591 183.618 51.0052C182.041 49.0921 181.242 46.2191 181.242 42.4556C181.249 38.6991 182.048 35.826 183.625 33.913Z" fill="#002D5D"/>
<path d="M115.42 24.1392H124.973L134.099 45.4887L143.224 24.1392H152.777L135.373 59.2C134.849 60.2574 133.355 60.2574 132.831 59.2L115.42 24.1392Z" fill="#002D5D"/>
<path d="M137.274 58.4557L136.599 59.8261C136.123 60.7861 135.166 61.3844 134.098 61.3844C133.031 61.3844 132.074 60.7861 131.598 59.8261L130.916 58.4626C125.035 58.7479 120.668 59.7913 120.668 61.0366C120.668 62.5044 126.694 63.694 134.126 63.694C141.558 63.694 147.584 62.5044 147.584 61.0366C147.577 59.7844 143.183 58.7409 137.274 58.4557Z" fill="#8FDADE"/>
<path d="M143.637 20.16C143.637 20.5287 143.617 20.8974 143.575 21.2731H152.901C152.922 20.8835 152.935 20.5148 152.935 20.16C152.935 9.07827 144.918 0.0626221 133.94 0.0626221C122.961 0.0626221 114.951 9.07827 114.951 20.16C114.951 20.5148 114.965 20.8835 114.986 21.2731H124.311C124.27 20.8904 124.249 20.5218 124.249 20.16C124.249 14.2539 128.099 9.45393 133.947 9.45393C139.794 9.45393 143.637 14.2539 143.637 20.16Z" fill="#00A0AF"/>
</g>
<defs>
<clipPath id="clip0_2278_21410">
<rect width="208" height="64" fill="white"/>
</clipPath>
</defs>
</svg>
