<svg width="160" height="160" viewBox="0 0 160 160" fill="none" xmlns="http://www.w3.org/2000/svg">
<path fill-rule="evenodd" clip-rule="evenodd" d="M25 20C25 14.4772 29.4772 10 35 10H125C130.523 10 135 14.4772 135 20V79.2631C132.681 79.9932 131 82.1603 131 84.72C131 87.2797 132.681 89.4468 135 90.1769V140C135 145.523 130.523 150 125 150H35C29.4771 150 25 145.523 25 140V90.3176C27.5915 89.7727 29.5372 87.4735 29.5372 84.72C29.5372 81.9664 27.5915 79.6673 25 79.1224V20Z" fill="#F0F0F0"/>
<path d="M37.8367 38H91.1633C92.6998 38 94 39.5313 94 41.5C94 43.3958 92.7589 45 91.1633 45H37.8367C36.3002 45 35 43.4688 35 41.5C35 39.6042 36.3002 38 37.8367 38Z" fill="#E1E1E1"/>
<path d="M37.6266 68H57.3734C58.7962 68 60 69.5313 60 71.5C60 73.3958 58.8509 75 57.3734 75H37.6266C36.2038 75 35 73.4688 35 71.5C35 69.6042 36.2038 68 37.6266 68Z" fill="#E1E1E1"/>
<path d="M69.7316 68H90.2684C91.748 68 93 69.5313 93 71.5C93 73.3958 91.8049 75 90.2684 75H69.7316C68.252 75 67 73.4688 67 71.5C67 69.6042 68.252 68 69.7316 68Z" fill="#E1E1E1"/>
<path d="M102.627 68H122.373C123.796 68 125 69.5313 125 71.5C125 73.3958 123.851 75 122.373 75H102.627C101.204 75 100 73.4688 100 71.5C100 69.6042 101.204 68 102.627 68Z" fill="#E1E1E1"/>
<path d="M110.627 97H122.373C123.796 97 125 98.5313 125 100.5C125 102.396 123.851 104 122.373 104H110.627C109.204 104 108 102.469 108 100.5C108 98.6042 109.204 97 110.627 97Z" fill="#E1E1E1"/>
<path d="M110.627 112H122.373C123.796 112 125 113.531 125 115.5C125 117.396 123.851 119 122.373 119H110.627C109.204 119 108 117.469 108 115.5C108 113.604 109.204 112 110.627 112Z" fill="#E1E1E1"/>
<path d="M89.6266 97H101.373C102.796 97 104 98.5313 104 100.5C104 102.396 102.851 104 101.373 104H89.6266C88.2038 104 87 102.469 87 100.5C87 98.6042 88.2038 97 89.6266 97Z" fill="#E1E1E1"/>
<path d="M89.6266 112H101.373C102.796 112 104 113.531 104 115.5C104 117.396 102.851 119 101.373 119H89.6266C88.2038 119 87 117.469 87 115.5C87 113.604 88.2038 112 89.6266 112Z" fill="#E1E1E1"/>
<path d="M37.8367 53H122.163C123.7 53 125 54.5313 125 56.5C125 58.3958 123.759 60 122.163 60H37.8367C36.3002 60 35 58.4688 35 56.5C35 54.6042 36.3002 53 37.8367 53Z" fill="#E1E1E1"/>
<path d="M127 85H32" stroke="#CDCDCD" stroke-width="0.817143" stroke-dasharray="3.27 3.27"/>
<path fill-rule="evenodd" clip-rule="evenodd" d="M35 104.167V111.333H42.1667H49.3333V104.167V97H42.1667H39C36.7909 97 35 98.7909 35 101V104.167ZM51.381 99.0476V101.095H52.4048H53.4286V100.071V99.0476H54.4524H55.4762V100.071V101.095H56.5H57.5238V102.119V103.143H54.4524H51.381V104.167V105.19H53.4286H55.4762V106.214V107.238H54.4524H53.4286V108.262V109.286H52.4048H51.381V111.333V113.381H48.3095H45.2381V114.405V115.429H44.2143H43.1905V114.405V113.381H41.1429H39.0952V114.405V115.429H38.0714H37.0476V114.405V113.381H36.0238H35V114.405V115.429H36.0238H37.0476V118.5V121.571H36.0238H35V122.595V123.619H36.0238H37.0476V122.595V121.571H38.0714H39.0952V122.595V123.619H42.1667H45.2381V122.595V121.571H46.2619H47.2857V122.595V123.619H49.3333H51.381V126.69V129.762H52.4048H53.4286V130.786V131.81H52.4048H51.381V133.857V135.905H52.4048H53.4286V136.929V137.952H52.4048H51.381V138.976V140H53.4286H55.4762V138.976V137.952H56.5H57.5238V138.976V140H61.619H65.7143V138.976V137.952H66.7381H67.7619V138.976V140H70.8333H73.9048V138.976V137.952H71.8571H69.8095V136.929V135.905H71.8571H73.9048V134.881V133.857H74.9286H75.9524V129.762V125.667H72.881H69.8095V124.643V123.619H70.8333H71.8571V120.548V117.476H72.881H73.9048V118.5V119.524H74.9286H75.9524V120.548V121.571H74.9286H73.9048V122.595V123.619H74.9286H75.9524V122.595V121.571H76.9762H78V119.524V117.476H76.9762H75.9524V116.452V115.429H76.9762H78V114.405V113.381H75.9524H73.9048V114.405V115.429H72.881H71.8571V114.405V113.381H70.8333H69.8095V114.405V115.429H68.7857H67.7619V116.452V117.476H66.7381H65.7143V118.5V119.524H66.7381H67.7619V118.5V117.476H68.7857H69.8095V120.548V123.619H68.7857H67.7619V122.595V121.571H65.7143H63.6667V122.595V123.619H65.7143H67.7619V124.643V125.667H66.7381H65.7143V127.714V129.762H66.7381H67.7619V128.738V127.714H68.7857H69.8095V129.762V131.81H71.8571H73.9048V132.833V133.857H71.8571H69.8095V134.881V135.905H68.7857H67.7619V134.881V133.857H66.7381H65.7143V132.833V131.81H64.6905H63.6667V132.833V133.857H64.6905H65.7143V134.881V135.905H63.6667H61.619V132.833V129.762H62.6429H63.6667V128.738V127.714H61.619H59.5714V126.69V125.667H60.5952H61.619V122.595V119.524H60.5952H59.5714V118.5V117.476H60.5952H61.619V112.357V107.238H60.5952H59.5714V106.214V105.19H58.5476H57.5238V104.167V103.143H59.5714H61.619V100.071V97H60.5952H59.5714V99.0476V101.095H58.5476H57.5238V100.071V99.0476H56.5H55.4762V98.0238V97H53.4286H51.381V99.0476ZM63.6667 104.167V111.333H70.8333H78V104.167V101C78 98.7909 76.2091 97 74 97H70.8333H63.6667V104.167ZM47.2857 104.167V109.286H42.1667H37.0476V104.167V103.048C37.0476 100.838 38.8385 99.0476 41.0476 99.0476H42.1667H47.2857V104.167ZM75.9524 104.167V109.286H70.8333H65.7143V104.167V99.0476H70.8333H71.9524C74.1615 99.0476 75.9524 100.838 75.9524 103.048V104.167ZM39.0952 104.167V107.238H42.1667H45.2381V104.167V101.095H42.1667C40.4704 101.095 39.0952 102.47 39.0952 104.167ZM67.7619 104.167V107.238H70.8333H73.9048V104.167C73.9048 102.47 72.5296 101.095 70.8333 101.095H67.7619V104.167ZM55.4762 110.31V111.333H56.5H57.5238V110.31V109.286H58.5476H59.5714V110.31V111.333H58.5476H57.5238V112.357V113.381H56.5H55.4762V114.405V115.429H57.5238H59.5714V116.452V117.476H58.5476H57.5238V118.5V119.524H56.5H55.4762V121.571V123.619H56.5H57.5238V125.667V127.714H55.4762H53.4286V126.69V125.667H54.4524H55.4762V124.643V123.619H54.4524H53.4286V121.571V119.524H52.4048H51.381V118.5V117.476H52.4048H53.4286V118.5V119.524H54.4524H55.4762V117.476V115.429H53.4286H51.381V114.405V113.381H52.4048H53.4286V111.333V109.286H54.4524H55.4762V110.31ZM63.6667 114.405V115.429H64.6905H65.7143V114.405V113.381H64.6905H63.6667V114.405ZM43.1905 116.452V117.476H42.1667H41.1429V116.452V115.429H42.1667H43.1905V116.452ZM49.3333 116.452V117.476H48.3095H47.2857V118.5V119.524H48.3095H49.3333V120.548V121.571H48.3095H47.2857V120.548V119.524H46.2619H45.2381V120.548V121.571H42.1667H39.0952V120.548V119.524H42.1667H45.2381V118.5V117.476H46.2619H47.2857V116.452V115.429H48.3095H49.3333V116.452ZM35 132.833V136C35 138.209 36.7909 140 39 140H42.1667H49.3333V132.833V125.667H42.1667H35V132.833ZM47.2857 132.833V137.952H42.1667H41.0476C38.8385 137.952 37.0476 136.162 37.0476 133.952V132.833V127.714H42.1667H47.2857V132.833ZM39.0952 132.833C39.0952 134.53 40.4704 135.905 42.1667 135.905H45.2381V132.833V129.762H42.1667H39.0952V132.833ZM59.5714 132.833V133.857H56.5H53.4286V132.833V131.81H56.5H59.5714V132.833ZM61.619 136.929V137.952H60.5952H59.5714V136.929V135.905H60.5952H61.619V136.929ZM75.9524 136.929V137.952H76.9762H78V136.929V135.905H76.9762H75.9524V136.929Z" fill="#002612"/>
<path d="M25 30L25 20C25 14.4772 29.4772 10 35 10L125 10C130.523 10 135 14.4772 135 20L135 30L25 30Z" fill="#004C1E"/>
<g clip-path="url(#clip0_1199_7727)">
<path d="M38.5092 24.8001C37.953 23.7153 37.3801 22.4424 36.8072 20.9868C36.2343 19.5312 35.6892 17.9428 35.1719 16.2271H37.7583C37.8695 16.6532 37.9975 17.1126 38.1476 17.6052C38.2978 18.0977 38.448 18.6014 38.6093 19.105C38.7706 19.6087 38.9263 20.1012 39.0876 20.5827C39.249 21.0587 39.4047 21.4959 39.5549 21.8889C39.6995 21.4959 39.8497 21.0642 40.0165 20.5827C40.1834 20.1068 40.3447 19.6142 40.5004 19.105C40.6617 18.6014 40.8119 18.0977 40.9621 17.6052C41.1123 17.1126 41.2402 16.6532 41.3459 16.2271H43.8711C43.3538 17.9428 42.8087 19.5312 42.2358 20.9868C41.6629 22.4424 41.0956 23.7153 40.5338 24.8001H38.5092Z" fill="white"/>
<path d="M46.8305 24.8001H44.3887V16.2271H46.8305V24.8001Z" fill="white"/>
<path d="M50.4408 24.8001C49.8846 23.7153 49.3173 22.4424 48.7388 20.9868C48.1659 19.5312 47.6208 17.9428 47.1035 16.2271H49.6899C49.8012 16.6532 49.9291 17.1126 50.0793 17.6052C50.2295 18.0977 50.3796 18.6014 50.5409 19.105C50.7022 19.6087 50.858 20.1012 51.0193 20.5827C51.1806 21.0587 51.3363 21.4959 51.4865 21.8889C51.6311 21.4959 51.7813 21.0642 51.9482 20.5827C52.115 20.1068 52.2763 19.6142 52.4321 19.105C52.5934 18.6014 52.7436 18.0977 52.8937 17.6052C53.0439 17.1126 53.1719 16.6532 53.2775 16.2271H55.8028C55.2855 17.9428 54.7404 19.5312 54.1675 20.9868C53.589 22.4424 53.0217 23.7153 52.4655 24.8001H50.4408Z" fill="white"/>
<path d="M59.2514 16C59.9745 16 60.5752 16.083 61.0536 16.2435C61.5319 16.404 61.9213 16.642 62.2105 16.9464C62.4997 17.2508 62.7055 17.6216 62.8223 18.0533C62.9447 18.4905 63.0003 18.9721 63.0003 19.5034V24.5564C62.6499 24.6339 62.166 24.7224 61.543 24.8276C60.9201 24.9328 60.1692 24.9826 59.2848 24.9826C58.7286 24.9826 58.2224 24.9328 57.7719 24.8331C57.3213 24.7335 56.9264 24.573 56.5983 24.3516C56.2701 24.1303 56.0198 23.8369 55.8474 23.4772C55.6749 23.1174 55.5859 22.6802 55.5859 22.1544C55.5859 21.6563 55.6861 21.2301 55.8863 20.8815C56.0865 20.5328 56.3591 20.2561 56.6984 20.0513C57.0377 19.8465 57.427 19.6971 57.8609 19.603C58.2947 19.5089 58.7508 19.4646 59.218 19.4646C59.5351 19.4646 59.8132 19.4757 60.0635 19.5034C60.3082 19.531 60.5085 19.5642 60.6586 19.6085V19.3816C60.6586 18.9665 60.5307 18.64 60.2804 18.3854C60.0301 18.1363 59.5907 18.009 58.9677 18.009C58.5506 18.009 58.1445 18.0367 57.7385 18.0976C57.3325 18.1585 56.9876 18.2415 56.6928 18.3522L56.3813 16.3985C56.5204 16.3542 56.6984 16.3099 56.9153 16.2601C57.1267 16.2103 57.3603 16.166 57.6106 16.1273C57.8609 16.0886 58.1279 16.0553 58.406 16.0277C58.6841 16.0111 58.9677 16 59.2514 16ZM59.4461 23.1064C59.6853 23.1064 59.9133 23.1008 60.1358 23.0898C60.3527 23.0787 60.5307 23.0621 60.6586 23.0399V21.1969C60.5585 21.1748 60.4139 21.1527 60.2137 21.1305C60.019 21.1084 59.8354 21.0973 59.6741 21.0973C59.4461 21.0973 59.2292 21.1084 59.0289 21.1361C58.8287 21.1637 58.6507 21.2135 58.495 21.291C58.3392 21.3685 58.2224 21.4681 58.1334 21.601C58.0444 21.7338 57.9999 21.8943 57.9999 22.088C57.9999 22.4699 58.1279 22.73 58.3837 22.8794C58.6451 23.0344 59.0011 23.1064 59.4461 23.1064Z" fill="white"/>
</g>
<path d="M110.715 16H125.285C126.214 16 127 16.6563 127 17.5C127 18.3125 126.25 19 125.285 19H110.715C109.786 19 109 18.3438 109 17.5C109 16.6875 109.786 16 110.715 16Z" fill="#E1E1E1"/>
<path d="M102.715 22H125.285C126.214 22 127 22.6563 127 23.5C127 24.3125 126.25 25 125.285 25H102.715C101.786 25 101 24.3438 101 23.5C101 22.6875 101.786 22 102.715 22Z" fill="#E1E1E1"/>
<defs>
<clipPath id="clip0_1199_7727">
<rect width="28" height="9" fill="white" transform="translate(35 16)"/>
</clipPath>
</defs>
</svg>
