<svg width="64" height="64" viewBox="0 0 64 64" fill="none" xmlns="http://www.w3.org/2000/svg">
<path d="M14.667 58.6668C13.6003 58.6668 12.667 58.2668 11.867 57.4668C11.067 56.6668 10.667 55.7335 10.667 54.6668V9.3335C10.667 8.26683 11.067 7.3335 11.867 6.5335C12.667 5.7335 13.6003 5.3335 14.667 5.3335H49.3337C50.4003 5.3335 51.3337 5.7335 52.1337 6.5335C52.9337 7.3335 53.3337 8.26683 53.3337 9.3335V54.6668C53.3337 55.7335 52.9337 56.6668 52.1337 57.4668C51.3337 58.2668 50.4003 58.6668 49.3337 58.6668H14.667ZM14.667 54.6668H49.3337V9.3335H45.3337V27.0668L38.867 23.3335L32.4003 27.0668V9.3335H14.667V54.6668ZM14.667 54.6668V9.3335V54.6668ZM32.4003 27.0668L38.867 23.3335L45.3337 27.0668L38.867 23.3335L32.4003 27.0668V27.0668Z" fill="#000000"/>
</svg>
