<svg width="64" height="64" viewBox="0 0 64 64" fill="none" xmlns="http://www.w3.org/2000/svg">
<path d="M55.9993 21.3335C52.1327 21.3335 49.9727 25.1735 50.8527 28.0268L41.386 37.5202C40.586 37.2802 39.4127 37.2802 38.6127 37.5202L31.8127 30.7202C32.7193 27.8668 30.5593 24.0002 26.666 24.0002C22.7993 24.0002 20.6127 27.8402 21.5193 30.7202L9.35935 42.8535C6.50602 41.9735 2.66602 44.1335 2.66602 48.0002C2.66602 50.9335 5.06602 53.3335 7.99935 53.3335C11.866 53.3335 14.026 49.4935 13.146 46.6402L25.2793 34.4802C26.0793 34.7202 27.2527 34.7202 28.0527 34.4802L34.8527 41.2802C33.946 44.1335 36.106 48.0002 39.9993 48.0002C43.866 48.0002 46.0527 44.1602 45.146 41.2802L54.6393 31.8135C57.4927 32.6935 61.3327 30.5335 61.3327 26.6668C61.3327 23.7335 58.9327 21.3335 55.9993 21.3335Z" fill="#093998"/>
<path d="M40 24L42.5067 18.48L48 16L42.5067 13.52L40 8L37.5467 13.52L32 16L37.5467 18.48L40 24Z" fill="#093998"/>
<path d="M9.33268 29.3333L10.666 24L15.9993 22.6667L10.666 21.3333L9.33268 16L7.99935 21.3333L2.66602 22.6667L7.99935 24L9.33268 29.3333Z" fill="#093998"/>
</svg>
