<svg width="240" height="240" viewBox="0 0 240 240" fill="none" xmlns="http://www.w3.org/2000/svg">
<path fill-rule="evenodd" clip-rule="evenodd" d="M125.305 106.188L155.389 68.813L185.474 106.188L185.474 106.189V224H125.305V106.189L125.305 106.188Z" fill="#E6E6E6"/>
<path d="M125.569 105.412H54.9805V224H125.569V105.412Z" fill="#B7CCED"/>
<path d="M85.065 68.5393L155.389 68.8131L125.304 106.189L54.9805 105.918L85.065 68.5393Z" fill="#0F55C3"/>
<path d="M111.622 16L121.92 31.7204H111.622H101.32L111.622 16Z" fill="#B7CCED"/>
<path d="M101.32 91.2952H114.605L121.92 83.2118V31.7202H101.32V91.2952Z" fill="#B7CCED"/>
<path fill-rule="evenodd" clip-rule="evenodd" d="M135.2 31.7204L124.901 16L114.6 31.7204H114.6V91.2953L135.2 68.5511V31.7204L135.2 31.7204Z" fill="#E6E6E6"/>
<path d="M124.9 16H111.622L101.32 31.7204H114.599L124.9 16Z" fill="#0F55C3"/>
<path fill-rule="evenodd" clip-rule="evenodd" d="M121.918 48.8459H127.878V40.8369C127.878 39.3398 126.657 38.1226 125.149 38.1226H124.647C123.142 38.1226 121.918 39.3369 121.918 40.8369V48.8459ZM169.881 118.438V126.86H161.414V118.438H169.881ZM156.418 196.059H157.947C162.543 196.059 166.268 199.764 166.268 204.335V223.999H148.098V204.335C148.098 199.764 151.823 196.059 156.418 196.059ZM169.881 143.703V135.281H161.414V143.703H169.881ZM169.883 152.123V160.545H161.416V152.123H169.883ZM169.881 177.389V168.967H161.414V177.389H169.881ZM152.949 118.44V126.862H144.483V118.44H152.949ZM152.949 143.704V135.282H144.483V143.704H152.949ZM152.951 152.124V160.546H144.485V152.124H152.951ZM152.947 177.39V168.968H144.481V177.39H152.947Z" fill="black"/>
</svg>
