<svg width="64" height="64" viewBox="0 0 64 64" fill="none" xmlns="http://www.w3.org/2000/svg">
<path d="M46.066 45.9999C47.2216 45.9999 48.1993 45.5777 48.9994 44.7333C49.7994 43.8888 50.1994 42.8888 50.1994 41.7333C50.1994 40.5777 49.7994 39.5999 48.9994 38.7999C48.1993 37.9999 47.2216 37.5999 46.066 37.5999C44.9105 37.5999 43.9105 37.9999 43.066 38.7999C42.2216 39.5999 41.7994 40.5777 41.7994 41.7333C41.7994 42.8888 42.2216 43.8888 43.066 44.7333C43.9105 45.5777 44.9105 45.9999 46.066 45.9999ZM45.9994 54.3333C47.466 54.3333 48.7994 54.0222 49.9994 53.3999C51.1993 52.7777 52.2216 51.8888 53.066 50.7333C51.9105 50.111 50.7549 49.6444 49.5993 49.3333C48.4438 49.0222 47.2438 48.8666 45.9994 48.8666C44.7549 48.8666 43.5438 49.0222 42.366 49.3333C41.1882 49.6444 40.0438 50.111 38.9327 50.7333C39.7771 51.8888 40.7882 52.7777 41.966 53.3999C43.1438 54.0222 44.4882 54.3333 45.9994 54.3333ZM31.9993 58.6666C25.866 57.2444 20.7771 53.7666 16.7327 48.2333C12.6882 42.6999 10.666 36.3555 10.666 29.1999V13.2666L31.9993 5.2666L53.3327 13.2666V31.2666C52.7105 30.9555 52.0438 30.6777 51.3327 30.4333C50.6216 30.1888 49.9549 30.0222 49.3327 29.9333V16.0666L31.9993 9.6666L14.666 16.0666V29.1999C14.666 32.5777 15.2105 35.6888 16.2993 38.5333C17.3882 41.3777 18.7771 43.8777 20.466 46.0333C22.1549 48.1888 24.0216 49.9777 26.066 51.3999C28.1105 52.8222 30.0882 53.8444 31.9993 54.4666C32.266 54.9999 32.666 55.5999 33.1993 56.2666C33.7327 56.9333 34.1771 57.4444 34.5327 57.7999C34.1327 58.0222 33.7105 58.1888 33.266 58.2999C32.8216 58.411 32.3993 58.5333 31.9993 58.6666ZM46.1994 58.6666C42.7327 58.6666 39.7771 57.4333 37.3327 54.9666C34.8882 52.4999 33.666 49.5777 33.666 46.1999C33.666 42.7333 34.8882 39.7666 37.3327 37.2999C39.7771 34.8333 42.7327 33.5999 46.1994 33.5999C49.6216 33.5999 52.566 34.8333 55.0327 37.2999C57.4994 39.7666 58.7327 42.7333 58.7327 46.1999C58.7327 49.5777 57.4994 52.4999 55.0327 54.9666C52.566 57.4333 49.6216 58.6666 46.1994 58.6666Z" fill="#093998"/>
</svg>
