<svg width="121" height="111" viewBox="0 0 121 111" fill="none" xmlns="http://www.w3.org/2000/svg">
<path d="M108.686 104.354L60.501 66.5855L12.3182 104.354H0V111H15.3279L15.7213 110.689L60.499 75.5878L105.277 110.689L105.67 111H120.998V104.354H108.686Z" fill="#030303"/>
<path d="M60.5009 91.3892L38.65 108.514L35.479 110.994H46.969L47.3624 110.683L60.4989 100.382L73.6315 110.683L74.0249 110.994H85.5129L60.5009 91.3892Z" fill="#030303"/>
<path d="M114.432 26.9117L114.038 27.2227L82.9046 51.6161L88.6486 56.1183L113.783 36.4158V83.2778L63.8766 44.1514L63.4832 43.8404H57.5287L57.1352 44.1514L7.2233 83.2778V36.4177L32.3553 56.1183L38.1013 51.6161L6.97741 27.2227L6.58398 26.9117H0V93.1348H6.12564L6.51906 92.8238L60.4971 50.5116L114.481 92.8162L114.874 93.1272H121V26.9117H114.432Z" fill="#030303"/>
<path d="M51.3518 37.8464H69.6894C72.4332 37.8434 75.0637 36.785 77.0038 34.9035C78.944 33.022 80.0353 30.471 80.0384 27.8101V23.1115H72.8328V27.8101C72.8328 28.6196 72.5013 29.396 71.911 29.9684C71.3207 30.5408 70.5202 30.8624 69.6854 30.8624H51.3518C50.5171 30.8624 49.7165 30.5408 49.1263 29.9684C48.536 29.396 48.2044 28.6196 48.2044 27.8101V10.0268C48.2044 9.21724 48.536 8.44088 49.1263 7.86846C49.7165 7.29605 50.5171 6.97447 51.3518 6.97447H69.6894C70.5241 6.97447 71.3247 7.29605 71.9149 7.86846C72.5052 8.44088 72.8368 9.21724 72.8368 10.0268V14.7254H80.0443V10.0268C80.0386 7.36689 78.9456 4.81775 77.0049 2.93819C75.0641 1.05862 72.4341 0.00201423 69.6913 0H51.3518C48.608 0.00302944 45.9775 1.06139 44.0374 2.94291C42.0972 4.82442 41.0059 7.37543 41.0028 10.0363V27.8197C41.0085 30.4789 42.101 33.0274 44.0409 34.9069C45.9807 36.7863 48.6097 37.8434 51.3518 37.8464Z" fill="#030303"/>
</svg>
