<svg width="64" height="64" viewBox="0 0 64 64" fill="none" xmlns="http://www.w3.org/2000/svg">
<g clip-path="url(#clip0_2525_18191)">
<path d="M45.334 2.6665H18.6673C15.734 2.6665 13.334 5.0665 13.334 7.99984V55.9998C13.334 58.9332 15.734 61.3332 18.6673 61.3332H45.334C48.2673 61.3332 50.6673 58.9332 50.6673 55.9998V7.99984C50.6673 5.0665 48.2673 2.6665 45.334 2.6665ZM42.6673 50.6665H21.334C19.8673 50.6665 18.6673 49.4665 18.6673 47.9998V15.9998C18.6673 14.5332 19.8673 13.3332 21.334 13.3332H42.6673C44.134 13.3332 45.334 14.5332 45.334 15.9998V47.9998C45.334 49.4665 44.134 50.6665 42.6673 50.6665Z" fill="#093998"/>
<path d="M40.0007 16H24.0007C22.534 16 21.334 17.2 21.334 18.6667C21.334 20.1333 22.534 21.3333 24.0007 21.3333H40.0007C41.4673 21.3333 42.6673 20.1333 42.6673 18.6667C42.6673 17.2 41.4673 16 40.0007 16Z" fill="#093998"/>
</g>
<defs>
<clipPath id="clip0_2525_18191">
<rect width="64" height="64" fill="white"/>
</clipPath>
</defs>
</svg>
