<svg width="64" height="64" viewBox="0 0 64 64" fill="none" xmlns="http://www.w3.org/2000/svg">
<path d="M3.4 37.0667C2.24444 35.1556 1.38889 33.2333 0.833333 31.3C0.277778 29.3667 0 27.4667 0 25.6C0 20.7111 1.71111 16.5556 5.13333 13.1333C8.55556 9.71111 12.7111 8 17.6 8C20.4 8 23.0556 8.57778 25.5667 9.73333C28.0778 10.8889 30.2222 12.4667 32 14.4667C33.7778 12.4667 35.9222 10.8889 38.4333 9.73333C40.9444 8.57778 43.6 8 46.4 8C51.2889 8 55.4444 9.71111 58.8667 13.1333C62.2889 16.5556 64 20.7111 64 25.6C64 27.4667 63.7222 29.3556 63.1667 31.2667C62.6111 33.1778 61.7556 35.0889 60.6 37C60.1556 36.4667 59.6556 36.0111 59.1 35.6333C58.5444 35.2556 57.9556 34.9333 57.3333 34.6667C58.2222 33.1111 58.8889 31.5778 59.3333 30.0667C59.7778 28.5556 60 27.0667 60 25.6C60 21.8222 58.6778 18.6111 56.0333 15.9667C53.3889 13.3222 50.1778 12 46.4 12C43.9556 12 41.5444 12.7222 39.1667 14.1667C36.7889 15.6111 34.4 17.8 32 20.7333C29.6 17.8 27.2111 15.6111 24.8333 14.1667C22.4556 12.7222 20.0444 12 17.6 12C13.8222 12 10.6111 13.3222 7.96667 15.9667C5.32222 18.6111 4 21.8222 4 25.6C4 27.0667 4.22222 28.5556 4.66667 30.0667C5.11111 31.5778 5.77778 33.1111 6.66667 34.6667C6.04444 34.9333 5.45556 35.2667 4.9 35.6667C4.34444 36.0667 3.84444 36.5333 3.4 37.0667ZM0 58.6667V55.1333C0 53.4 0.933333 52 2.8 50.9333C4.66667 49.8667 7.06667 49.3333 10 49.3333C10.5778 49.3333 11.1111 49.3444 11.6 49.3667C12.0889 49.3889 12.5778 49.4444 13.0667 49.5333C12.7111 50.2889 12.4444 51.0556 12.2667 51.8333C12.0889 52.6111 12 53.4444 12 54.3333V58.6667H0ZM16 58.6667V54.3333C16 51.4444 17.4778 49.1111 20.4333 47.3333C23.3889 45.5556 27.2444 44.6667 32 44.6667C36.8 44.6667 40.6667 45.5556 43.6 47.3333C46.5333 49.1111 48 51.4444 48 54.3333V58.6667H16ZM52 58.6667V54.3333C52 53.4444 51.9222 52.6111 51.7667 51.8333C51.6111 51.0556 51.3556 50.2889 51 49.5333C51.4889 49.4444 51.9778 49.3889 52.4667 49.3667C52.9556 49.3444 53.4667 49.3333 54 49.3333C56.9778 49.3333 59.3889 49.8667 61.2333 50.9333C63.0778 52 64 53.4 64 55.1333V58.6667H52ZM32 48.6667C28.4444 48.6667 25.5556 49.2 23.3333 50.2667C21.1111 51.3333 20 52.6889 20 54.3333V54.6667H44V54.2667C44 52.6667 42.9 51.3333 40.7 50.2667C38.5 49.2 35.6 48.6667 32 48.6667ZM10 47.3333C8.71111 47.3333 7.61111 46.8778 6.7 45.9667C5.78889 45.0556 5.33333 43.9556 5.33333 42.6667C5.33333 41.3778 5.78889 40.2778 6.7 39.3667C7.61111 38.4556 8.71111 38 10 38C11.2889 38 12.3889 38.4556 13.3 39.3667C14.2111 40.2778 14.6667 41.3778 14.6667 42.6667C14.6667 43.9556 14.2111 45.0556 13.3 45.9667C12.3889 46.8778 11.2889 47.3333 10 47.3333ZM54 47.3333C52.7111 47.3333 51.6111 46.8778 50.7 45.9667C49.7889 45.0556 49.3333 43.9556 49.3333 42.6667C49.3333 41.3778 49.7889 40.2778 50.7 39.3667C51.6111 38.4556 52.7111 38 54 38C55.2889 38 56.3889 38.4556 57.3 39.3667C58.2111 40.2778 58.6667 41.3778 58.6667 42.6667C58.6667 43.9556 58.2111 45.0556 57.3 45.9667C56.3889 46.8778 55.2889 47.3333 54 47.3333ZM32 42.6667C29.7778 42.6667 27.8889 41.8889 26.3333 40.3333C24.7778 38.7778 24 36.8889 24 34.6667C24 32.4 24.7778 30.5 26.3333 28.9667C27.8889 27.4333 29.7778 26.6667 32 26.6667C34.2667 26.6667 36.1667 27.4333 37.7 28.9667C39.2333 30.5 40 32.4 40 34.6667C40 36.8889 39.2333 38.7778 37.7 40.3333C36.1667 41.8889 34.2667 42.6667 32 42.6667ZM32 30.6667C30.8889 30.6667 29.9444 31.0444 29.1667 31.8C28.3889 32.5556 28 33.5111 28 34.6667C28 35.7778 28.3889 36.7222 29.1667 37.5C29.9444 38.2778 30.8889 38.6667 32 38.6667C33.1556 38.6667 34.1111 38.2778 34.8667 37.5C35.6222 36.7222 36 35.7778 36 34.6667C36 33.5111 35.6222 32.5556 34.8667 31.8C34.1111 31.0444 33.1556 30.6667 32 30.6667Z" fill="#F1DE4F"/>
</svg>
