<svg width="64" height="64" viewBox="0 0 64 64" fill="none" xmlns="http://www.w3.org/2000/svg">
<g clip-path="url(#clip0_2512_16038)">
<path d="M18.6667 26.6668H13.3333V21.3335C13.3333 19.8668 12.1333 18.6668 10.6667 18.6668C9.2 18.6668 8 19.8668 8 21.3335V26.6668H2.66667C1.2 26.6668 0 27.8668 0 29.3335C0 30.8002 1.2 32.0002 2.66667 32.0002H8V37.3335C8 38.8002 9.2 40.0002 10.6667 40.0002C12.1333 40.0002 13.3333 38.8002 13.3333 37.3335V32.0002H18.6667C20.1333 32.0002 21.3333 30.8002 21.3333 29.3335C21.3333 27.8668 20.1333 26.6668 18.6667 26.6668ZM48 29.3335C52.4267 29.3335 55.9733 25.7602 55.9733 21.3335C55.9733 16.9068 52.4267 13.3335 48 13.3335C47.1467 13.3335 46.32 13.4668 45.5733 13.7068C47.0933 15.8668 47.9733 18.4802 47.9733 21.3335C47.9733 24.1868 47.0667 26.7735 45.5733 28.9602C46.32 29.2002 47.1467 29.3335 48 29.3335ZM34.6667 29.3335C39.0933 29.3335 42.64 25.7602 42.64 21.3335C42.64 16.9068 39.0933 13.3335 34.6667 13.3335C30.24 13.3335 26.6667 16.9068 26.6667 21.3335C26.6667 25.7602 30.24 29.3335 34.6667 29.3335ZM34.6667 34.6668C29.3333 34.6668 18.6667 37.3335 18.6667 42.6668V45.3335C18.6667 46.8002 19.8667 48.0002 21.3333 48.0002H48C49.4667 48.0002 50.6667 46.8002 50.6667 45.3335V42.6668C50.6667 37.3335 40 34.6668 34.6667 34.6668ZM52.32 35.0935C54.5333 37.0402 56 39.5202 56 42.6668V46.6668C56 47.1202 55.9467 47.5735 55.8667 48.0002H62.6667C63.4133 48.0002 64 47.4135 64 46.6668V42.6668C64 38.5602 57.68 36.0268 52.32 35.0935Z" fill="#F1DE4F"/>
</g>
<defs>
<clipPath id="clip0_2512_16038">
<rect width="64" height="64" fill="white"/>
</clipPath>
</defs>
</svg>
