<svg width="64" height="64" viewBox="0 0 64 64" fill="none" xmlns="http://www.w3.org/2000/svg">
<path d="M10 37.3333L15.4667 32L10 26.5333L4.66667 32L10 37.3333ZM48.2 36.6667L54 27.3333L59.8667 36.6667H48.2ZM0 48V44.4667C0 42.7333 0.933333 41.3333 2.8 40.2667C4.66667 39.2 7.06667 38.6667 10 38.6667C10.5778 38.6667 11.1111 38.6778 11.6 38.7C12.0889 38.7222 12.5778 38.7778 13.0667 38.8667C12.7111 39.6222 12.4444 40.3889 12.2667 41.1667C12.0889 41.9444 12 42.7778 12 43.6667V48H0ZM16 48V43.6667C16 40.7778 17.4778 38.4444 20.4333 36.6667C23.3889 34.8889 27.2444 34 32 34C36.8 34 40.6667 34.8889 43.6 36.6667C46.5333 38.4444 48 40.7778 48 43.6667V48H16ZM52 48V43.6667C52 42.7778 51.9222 41.9444 51.7667 41.1667C51.6111 40.3889 51.3556 39.6222 51 38.8667C51.4889 38.7778 51.9778 38.7222 52.4667 38.7C52.9556 38.6778 53.4667 38.6667 54 38.6667C57.0222 38.6667 59.4444 39.2 61.2667 40.2667C63.0889 41.3333 64 42.7333 64 44.4667V48H52ZM32 38C28.4444 38 25.5556 38.5333 23.3333 39.6C21.1111 40.6667 20 42.0222 20 43.6667V44H44V43.6C44 42 42.9 40.6667 40.7 39.6C38.5 38.5333 35.6 38 32 38ZM32 32C29.7778 32 27.8889 31.2222 26.3333 29.6667C24.7778 28.1111 24 26.2222 24 24C24 21.7333 24.7778 19.8333 26.3333 18.3C27.8889 16.7667 29.7778 16 32 16C34.2667 16 36.1667 16.7667 37.7 18.3C39.2333 19.8333 40 21.7333 40 24C40 26.2222 39.2333 28.1111 37.7 29.6667C36.1667 31.2222 34.2667 32 32 32ZM32 20C30.8889 20 29.9444 20.3778 29.1667 21.1333C28.3889 21.8889 28 22.8444 28 24C28 25.1111 28.3889 26.0556 29.1667 26.8333C29.9444 27.6111 30.8889 28 32 28C33.1556 28 34.1111 27.6111 34.8667 26.8333C35.6222 26.0556 36 25.1111 36 24C36 22.8444 35.6222 21.8889 34.8667 21.1333C34.1111 20.3778 33.1556 20 32 20Z" fill="#F1DE4F"/>
</svg>
