<svg width="64" height="64" viewBox="0 0 64 64" fill="none" xmlns="http://www.w3.org/2000/svg">
<path d="M18.9333 45.5333H22.9333V31.8667H18.9333V45.5333ZM41.0667 45.5333H45.0667V17.5333H41.0667V45.5333ZM30 45.5333H34V37.6667H30V45.5333ZM30 31.8667H34V27.8667H30V31.8667ZM12 56C10.9333 56 10 55.6 9.2 54.8C8.4 54 8 53.0667 8 52V12C8 10.9333 8.4 10 9.2 9.2C10 8.4 10.9333 8 12 8H52C53.0667 8 54 8.4 54.8 9.2C55.6 10 56 10.9333 56 12V52C56 53.0667 55.6 54 54.8 54.8C54 55.6 53.0667 56 52 56H12ZM12 52H52V12H12V52ZM12 12V52V12Z" fill="#348181"/>
</svg>
