<svg width="64" height="64" viewBox="0 0 64 64" fill="none" xmlns="http://www.w3.org/2000/svg">
<g clip-path="url(#clip0_2525_16315)">
<path d="M0 0H64V64H0V0Z" fill="white"/>
<path d="M51.6 26.7732C49.7867 17.5732 41.7067 10.6665 32 10.6665C24.2933 10.6665 17.6 15.0398 14.2667 21.4398C6.24 22.2932 0 29.0932 0 37.3332C0 46.1598 7.17333 53.3332 16 53.3332H50.6667C58.0267 53.3332 64 47.3598 64 39.9998C64 32.9598 58.5333 27.2532 51.6 26.7732ZM28.56 43.4398C27.52 44.4798 25.84 44.4798 24.8 43.4398L19.2 37.8665C18.16 36.8265 18.16 35.1465 19.2 34.1065C20.24 33.0665 21.92 33.0665 22.96 34.1065L26.6667 37.8132L38.6133 25.8665C39.6533 24.8265 41.3333 24.8265 42.3733 25.8665C43.4133 26.9065 43.4133 28.5865 42.3733 29.6265L28.56 43.4398Z" fill="#348181"/>
</g>
<defs>
<clipPath id="clip0_2525_16315">
<rect width="64" height="64" fill="white"/>
</clipPath>
</defs>
</svg>
