<svg width="240" height="240" viewBox="0 0 240 240" fill="none" xmlns="http://www.w3.org/2000/svg">
<path fill-rule="evenodd" clip-rule="evenodd" d="M165.53 123.371C165.53 122.236 164.603 121.315 163.46 121.315H76.5395C75.3965 121.315 74.47 122.236 74.47 123.371C74.47 124.506 75.3965 125.426 76.5395 125.426H163.46C164.603 125.426 165.53 124.506 165.53 123.371Z" fill="white"/>
<path fill-rule="evenodd" clip-rule="evenodd" d="M163.047 170.891C163.047 169.756 162.12 168.836 160.977 168.836H79.023C77.88 168.836 76.9534 169.756 76.9534 170.891C76.9534 172.026 77.88 172.946 79.023 172.946H160.977C162.12 172.946 163.047 172.026 163.047 170.891Z" fill="white"/>
<path fill-rule="evenodd" clip-rule="evenodd" d="M165.247 101.748L158.039 210.05C157.895 212.21 156.089 213.889 153.909 213.889H86.0911C83.9111 213.889 82.1048 212.21 81.961 210.05L74.7526 101.748H165.247ZM165.424 97.6376C167.722 97.6376 169.541 99.5672 169.389 101.844L162.169 210.321C161.882 214.641 158.269 218 153.909 218H86.0911C81.7311 218 78.1185 214.641 77.8309 210.321L70.6108 101.844C70.4593 99.5672 72.2781 97.6376 74.5757 97.6376H165.424Z" fill="white"/>
<path fill-rule="evenodd" clip-rule="evenodd" d="M67.623 83.6611H172.377C173.834 83.6611 174.978 84.9007 174.851 86.3421L174.085 95.0568C173.973 96.331 172.899 97.3087 171.611 97.3087H68.3892C67.1014 97.3087 66.0272 96.331 65.9152 95.0568L65.149 86.3421C65.0223 84.9007 66.1662 83.6611 67.623 83.6611ZM172.377 79.5503C176.262 79.5503 179.312 82.856 178.974 86.6996L178.208 95.4144C177.909 98.8122 175.045 101.419 171.611 101.419H68.3892C64.955 101.419 62.0905 98.8122 61.7918 95.4144L61.0256 86.6996C60.6877 82.856 63.7382 79.5503 67.623 79.5503H172.377Z" fill="white"/>
<path fill-rule="evenodd" clip-rule="evenodd" d="M78.7996 63.7651H159.71C162.916 63.7651 165.513 66.3505 165.505 69.5346L165.48 79.3859H73.0298L73.0049 69.5346C72.9968 66.3505 75.5936 63.7651 78.7996 63.7651ZM68.9011 83.4966L68.8658 69.5449C68.852 64.0865 73.3036 59.6544 78.7996 59.6544H159.71C165.206 59.6544 169.658 64.0865 169.644 69.5449L169.609 83.4966H68.9011Z" fill="white"/>
<path fill-rule="evenodd" clip-rule="evenodd" d="M106.991 149.675C107.514 150.693 108.421 151.729 109.811 152.688C112.226 154.355 115.787 155.517 119.917 155.517C124.048 155.517 127.608 154.355 130.023 152.688C131.37 151.759 132.264 150.757 132.794 149.77C128.982 147.892 123.91 147.431 118.777 149.879C115.175 151.596 111.285 151.024 108.541 150.202C107.989 150.037 107.47 149.857 106.991 149.675ZM107.008 145.212C107.533 144.205 108.436 143.18 109.811 142.232C112.226 140.565 115.787 139.403 119.917 139.403C124.048 139.403 127.608 140.565 130.023 142.232C131.454 143.219 132.374 144.288 132.888 145.334C128.273 143.605 122.605 143.493 116.985 146.173C114.759 147.235 112.093 146.973 109.737 146.267C108.649 145.94 107.702 145.541 107.008 145.212ZM102.285 147.46C102.285 154.18 110.179 159.628 119.917 159.628C129.655 159.628 137.55 154.18 137.55 147.46C137.55 140.74 129.655 135.292 119.917 135.292C110.179 135.292 102.285 140.74 102.285 147.46Z" fill="white"/>
<path fill-rule="evenodd" clip-rule="evenodd" d="M128.314 48.8027C128.944 49.7494 130.228 50.0091 131.181 49.3827C133.61 47.7869 135.556 45.5712 136.418 42.7683C137.288 39.9412 136.977 36.769 135.35 33.4364C134.457 31.609 135.131 29.9467 136.585 28.3675C137.294 27.5978 138.099 26.9634 138.744 26.5152C139.062 26.2939 139.331 26.1249 139.516 26.0138C139.608 25.9585 139.679 25.9179 139.723 25.893C139.745 25.8805 139.761 25.8719 139.769 25.8674L139.771 25.8659L139.773 25.8653L139.775 25.864L139.775 25.8637C140.779 25.3248 141.154 24.0805 140.614 23.0822C140.072 22.0825 138.817 21.7079 137.811 22.2456L138.791 24.0558C137.811 22.2456 137.81 22.246 137.809 22.2463L137.804 22.2491L137.795 22.2543C137.787 22.2583 137.778 22.2634 137.767 22.2696C137.744 22.282 137.714 22.2987 137.677 22.3197C137.602 22.3617 137.5 22.4209 137.374 22.4966C137.122 22.6478 136.774 22.8665 136.37 23.1475C135.57 23.7037 134.508 24.5317 133.531 25.5933C131.612 27.6768 129.634 31.1533 131.625 35.2303C132.881 37.802 132.972 39.901 132.459 41.5672C131.939 43.2577 130.719 44.7575 128.898 45.9544C127.944 46.5807 127.683 47.856 128.314 48.8027ZM113.065 48.8027C113.695 49.7494 114.979 50.0091 115.933 49.3827C118.361 47.7869 120.307 45.5712 121.169 42.7683C122.039 39.9412 121.728 36.769 120.101 33.4364C119.208 31.609 119.882 29.9467 121.336 28.3675C122.045 27.5978 122.85 26.9634 123.495 26.5152C123.813 26.2939 124.082 26.1249 124.267 26.0138C124.359 25.9585 124.43 25.9179 124.474 25.893C124.496 25.8805 124.512 25.8719 124.52 25.8674L124.523 25.8659L124.524 25.8653L124.527 25.8637C125.53 25.3248 125.906 24.0805 125.365 23.0822C124.823 22.0825 123.569 21.7079 122.562 22.2456L123.542 24.0558C122.562 22.2456 122.561 22.246 122.561 22.2463L122.555 22.2491L122.546 22.2543C122.538 22.2583 122.529 22.2634 122.518 22.2696C122.495 22.282 122.465 22.2987 122.428 22.3197C122.354 22.3617 122.251 22.4209 122.125 22.4966C121.873 22.6478 121.525 22.8665 121.121 23.1475C120.321 23.7037 119.26 24.5317 118.282 25.5933C116.363 27.6768 114.386 31.1533 116.377 35.2303C117.633 37.802 117.723 39.901 117.211 41.5672C116.691 43.2577 115.47 44.7575 113.649 45.9544C112.696 46.5807 112.434 47.856 113.065 48.8027ZM100.684 49.3827C99.7305 50.0091 98.4465 49.7494 97.8158 48.8027C97.1852 47.856 97.4467 46.5807 98.3999 45.9544C100.221 44.7575 101.442 43.2577 101.962 41.5672C102.474 39.901 102.384 37.802 101.128 35.2303C99.1367 31.1533 101.115 27.6768 103.033 25.5933C104.011 24.5317 105.072 23.7037 105.872 23.1475C106.277 22.8665 106.624 22.6478 106.876 22.4966C107.002 22.4209 107.105 22.3617 107.179 22.3197C107.216 22.2987 107.246 22.282 107.269 22.2696C107.28 22.2634 107.289 22.2583 107.297 22.2543L107.306 22.2491L107.31 22.2472L107.312 22.2463C107.312 22.246 107.313 22.2456 108.293 24.0558L107.313 22.2456C108.32 21.7079 109.575 22.0825 110.116 23.0822C110.657 24.0805 110.281 25.3248 109.278 25.8637L109.275 25.865L109.275 25.8653L109.274 25.8659L109.271 25.8674C109.263 25.8719 109.247 25.8805 109.225 25.893C109.181 25.9179 109.111 25.9585 109.018 26.0138C108.834 26.1249 108.564 26.2939 108.246 26.5152C107.601 26.9634 106.796 27.5978 106.088 28.3675C104.633 29.9467 103.96 31.609 104.852 33.4364C106.479 36.769 106.79 39.9412 105.92 42.7683C105.058 45.5712 103.112 47.7869 100.684 49.3827Z" fill="white"/>
</svg>
