<svg width="214" height="104" viewBox="0 0 214 104" fill="none" xmlns="http://www.w3.org/2000/svg">
<path fill-rule="evenodd" clip-rule="evenodd" d="M109.444 0C109.562 0.0523753 109.688 0.058875 109.814 0.0651231L110.043 0.076414L110.043 0.076417C110.903 0.118781 111.763 0.161131 112.622 0.233236C113.947 0.344486 115.264 0.504673 116.578 0.706878C117.74 0.885599 118.895 1.09707 120.037 1.36624C121.464 1.70264 122.88 2.08415 124.276 2.53989C125.631 2.98229 126.968 3.46947 128.284 4.01545C132.397 5.72153 136.218 7.93202 139.761 10.6247C142.653 12.8224 145.28 15.3013 147.655 18.0463C149.762 20.4825 151.624 23.0962 153.242 25.8801C154.808 28.5773 156.126 31.3927 157.175 34.3321L157.235 34.5019C157.478 35.1811 157.72 35.8601 157.913 36.5556C158.001 36.8759 157.992 36.8868 157.66 36.8878C157.201 36.8892 156.742 36.8888 156.284 36.8884H156.283C155.496 36.8877 154.709 36.887 153.923 36.8954C153.673 36.898 153.574 36.7812 153.508 36.5789C153.226 35.7165 152.902 34.87 152.562 34.0285C150.81 29.6863 148.452 25.6995 145.523 22.0478C143.902 20.0271 142.125 18.1521 140.195 16.4229C137.321 13.8475 134.183 11.6474 130.778 9.82638C129.163 8.96272 127.502 8.197 125.8 7.52564C124.371 6.9621 122.914 6.4742 121.435 6.05369C119.564 5.5218 117.667 5.10896 115.747 4.80481C112.655 4.31486 109.541 4.17057 106.414 4.28093C104.763 4.33922 103.122 4.51002 101.486 4.74401C100.295 4.91439 99.1118 5.12905 97.9385 5.38992C96.8211 5.63837 95.7132 5.92944 94.6161 6.26038C92.1367 7.00839 89.7307 7.94599 87.4097 9.09003C84.3679 10.5893 81.5125 12.3873 78.8528 14.4955C76.2256 16.578 73.8376 18.901 71.6978 21.4794C69.1702 24.5251 67.0516 27.8311 65.346 31.402C64.5509 33.0665 63.8596 34.7723 63.2582 36.5152L63.2576 36.5168C63.13 36.8867 63.1293 36.8887 62.7288 36.8891C61.8202 36.8899 60.9116 36.8897 60.0029 36.8895L59.1592 36.8894C59.0892 36.8894 59.0192 36.8891 58.9492 36.8874C58.757 36.8828 58.7636 36.7878 58.814 36.6369C58.8865 36.4194 58.9536 36.2001 59.0206 35.9808C59.1005 35.7197 59.1803 35.4586 59.2694 35.2006C59.9162 33.3269 60.6558 31.4908 61.5075 29.6993C62.3354 27.958 63.2548 26.2676 64.2687 24.6278C65.7186 22.2828 67.3475 20.0676 69.1529 17.9842C71.1145 15.7206 73.2545 13.6371 75.5756 11.7407C77.4609 10.2004 79.4427 8.7949 81.5258 7.53483C83.7513 6.18867 86.0644 5.0136 88.4679 4.01436C90.4825 3.17682 92.5396 2.46264 94.6433 1.88958C96.4366 1.40105 98.252 1.00972 100.091 0.718871C102.278 0.372917 104.476 0.165596 106.687 0.0767807C106.721 0.075387 106.756 0.075384 106.791 0.075381C106.923 0.0753696 107.056 0.0753581 107.177 0H109.444ZM107.345 103.828C107.182 103.697 106.986 103.697 106.795 103.696L106.784 103.696C105.312 103.693 103.848 103.56 102.389 103.393C100.791 103.21 99.2031 102.956 97.6286 102.619C96.4671 102.37 95.3127 102.093 94.1712 101.768C92.6668 101.339 91.1866 100.837 89.7252 100.276C87.7142 99.5034 85.7642 98.6037 83.8661 97.5883C81.596 96.3737 79.4331 94.9907 77.3704 93.4521C74.3679 91.2124 71.6418 88.6731 69.1893 85.8451C66.9963 83.3161 65.0669 80.5984 63.3969 77.6953C62.1344 75.5003 61.054 73.2203 60.1051 70.8762C59.9514 70.4966 59.8137 70.1106 59.6775 69.7289L59.6772 69.7281L59.6772 69.7279L59.6771 69.7278L59.6771 69.7277L59.677 69.7276L59.677 69.7275L59.677 69.7274L59.6769 69.7273L59.6769 69.7271L59.6768 69.727L59.6768 69.7269L59.6767 69.7268C59.6145 69.5524 59.5526 69.379 59.4897 69.2074C59.5582 69.1014 59.6438 69.1057 59.7231 69.1097C59.7383 69.1105 59.7532 69.1113 59.7678 69.1112C60.1975 69.1105 60.6271 69.1106 61.0568 69.1108C61.901 69.1112 62.7452 69.1116 63.5893 69.1047C63.8372 69.1027 63.9521 69.184 64.0467 69.4205C64.9339 71.6391 65.9682 73.7875 67.175 75.852C68.9579 78.9018 71.0508 81.7208 73.4529 84.3134C75.3767 86.3897 77.472 88.2761 79.7299 89.9801C82.0882 91.7597 84.5953 93.3031 87.2443 94.6164C89.0111 95.4923 90.8248 96.2574 92.6856 96.9062C94.057 97.3843 95.4499 97.7959 96.8618 98.1452C97.9343 98.4105 99.0139 98.6387 100.1 98.8308C101.022 98.9938 101.951 99.1211 102.881 99.2327C105.43 99.5387 107.989 99.6123 110.552 99.4982C112.398 99.4161 114.233 99.2288 116.058 98.9231C117.175 98.7358 118.289 98.5351 119.389 98.269C120.773 97.9339 122.143 97.545 123.495 97.0925C125.034 96.5778 126.541 95.9863 128.02 95.3257C129.576 94.6306 131.086 93.8395 132.552 92.9712C134.659 91.7235 136.664 90.3265 138.557 88.7722C140.527 87.1552 142.36 85.3981 144.048 83.4896C146.83 80.3443 149.169 76.901 151.041 73.1421C151.614 71.992 152.14 70.822 152.622 69.6317C152.635 69.5987 152.651 69.5664 152.667 69.5342C152.694 69.478 152.722 69.422 152.736 69.3627C152.783 69.1616 152.907 69.1063 153.101 69.1071C153.955 69.1108 154.809 69.1111 155.663 69.1114C156.125 69.1115 156.587 69.1117 157.049 69.1124C157.085 69.1124 157.122 69.1201 157.161 69.1284C157.179 69.1323 157.198 69.1364 157.218 69.1398C157.245 69.2865 157.194 69.4115 157.145 69.5342C157.132 69.5646 157.12 69.5949 157.109 69.6253C155.918 72.9174 154.395 76.0495 152.563 79.0326C150.729 82.0176 148.609 84.7852 146.215 87.3423C144.715 88.9451 143.114 90.4428 141.422 91.8451C139.137 93.7399 136.704 95.4234 134.132 96.9032C132.328 97.9412 130.462 98.859 128.542 99.6684C126.609 100.483 124.636 101.183 122.62 101.756C121.033 102.207 119.431 102.593 117.806 102.881C116.511 103.11 115.211 103.295 113.902 103.436C112.579 103.579 111.255 103.674 109.925 103.698C109.73 103.701 109.531 103.71 109.36 103.828H107.345ZM84.0752 61.8114C84.9841 62.7735 85.893 63.7356 86.801 64.6985L86.92 64.6474V64.1573V40.6808L86.9201 40.5924C86.9203 40.5241 86.9205 40.4557 86.9197 40.3874C86.9152 39.9573 86.9149 39.955 86.4655 39.9532C85.8777 39.9509 85.2898 39.9502 84.7021 39.9532C84.6327 39.9536 84.5712 39.9528 84.5166 39.9521C84.3273 39.9496 84.2221 39.9483 84.1636 39.9999C84.0904 40.0645 84.0905 40.212 84.0905 40.544V40.5678C84.091 44.3468 84.091 48.1259 84.091 51.9049L84.091 56.4564L84.0909 56.5827L84.0907 56.6671C84.0897 57.1137 84.0886 57.5604 84.1289 58.0063C84.1307 58.0265 84.1341 58.0474 84.1375 58.0686L84.1375 58.0686C84.1515 58.1547 84.1664 58.2464 84.0819 58.3264C83.9568 58.2959 83.8929 58.1954 83.8335 58.1022L83.8205 58.0818C83.659 57.8307 83.458 57.6145 83.2565 57.3978L83.1769 57.3119C81.8947 55.9238 80.614 54.5346 79.3332 53.1453L78.4041 52.1376L76.723 50.3139C75.6265 49.1244 74.53 47.9348 73.4328 46.746C72.1449 45.3506 70.8564 43.9559 69.5679 42.5612L67.7174 40.5581L67.2783 40.0825C66.9984 39.7792 66.7185 39.476 66.4381 39.1731C66.4332 39.1678 66.4283 39.1623 66.4235 39.1565L66.4096 39.1398C66.3654 39.0859 66.3186 39.029 66.237 39.0648C66.1623 39.0976 66.1641 39.1681 66.1658 39.2354C66.1662 39.253 66.1667 39.2703 66.1657 39.2867C66.1617 39.358 66.1623 39.4295 66.163 39.5011L66.1633 39.5415L66.1634 39.5801V63.1404C66.1634 63.2243 66.1611 63.3083 66.1645 63.392C66.1776 63.7081 66.1882 63.726 66.5008 63.7288C67.1305 63.7346 67.7604 63.7328 68.3902 63.7302C68.4167 63.7301 68.4421 63.7301 68.4664 63.7302C68.5006 63.7304 68.5327 63.7307 68.5627 63.7309L68.5643 63.731C68.7701 63.7329 68.8796 63.7339 68.9378 63.6798C69.0041 63.6181 69.0039 63.4849 69.0034 63.2L69.0033 63.1196L69.0033 61.2751C69.0032 56.6636 69.0031 52.0522 69.0037 47.4407C69.0038 46.9933 68.997 46.5468 68.9466 46.1014L68.9447 46.0863L68.9423 46.068L68.9369 46.0305C68.9208 45.9219 68.9043 45.8102 68.9666 45.7097C70.9194 47.8652 72.9126 49.9719 74.9039 52.0765L74.9048 52.0774C75.8953 53.1243 76.8853 54.1707 77.8697 55.2223C79.9314 57.425 82.0033 59.6182 84.0752 61.8114ZM139.041 46.5094L139.041 47.4821C139.041 48.3164 139.04 49.1508 139.042 49.985C139.043 50.3993 139.058 50.4171 139.46 50.4187L139.709 50.4197C140.563 50.4231 141.417 50.4266 142.27 50.4161C143.26 50.404 144.213 50.2199 145.091 49.7341C146.43 48.9929 147.074 47.8388 147.038 46.331C147.01 45.1131 146.321 44.2457 145.362 43.5821C144.428 42.9364 143.368 42.6555 142.241 42.6335C141.487 42.6188 140.732 42.6196 139.978 42.6203L139.75 42.6205L139.473 42.6207C139.045 42.6207 139.042 42.6262 139.042 43.0756C139.041 43.8994 139.041 44.7233 139.041 45.5472V45.5773L139.041 46.5094ZM136.231 51.8466C136.232 48.762 136.232 45.6774 136.232 42.5928L136.232 40.6099C136.232 40.5855 136.232 40.5611 136.232 40.5366L136.233 40.4841C136.234 40.4002 136.235 40.3163 136.232 40.2326C136.223 40.0408 136.303 39.9444 136.501 39.9532C136.565 39.9561 136.63 39.9549 136.694 39.9538C136.728 39.9532 136.761 39.9526 136.795 39.9526C137.242 39.9526 137.688 39.9538 138.135 39.9551C139.158 39.9579 140.181 39.9608 141.204 39.9483C142.432 39.9333 143.64 40.0774 144.807 40.4388C146.591 40.9909 148.102 41.9458 149.125 43.5616C149.666 44.4156 149.872 45.3587 149.876 46.3535C149.883 47.7454 149.63 49.0714 148.881 50.2767C148.198 51.375 147.24 52.1262 146.042 52.5869C145.782 52.687 145.522 52.7866 145.249 52.8535C144.932 52.9312 144.916 52.97 145.063 53.2858C145.335 53.8698 145.61 54.4519 145.886 55.034C145.981 55.234 146.076 55.434 146.17 55.634L147.386 58.2065C148.192 59.9102 148.997 61.614 149.802 63.3178C149.826 63.3683 149.848 63.4199 149.868 63.472C149.958 63.705 149.949 63.7267 149.677 63.7284C149.281 63.7308 148.884 63.7306 148.488 63.7303C148.045 63.73 147.601 63.7297 147.158 63.7332C146.995 63.7344 146.897 63.6785 146.832 63.5333C146.771 63.3985 146.706 63.2655 146.641 63.1325L146.64 63.1312C146.595 63.0393 146.55 62.9475 146.506 62.8549L145.721 61.1889C144.518 58.6387 143.316 56.0885 142.121 53.5349C141.992 53.2604 141.841 53.1366 141.524 53.1475C141.07 53.1631 140.616 53.1605 140.161 53.1578C139.916 53.1563 139.67 53.1549 139.425 53.1563C139.051 53.1586 139.045 53.1644 139.042 53.5299C139.039 54.0601 139.04 54.5904 139.041 55.1207C139.041 55.3311 139.041 55.5416 139.041 55.7521C139.041 58.2258 139.041 60.6995 139.041 63.1733C139.041 63.2176 139.04 63.262 139.04 63.3064V63.308L139.039 63.3887C139.039 63.4287 139.039 63.4687 139.039 63.5086C139.042 63.668 138.963 63.7309 138.807 63.7303C138.023 63.7275 137.239 63.7276 136.455 63.7297C136.297 63.7301 136.223 63.6601 136.23 63.5025C136.233 63.4327 136.231 63.3628 136.231 63.2929L136.231 59.63L136.231 51.8466ZM33.8445 49.0145L33.8445 51.7881V53.682L33.8447 63.1514C33.8447 63.2088 33.8453 63.2662 33.8459 63.3236C33.8467 63.392 33.8475 63.4604 33.8471 63.5287C33.8465 63.6691 33.9178 63.7307 34.055 63.7287C34.1211 63.7277 34.1872 63.7286 34.2533 63.7295C34.2992 63.7301 34.345 63.7307 34.3909 63.7307L40.6902 63.7308L42.55 63.7309C44.5337 63.7309 46.5175 63.731 48.5013 63.7304C48.9482 63.7302 48.9513 63.7279 48.9532 63.3014C48.9561 62.6865 48.9562 62.0715 48.9531 61.4565C48.951 61.0383 48.9475 61.0381 48.5356 61.0329C48.4765 61.0321 48.4175 61.0323 48.3584 61.0325L48.2836 61.0326L37.2809 61.0326L37.2499 61.0324C37.2236 61.0321 37.1972 61.0316 37.1709 61.031C37.0955 61.0295 37.02 61.0279 36.945 61.033C36.7411 61.0466 36.6674 60.9471 36.6813 60.7562C36.6847 60.7095 36.6836 60.6625 36.6825 60.6154C36.6819 60.5925 36.6814 60.5695 36.6814 60.5466L36.681 59.9657C36.6796 57.8531 36.6781 55.7406 36.6771 53.6281C36.6771 53.5163 36.6795 53.4045 36.6838 53.2929C36.6884 53.1756 36.7542 53.1148 36.8695 53.1099C36.9813 53.1051 37.0933 53.1031 37.2053 53.103C38.277 53.1028 39.3486 53.1028 40.4203 53.1028L41.6568 53.1028L42.9817 53.103C44.2339 53.1032 45.4861 53.1035 46.7382 53.1014C47.149 53.1007 47.1631 53.084 47.1661 52.6733C47.1692 52.2452 47.1684 51.8171 47.1677 51.389L47.1671 50.996C47.1666 50.4218 47.1661 50.4207 46.5931 50.4206C45.0507 50.4204 43.5083 50.4204 41.9659 50.4204C40.4147 50.4203 38.8634 50.4203 37.3121 50.4201C37.2072 50.4201 37.1023 50.4181 36.9974 50.416L36.8923 50.414C36.756 50.4117 36.6879 50.3407 36.6853 50.2058L36.6852 50.1985C36.6834 50.1031 36.6816 50.0078 36.6815 49.9123L36.6802 48.3459C36.6787 46.6317 36.6772 44.9176 36.6776 43.2034L36.6775 43.1418L36.677 43.0673C36.6753 42.86 36.6744 42.7549 36.7266 42.7019C36.7803 42.6473 36.8903 42.6481 37.1136 42.6496H37.1143C37.1566 42.6499 37.203 42.6502 37.2538 42.6502C39.8102 42.6491 42.3666 42.6492 44.923 42.6493L47.8366 42.6494C47.8733 42.6494 47.91 42.6488 47.9467 42.6481L47.9473 42.6481C48.0225 42.6468 48.0976 42.6456 48.1725 42.6496C48.3768 42.6606 48.4829 42.5897 48.4804 42.3644C48.4767 42.0161 48.4772 41.6678 48.4778 41.3195V41.3186C48.4784 40.9683 48.4789 40.6181 48.4751 40.268C48.472 39.9867 48.4407 39.968 48.1532 39.9537C48.1036 39.9512 48.0538 39.9517 48.004 39.9522C47.9837 39.9524 47.9635 39.9526 47.9432 39.9526L45.2304 39.9526H45.0433C41.4884 39.9526 37.9336 39.9526 34.3788 39.9524L34.3324 39.9524C34.0695 39.9522 33.9468 39.9521 33.8902 40.0133C33.8405 40.0669 33.8418 40.1675 33.8441 40.3565C33.8446 40.4019 33.8452 40.4525 33.8452 40.5087C33.8442 43.344 33.8443 46.1792 33.8445 49.0145ZM175.03 51.5517C175.02 51.4142 174.964 51.2848 174.908 51.1543L174.907 51.1537L174.896 51.1286L174.881 51.0914C174.621 50.4767 174.361 49.8616 174.102 49.2465L174.094 49.2261L173.847 48.6415L173.564 47.9708C173.503 47.8251 173.44 47.6798 173.377 47.5345L173.376 47.5311C173.071 46.8243 172.765 46.1152 172.587 45.342C172.441 45.4285 172.41 45.543 172.379 45.6544C172.375 45.6695 172.371 45.6846 172.367 45.6996L172.361 45.72C172.133 46.4375 171.895 47.151 171.596 47.8429C171.115 48.9563 170.634 50.0696 170.16 51.1858C169.98 51.6086 169.989 51.6156 170.449 51.6161C171.847 51.6179 173.245 51.6174 174.644 51.6156C174.665 51.6156 174.687 51.6163 174.709 51.617C174.812 51.6203 174.92 51.6238 175.03 51.5517ZM172.598 39.0209L183.027 63.6333C182.934 63.7379 182.847 63.7339 182.766 63.7303C182.751 63.7296 182.736 63.7289 182.722 63.729C182.486 63.7299 182.249 63.7289 182.013 63.7279C181.535 63.7258 181.058 63.7238 180.581 63.7376C180.305 63.7457 180.186 63.6274 180.09 63.3953C179.834 62.774 179.571 62.1557 179.308 61.5374L179.308 61.5367C179.211 61.3081 179.114 61.0794 179.017 60.8507L178.451 59.5157L178.446 59.5036L178.441 59.4915C177.861 58.1212 177.28 56.7509 176.7 55.3803L176.649 55.2579C176.551 55.0288 176.454 54.7996 176.365 54.5672C176.295 54.3837 176.171 54.3067 175.98 54.3154C175.943 54.317 175.907 54.3174 175.87 54.3171C175.844 54.317 175.817 54.3165 175.79 54.3161C175.756 54.3155 175.721 54.3149 175.686 54.315L174.593 54.3168C172.831 54.3197 171.068 54.3226 169.305 54.326C168.798 54.327 168.797 54.33 168.602 54.7916L168.598 54.8009C167.831 56.6174 167.063 58.4337 166.296 60.2499L166.286 60.2742L166.271 60.3085L166.257 60.3429L165.178 62.8949L165.126 63.0179L165.126 63.0192C165.05 63.1962 164.975 63.3732 164.906 63.5523C164.859 63.6729 164.779 63.7284 164.652 63.7284C164.408 63.7283 164.164 63.7287 163.92 63.7291C163.367 63.73 162.813 63.7309 162.259 63.7261C162.065 63.7244 162.036 63.6631 162.126 63.4434C162.277 63.0735 162.434 62.7059 162.59 62.3384L162.59 62.3381L162.59 62.3379L162.59 62.3376L162.591 62.3373L162.591 62.3371L162.591 62.3368L162.591 62.3363L162.591 62.3357L162.591 62.3352L162.592 62.3347L162.592 62.3341L162.592 62.3336L162.697 62.0869L162.76 61.9396L163.279 60.713L163.295 60.6766L163.31 60.6406L163.321 60.615L163.332 60.5896L163.342 60.5643L163.353 60.5392C163.95 59.1307 164.547 57.7223 165.144 56.314C165.506 55.4611 165.868 54.6084 166.23 53.7556L166.233 53.7474C166.797 52.4201 167.36 51.0929 167.923 49.7651C168.393 48.6553 168.861 47.5451 169.33 46.4349C169.789 45.348 170.248 44.2611 170.708 43.1746C171.025 42.4249 171.344 41.6759 171.663 40.9269L171.669 40.9134L171.676 40.8961L171.678 40.8924L171.68 40.8886C171.907 40.3545 172.135 39.8203 172.362 39.2859C172.367 39.2723 172.373 39.2584 172.378 39.2445C172.413 39.1541 172.449 39.0619 172.598 39.0209ZM2.47807 59.2216C4.91501 62.3414 8.14948 63.9219 12.0007 64.013C12.1822 64.0047 12.3515 64.0001 12.5123 63.9957H12.5124H12.5124C12.8381 63.9869 13.1289 63.9791 13.4162 63.943C14.9978 63.7444 16.4967 63.2808 17.9026 62.5182C17.9358 62.5002 17.9666 62.4839 17.9948 62.4691L17.995 62.4689C18.2814 62.318 18.3075 62.3042 18.0431 61.9128C17.7598 61.4934 17.4745 61.0754 17.1892 60.6573L17.1885 60.6563L16.9826 60.3546C16.7836 60.0629 16.7807 60.059 16.4627 60.2279C15.427 60.7784 14.3272 61.132 13.1613 61.2505C11.3531 61.4343 9.62273 61.1653 7.99648 60.3164C5.60722 59.0692 3.99441 57.1644 3.2198 54.593C2.64077 52.6709 2.64228 50.7226 3.34117 48.8266C4.6379 45.3086 7.09214 43.115 10.8447 42.488C12.2346 42.2558 13.6042 42.4017 14.9419 42.8487C15.4875 43.031 16.0119 43.2587 16.5132 43.5388C16.6672 43.625 16.797 43.6493 16.9107 43.4826C17.0505 43.2775 17.191 43.0729 17.3315 42.8683C17.6099 42.463 17.8883 42.0578 18.1609 41.6487C18.3263 41.4007 18.316 41.3702 18.0662 41.2338C16.8182 40.5521 15.4983 40.0568 14.0909 39.846C11.5781 39.4695 9.15907 39.7785 6.86359 40.916C4.20608 42.2329 2.25317 44.2326 1.04443 46.9336C0.0979197 49.0487 -0.190439 51.2625 0.119255 53.5665C0.401817 55.669 1.18411 57.5651 2.47807 59.2216ZM112.059 53.2135L112.059 63.1091C112.059 63.1227 112.059 63.1363 112.059 63.15L112.058 63.1826L112.058 63.2158V63.2161C112.056 63.2924 112.054 63.3688 112.06 63.4444C112.08 63.6665 111.976 63.7323 111.765 63.7302C111.023 63.7228 110.281 63.7229 109.539 63.7339C109.315 63.7373 109.236 63.6488 109.25 63.4378C109.256 63.3526 109.254 63.2669 109.253 63.1812C109.252 63.141 109.251 63.1007 109.251 63.0606L109.251 58.7491C109.251 53.5892 109.252 48.4293 109.25 43.2694C109.25 43.1968 109.251 43.1326 109.252 43.076C109.256 42.8775 109.257 42.7712 109.205 42.7143C109.145 42.6488 109.013 42.649 108.73 42.6494L108.65 42.6495L101.805 42.6493C101.76 42.6493 101.715 42.6487 101.67 42.648C101.603 42.647 101.536 42.6461 101.469 42.6472C101.306 42.6502 101.247 42.5632 101.248 42.4121C101.249 41.6854 101.249 40.9586 101.247 40.2319C101.247 40.0456 101.316 39.9401 101.519 39.9527C101.584 39.9567 101.649 39.9553 101.715 39.954C101.747 39.9533 101.78 39.9526 101.813 39.9526L108.097 39.9526C111.868 39.9526 115.638 39.9526 119.409 39.9524L119.485 39.9523C119.769 39.9519 119.903 39.9517 119.964 40.018C120.019 40.0765 120.018 40.1866 120.016 40.3938L120.016 40.4483C120.015 40.4859 120.015 40.5264 120.015 40.57C120.018 41.157 120.02 41.7441 120.014 42.3311C120.011 42.6293 120.001 42.6421 119.705 42.6462C119.278 42.6519 118.852 42.651 118.425 42.6501C118.264 42.6497 118.102 42.6494 117.941 42.6494L115.092 42.6495L112.65 42.6496C112.622 42.6496 112.595 42.6498 112.568 42.6502L112.524 42.6508C112.454 42.6518 112.384 42.6528 112.314 42.651C112.142 42.6465 112.052 42.7184 112.06 42.8987C112.063 42.9719 112.062 43.0453 112.061 43.1187L112.06 43.1725C112.06 43.1931 112.059 43.2136 112.059 43.2341L112.059 53.2135ZM198.255 49.6513V51.8281V63.1899L198.254 63.2741V63.2744C198.254 63.5091 198.253 63.6239 198.311 63.6797C198.365 63.7331 198.473 63.7324 198.683 63.731H198.684C198.721 63.7307 198.761 63.7305 198.804 63.7305C202.357 63.7309 205.91 63.7309 209.463 63.7308L212.829 63.7308C212.899 63.7308 212.969 63.7327 213.038 63.7301C213.347 63.7185 213.362 63.7099 213.365 63.3875C213.37 62.7167 213.37 62.0458 213.364 61.3751C213.362 61.0483 213.352 61.045 213.036 61.0336C212.959 61.0308 212.881 61.0314 212.803 61.0321C212.769 61.0323 212.735 61.0326 212.7 61.0326H201.825C201.081 61.0326 201.081 61.0326 201.081 60.2688L201.086 40.6478C201.086 40.6106 201.086 40.5735 201.086 40.5363C201.087 40.4477 201.088 40.359 201.084 40.2705C201.072 39.9751 201.064 39.9582 200.772 39.9552C200.273 39.95 199.775 39.951 199.276 39.952H199.275L199.083 39.9523L198.798 39.9527C198.255 39.9531 198.255 39.9537 198.255 40.5083C198.255 43.5559 198.255 46.6036 198.255 49.6513ZM124.824 24.6855C124.88 21.4922 122.257 18.5542 118.77 18.527C115.418 18.5008 112.682 21.2759 112.656 24.6723C112.631 28.1408 115.503 30.7545 118.66 30.7762C122.027 30.7992 124.872 27.995 124.824 24.6855ZM118.726 17.7673C122.332 17.6862 125.663 20.7276 125.652 24.6886C125.642 28.4759 122.515 31.567 118.705 31.5547C114.946 31.5426 111.83 28.4994 111.834 24.668C111.838 20.626 115.209 17.6831 118.726 17.7673ZM107.091 24.6802C107.092 28.1419 104.184 30.7881 100.969 30.7742C97.8227 30.7895 94.9083 28.2136 94.9113 24.6795C94.9141 21.3136 97.6598 18.5267 100.983 18.5252C104.351 18.5237 107.09 21.3025 107.091 24.6802ZM107.917 24.7117C107.941 20.8495 104.692 17.7026 101.011 17.7658C97.471 17.6706 94.1077 20.6507 94.099 24.6479C94.0906 28.45 97.1484 31.5346 100.947 31.5551C104.889 31.5763 107.894 28.3634 107.917 24.7117ZM130.65 24.6578H130.639V25.8238C130.639 27.2231 130.639 28.6223 130.639 30.0216C130.639 30.1108 130.641 30.2001 130.642 30.2893L130.643 30.3568C130.645 30.5255 130.722 30.6107 130.899 30.6103C131.076 30.6099 131.253 30.6112 131.43 30.6125C132.413 30.6195 133.397 30.6266 134.358 30.3493C135.733 29.953 136.878 29.2207 137.679 28.0164C138.606 26.6208 138.857 25.0819 138.57 23.4488C138.11 20.8201 136.093 19.0585 133.574 18.7465C133.004 18.6758 132.433 18.6759 131.862 18.6759C131.665 18.6759 131.467 18.676 131.27 18.673C131.144 18.6712 131.018 18.674 130.892 18.6799C130.744 18.6869 130.66 18.7656 130.656 18.9168C130.652 19.0424 130.65 19.1681 130.65 19.2938C130.65 20.7075 130.65 22.1213 130.65 23.5351V24.6578ZM129.845 24.6187V18.4594C129.845 18.4277 129.845 18.396 129.846 18.3642C129.847 18.2981 129.848 18.232 129.844 18.1662C129.832 17.9757 129.902 17.8832 130.107 17.8892C130.529 17.9016 130.951 17.8944 131.373 17.8873C132.266 17.8722 133.158 17.857 134.042 18.0265C136.125 18.4256 137.746 19.4978 138.712 21.4128C139.798 23.5662 139.74 25.7503 138.678 27.8961C138.084 29.0967 137.125 29.9581 135.932 30.5637C134.905 31.0852 133.812 31.3456 132.665 31.3725C132.032 31.3873 131.399 31.386 130.765 31.3847C130.587 31.3843 130.409 31.3839 130.232 31.3839C129.849 31.3838 129.846 31.3792 129.845 30.9875C129.844 29.3953 129.844 27.8031 129.844 26.2109L129.845 24.6187ZM81.2962 18.4611L81.2961 24.6229L81.2961 26.2985C81.2961 27.8219 81.296 29.3452 81.2962 30.8685C81.2963 31.4017 81.3713 31.4615 81.9011 31.384C82.0362 31.3643 82.1027 31.305 82.1049 31.1714L82.1064 31.0918C82.1079 31.0066 82.1095 30.9213 82.1093 30.8361C82.1066 29.749 82.1037 28.6618 82.1008 27.5747V27.5744V27.5742V27.574V27.5737V27.5735V27.5733L82.0956 25.5968C82.0955 25.5557 82.0962 25.5145 82.097 25.4734C82.0983 25.4027 82.0996 25.332 82.0965 25.2615C82.0878 25.0658 82.1757 24.9779 82.3724 24.9907C82.438 24.995 82.504 24.9937 82.5699 24.9923C82.6021 24.9917 82.6342 24.991 82.6662 24.991L84.2255 24.9911C85.5249 24.9912 86.8244 24.9913 88.1238 24.9904C88.5447 24.9901 88.5483 24.9833 88.5421 24.5757C88.5369 24.234 88.5225 24.2167 88.1938 24.2049C88.0948 24.2013 87.9957 24.202 87.8967 24.2028C87.8558 24.2031 87.8149 24.2034 87.774 24.2034L86.3423 24.2035C85.0703 24.2037 83.7983 24.2039 82.5263 24.202C82.1154 24.2014 82.0995 24.1842 82.0968 23.7776C82.0926 23.1489 82.0937 22.5201 82.0959 21.8914C82.099 20.9553 82.1026 20.0193 82.1112 19.0832C82.1146 18.7145 82.1501 18.6851 82.5237 18.6735C82.5935 18.6714 82.6635 18.6718 82.7334 18.6722H82.7336C82.7615 18.6723 82.7895 18.6725 82.8175 18.6725L84.2004 18.6725C85.6986 18.6725 87.1968 18.6725 88.6949 18.6722C88.7884 18.6721 88.882 18.67 88.9755 18.6679L88.9758 18.6679L89.0726 18.6658C89.2289 18.6627 89.2985 18.5801 89.2943 18.4269C89.292 18.3432 89.2904 18.259 89.2959 18.1755C89.3106 17.9534 89.197 17.8746 88.9897 17.89C88.943 17.8935 88.896 17.8924 88.8489 17.8913C88.8259 17.8908 88.8029 17.8902 88.7799 17.8902H81.8109C81.7832 17.8902 81.7554 17.8909 81.7276 17.8916C81.6713 17.8929 81.615 17.8942 81.5592 17.8901C81.3543 17.8748 81.2839 17.9779 81.2958 18.1677C81.3 18.2333 81.2987 18.2992 81.2974 18.3651L81.2966 18.4117L81.2963 18.4369L81.2962 18.4611ZM91.3044 80.2953L91.7356 80.8516L91.7397 80.8569L91.7574 80.8797L91.7585 80.8812L91.7645 80.889C92.0977 81.3188 92.4255 81.7418 92.7526 82.1652C92.9404 82.4081 93.1276 82.6514 93.3148 82.8948C93.5959 83.26 93.8769 83.6253 94.1597 83.9893C94.3898 84.2853 94.4104 84.2879 94.6422 83.988C95.1081 83.385 95.5725 82.7809 96.0368 82.1768C96.4486 81.6411 96.8604 81.1054 97.2733 80.5705C97.2842 80.5564 97.2946 80.5416 97.3048 80.5265L97.3243 80.4974C97.3764 80.4188 97.4294 80.3389 97.5302 80.3054C97.6243 80.3518 97.6169 80.4314 97.61 80.5064C97.6082 80.5258 97.6064 80.545 97.6064 80.5632C97.6093 82.4351 97.6101 84.307 97.6059 86.1789C97.6058 86.2041 97.6081 86.2319 97.6104 86.2606C97.6209 86.3888 97.6329 86.5339 97.443 86.5416C97.2216 86.5504 97.2346 86.392 97.2458 86.2538C97.2483 86.2239 97.2507 86.1949 97.2505 86.1688C97.2472 85.3318 97.2469 84.4947 97.2467 83.6577C97.2466 83.0559 97.2464 82.454 97.245 81.8522C97.245 81.8429 97.2451 81.8335 97.2454 81.824C97.2457 81.8115 97.2461 81.7989 97.2467 81.7862L97.2487 81.7478C97.2548 81.6306 97.2612 81.5085 97.1985 81.3768C97.077 81.396 97.0193 81.4869 96.9653 81.5722C96.9488 81.5983 96.9326 81.6239 96.915 81.6467C96.3494 82.3795 95.788 83.1157 95.2267 83.8519L95.2251 83.8539L94.7268 84.5071C94.7127 84.5257 94.6988 84.5445 94.6848 84.5633L94.6848 84.5635C94.6488 84.6121 94.6129 84.6607 94.5723 84.7051C94.4148 84.8768 94.3596 84.8782 94.2125 84.6913C94.0156 84.4411 93.8223 84.1882 93.6289 83.9353L93.6279 83.9341L93.625 83.9302C93.5399 83.8189 93.4548 83.7076 93.3693 83.5965L93.0467 83.1768C92.644 82.6527 92.2412 82.1286 91.836 81.6065C91.8244 81.5915 91.8139 81.5746 91.8032 81.5574C91.7637 81.4936 91.7211 81.4249 91.603 81.4269C91.5485 81.5308 91.5538 81.6466 91.5591 81.7614C91.5606 81.796 91.5622 81.8305 91.5621 81.8645C91.5604 82.7586 91.5604 83.6526 91.5603 84.5467C91.5603 85.0356 91.5603 85.5245 91.56 86.0134C91.5599 86.1389 91.5593 86.2651 91.5464 86.3897C91.5368 86.4815 91.4759 86.5393 91.3787 86.5437C91.2789 86.5482 91.2209 86.4914 91.2064 86.3992C91.1935 86.317 91.1927 86.2324 91.1927 86.1489C91.192 84.3189 91.1914 82.4889 91.1941 80.6589C91.1941 80.6417 91.1931 80.6241 91.1921 80.6062C91.1871 80.5145 91.1815 80.4127 91.3044 80.2953ZM118.607 85.8511L113.781 80.2465C113.666 80.3724 113.668 80.4554 113.67 80.5282C113.671 80.5383 113.671 80.5481 113.671 80.5579C113.67 82.4295 113.67 84.301 113.67 86.1726V86.1788C113.67 86.2464 113.67 86.3146 113.678 86.3817C113.691 86.4988 113.768 86.5505 113.88 86.5474C113.98 86.5446 114.031 86.4778 114.039 86.3867C114.05 86.2618 114.05 86.1358 114.051 86.0103C114.051 85.5336 114.051 85.057 114.051 84.5803V84.5689C114.051 83.6107 114.051 82.6526 114.053 81.6945C114.053 81.6609 114.051 81.6268 114.05 81.5925C114.044 81.4787 114.039 81.363 114.095 81.2573C114.246 81.2755 114.316 81.3667 114.384 81.4548L114.384 81.4549C114.4 81.4763 114.416 81.4976 114.434 81.5176C114.661 81.7799 114.887 82.0424 115.114 82.3049L115.127 82.3194C115.343 82.5697 115.559 82.8199 115.776 83.0701L116.307 83.684C117.08 84.5776 117.853 85.4712 118.628 86.3624C118.637 86.3728 118.646 86.3835 118.655 86.3943C118.667 86.4096 118.68 86.4252 118.692 86.441L118.692 86.4412C118.777 86.5497 118.867 86.6642 119.04 86.705C119.043 86.6653 119.047 86.6297 119.051 86.5967C119.057 86.5333 119.063 86.4796 119.063 86.426C119.064 84.5544 119.064 82.6829 119.064 80.8113C119.064 80.7279 119.062 80.6432 119.049 80.561C119.034 80.4651 118.967 80.4203 118.871 80.423C118.778 80.4257 118.704 80.4594 118.696 80.5623C118.687 80.6735 118.685 80.7853 118.685 80.8968C118.685 81.3612 118.685 81.8256 118.685 82.29C118.685 83.3201 118.685 84.3501 118.682 85.3802C118.682 85.4093 118.684 85.4388 118.685 85.4689C118.692 85.5873 118.699 85.7141 118.607 85.8511ZM122.137 83.5691C122.333 83.5691 122.522 83.5696 122.708 83.5701H122.708H122.708C123.184 83.5714 123.634 83.5726 124.083 83.5651C124.257 83.5622 124.223 83.4281 124.177 83.3193C123.894 82.6524 123.611 81.9857 123.323 81.321L123.315 81.3029C123.289 81.2378 123.256 81.1596 123.129 81.1833C122.949 81.689 122.733 82.1855 122.506 82.7081C122.385 82.986 122.261 83.2712 122.137 83.5691ZM123.172 80.2894C123.301 80.3199 123.335 80.4183 123.367 80.5124C123.371 80.5234 123.375 80.5344 123.379 80.5452C123.383 80.557 123.387 80.5687 123.392 80.5801C124.142 82.3345 124.888 84.0902 125.634 85.8459L125.635 85.8489L125.643 85.8675L125.784 86.1992C125.793 86.221 125.8 86.2438 125.807 86.2666L125.807 86.2668C125.809 86.2732 125.81 86.2796 125.812 86.286C125.814 86.2912 125.815 86.2964 125.817 86.3016C125.819 86.3073 125.821 86.313 125.823 86.3187C125.826 86.3272 125.829 86.3357 125.833 86.3443L125.833 86.3445L125.833 86.3446C125.86 86.4146 125.888 86.4863 125.793 86.5337C125.713 86.5737 125.631 86.5648 125.561 86.4992C125.489 86.4311 125.454 86.3438 125.419 86.2552C125.412 86.2401 125.406 86.225 125.4 86.2099C125.3 85.9712 125.199 85.7333 125.098 85.4954C124.92 85.0791 124.743 84.6628 124.575 84.2427C124.483 84.0143 124.358 83.9245 124.108 83.9314C123.507 83.948 122.905 83.9457 122.304 83.9324C122.056 83.9269 121.934 84.0144 121.842 84.2505C121.679 84.6745 121.497 85.0918 121.316 85.5092C121.242 85.6804 121.167 85.8516 121.094 86.0233C121.08 86.0556 121.067 86.0882 121.054 86.1209L121.041 86.1547C121.027 86.1885 121.013 86.2223 120.998 86.2555C120.878 86.5215 120.735 86.6306 120.617 86.5301C120.49 86.4215 120.556 86.3067 120.616 86.2033C120.625 86.1873 120.634 86.1716 120.643 86.1562C120.646 86.1508 120.648 86.1454 120.651 86.1401C120.655 86.1329 120.658 86.1258 120.661 86.1188C121.438 84.2677 122.224 82.4205 123.011 80.5735C123.02 80.5536 123.028 80.5332 123.036 80.5127C123.068 80.4303 123.1 80.3466 123.172 80.2894ZM109.514 81.1253L109.599 81.1325L109.707 81.3838L109.847 81.7067L109.847 81.7073L109.847 81.7079C110.034 82.1415 110.222 82.5752 110.405 83.0106C110.642 83.5746 110.637 83.5765 110.04 83.5768C109.553 83.5769 109.066 83.5768 108.504 83.5768C108.648 83.206 108.802 82.8523 108.953 82.5049L108.953 82.5049L108.953 82.5048C109.155 82.0422 109.351 81.5909 109.514 81.1253ZM109.748 80.5653C109.707 80.4599 109.666 80.3538 109.567 80.2799C109.466 80.3309 109.432 80.4246 109.398 80.517C109.39 80.5411 109.381 80.5651 109.371 80.5883C108.736 82.081 108.102 83.5744 107.469 85.0678L107.464 85.0795L107.459 85.0912L107.277 85.5182L107.199 85.7011C107.116 85.8968 107.032 86.0924 106.953 86.2898C106.917 86.3793 106.879 86.487 107.009 86.5373C107.111 86.5768 107.207 86.5454 107.26 86.4467C107.318 86.3404 107.366 86.2284 107.413 86.1169L107.413 86.1168L107.419 86.1046C107.487 85.945 107.555 85.7857 107.624 85.6263L107.625 85.6242C107.821 85.1692 108.018 84.7142 108.199 84.2533C108.289 84.0236 108.406 83.9256 108.659 83.9318C109.274 83.9471 109.89 83.9435 110.506 83.9332C110.717 83.9297 110.835 83.9963 110.914 84.2007C111.064 84.5875 111.227 84.9694 111.39 85.3512L111.39 85.3518C111.446 85.4833 111.502 85.6148 111.558 85.7466L111.609 85.8692C111.683 86.0471 111.758 86.2252 111.841 86.399C111.901 86.5241 112.01 86.6023 112.148 86.5229C112.244 86.4676 112.211 86.3822 112.181 86.3021L112.173 86.2825C112.171 86.2751 112.168 86.2677 112.166 86.2604C112.163 86.2525 112.159 86.2451 112.155 86.2376C112.153 86.2325 112.15 86.2275 112.148 86.2223L111.653 85.0546L111.609 84.9528C110.999 83.5143 110.388 82.0758 109.777 80.6375C109.767 80.6142 109.758 80.5904 109.748 80.5666L109.748 80.5656L109.748 80.5653ZM103.553 83.7534L103.936 83.1115L103.94 83.1038C104.241 82.6 104.54 82.0982 104.838 81.5962C104.939 81.4278 105.038 81.259 105.138 81.0903C105.215 80.9587 105.293 80.8271 105.371 80.6957C105.38 80.6799 105.389 80.6634 105.398 80.647C105.423 80.6013 105.448 80.5553 105.483 80.5207C105.592 80.415 105.739 80.3594 105.861 80.4584C105.954 80.534 105.891 80.624 105.837 80.701C105.825 80.7185 105.813 80.7354 105.804 80.7512C105.181 81.8079 104.556 82.8637 103.92 83.9125C103.784 84.1369 103.719 84.3596 103.725 84.6212C103.734 85.0105 103.732 85.3999 103.73 85.7894C103.729 85.9445 103.728 86.0995 103.728 86.2546L103.728 86.2694C103.728 86.4076 103.728 86.5489 103.532 86.5569C103.33 86.565 103.267 86.4448 103.268 86.2636C103.268 86.0645 103.267 85.8654 103.266 85.6663C103.265 85.3069 103.264 84.9476 103.27 84.5884C103.274 84.3271 103.204 84.1057 103.067 83.8807C102.526 82.9933 101.997 82.0991 101.467 81.205L101.466 81.2029L101.18 80.7203C101.172 80.7068 101.163 80.6925 101.153 80.6778C101.106 80.6074 101.051 80.5263 101.122 80.4619C101.222 80.3716 101.368 80.3934 101.467 80.4861C101.535 80.5496 101.585 80.6336 101.633 80.7158L101.633 80.716L101.658 80.7575C101.883 81.1298 102.107 81.5024 102.332 81.8749C102.661 82.422 102.991 82.969 103.322 83.5151C103.332 83.5319 103.341 83.5501 103.349 83.5687C103.383 83.639 103.42 83.7163 103.553 83.7534ZM99.8016 84.1583C99.8013 83.9349 99.8011 83.7114 99.8011 83.4881H99.8054C99.8054 83.2647 99.8056 83.0413 99.8059 82.8179C99.8066 82.1481 99.8073 81.4784 99.8016 80.8087C99.8014 80.7818 99.8039 80.7519 99.8066 80.7211C99.8182 80.5847 99.8314 80.4297 99.6121 80.4327C99.416 80.4353 99.4277 80.5801 99.4381 80.7074C99.4403 80.7353 99.4425 80.7623 99.4425 80.7868C99.4379 82.587 99.4379 84.3872 99.4424 86.1874C99.4424 86.2122 99.4402 86.2397 99.4378 86.2679C99.4273 86.3955 99.4153 86.5404 99.6094 86.5438C99.8283 86.5476 99.8146 86.3927 99.8025 86.2562C99.7998 86.225 99.7971 86.1947 99.7973 86.1674C99.803 85.4978 99.8023 84.828 99.8016 84.1583Z" fill="#257272"/>
</svg>
