<svg width="64" height="64" viewBox="0 0 64 64" fill="none" xmlns="http://www.w3.org/2000/svg">
<g clip-path="url(#clip0_2512_16212)">
<path d="M39.0667 13.2801L25.7333 8.61348C24.6133 8.21348 23.3867 8.21348 22.2667 8.58681L11.6267 12.1601C9.46667 12.9068 8 14.9335 8 17.2268V48.8268C8 52.5868 11.76 55.1468 15.2533 53.7868L23.0667 50.7468C23.6533 50.5068 24.32 50.5068 24.9067 50.7201L38.24 55.3868C39.36 55.7868 40.5867 55.7868 41.7067 55.4135L52.3467 51.8401C54.5067 51.1201 55.9733 49.0668 55.9733 46.7735V15.1735C55.9733 11.4135 52.2133 8.85348 48.72 10.2135L40.9067 13.2535C40.32 13.4668 39.68 13.4935 39.0667 13.2801ZM40 50.3735L24 44.7468V13.6268L40 19.2535V50.3735Z" fill="#348181"/>
</g>
<defs>
<clipPath id="clip0_2512_16212">
<rect width="64" height="64" fill="white"/>
</clipPath>
</defs>
</svg>
