<svg width="64" height="64" viewBox="0 0 64 64" fill="none" xmlns="http://www.w3.org/2000/svg">
<path d="M17.334 22.0002C16.2229 22.0002 15.2784 21.6113 14.5007 20.8335C13.7229 20.0557 13.334 19.1113 13.334 18.0002V9.3335C13.334 8.22239 13.7229 7.27794 14.5007 6.50016C15.2784 5.72239 16.2229 5.3335 17.334 5.3335H46.6673C47.7784 5.3335 48.7229 5.72239 49.5007 6.50016C50.2784 7.27794 50.6673 8.22239 50.6673 9.3335V18.0002C50.6673 19.1113 50.2784 20.0557 49.5007 20.8335C48.7229 21.6113 47.7784 22.0002 46.6673 22.0002H17.334ZM17.334 18.0002H46.6673V9.3335H17.334V18.0002ZM9.33398 58.6668C8.22287 58.6668 7.27843 58.2779 6.50065 57.5002C5.72287 56.7224 5.33398 55.7779 5.33398 54.6668V50.0002H58.6673V54.6668C58.6673 55.7779 58.2784 56.7224 57.5007 57.5002C56.7229 58.2779 55.7784 58.6668 54.6673 58.6668H9.33398ZM5.33398 48.0002L15.0007 26.4002C15.3562 25.6891 15.8562 25.1113 16.5007 24.6668C17.1451 24.2224 17.8451 24.0002 18.6007 24.0002H45.4007C46.1562 24.0002 46.8562 24.2224 47.5007 24.6668C48.1451 25.1113 48.6451 25.6891 49.0007 26.4002L58.6673 48.0002H5.33398ZM22.6673 42.6668H25.334C25.6895 42.6668 26.0007 42.5335 26.2673 42.2668C26.534 42.0002 26.6673 41.6891 26.6673 41.3335C26.6673 40.9779 26.534 40.6668 26.2673 40.4002C26.0007 40.1335 25.6895 40.0002 25.334 40.0002H22.6673C22.3118 40.0002 22.0007 40.1335 21.734 40.4002C21.4673 40.6668 21.334 40.9779 21.334 41.3335C21.334 41.6891 21.4673 42.0002 21.734 42.2668C22.0007 42.5335 22.3118 42.6668 22.6673 42.6668ZM22.6673 37.3335H25.334C25.6895 37.3335 26.0007 37.2002 26.2673 36.9335C26.534 36.6668 26.6673 36.3557 26.6673 36.0002C26.6673 35.6446 26.534 35.3335 26.2673 35.0668C26.0007 34.8002 25.6895 34.6668 25.334 34.6668H22.6673C22.3118 34.6668 22.0007 34.8002 21.734 35.0668C21.4673 35.3335 21.334 35.6446 21.334 36.0002C21.334 36.3557 21.4673 36.6668 21.734 36.9335C22.0007 37.2002 22.3118 37.3335 22.6673 37.3335ZM22.6673 32.0002H25.334C25.6895 32.0002 26.0007 31.8668 26.2673 31.6002C26.534 31.3335 26.6673 31.0224 26.6673 30.6668C26.6673 30.3113 26.534 30.0002 26.2673 29.7335C26.0007 29.4668 25.6895 29.3335 25.334 29.3335H22.6673C22.3118 29.3335 22.0007 29.4668 21.734 29.7335C21.4673 30.0002 21.334 30.3113 21.334 30.6668C21.334 31.0224 21.4673 31.3335 21.734 31.6002C22.0007 31.8668 22.3118 32.0002 22.6673 32.0002ZM30.6673 42.6668H33.334C33.6895 42.6668 34.0007 42.5335 34.2673 42.2668C34.534 42.0002 34.6673 41.6891 34.6673 41.3335C34.6673 40.9779 34.534 40.6668 34.2673 40.4002C34.0007 40.1335 33.6895 40.0002 33.334 40.0002H30.6673C30.3118 40.0002 30.0007 40.1335 29.734 40.4002C29.4673 40.6668 29.334 40.9779 29.334 41.3335C29.334 41.6891 29.4673 42.0002 29.734 42.2668C30.0007 42.5335 30.3118 42.6668 30.6673 42.6668ZM30.6673 37.3335H33.334C33.6895 37.3335 34.0007 37.2002 34.2673 36.9335C34.534 36.6668 34.6673 36.3557 34.6673 36.0002C34.6673 35.6446 34.534 35.3335 34.2673 35.0668C34.0007 34.8002 33.6895 34.6668 33.334 34.6668H30.6673C30.3118 34.6668 30.0007 34.8002 29.734 35.0668C29.4673 35.3335 29.334 35.6446 29.334 36.0002C29.334 36.3557 29.4673 36.6668 29.734 36.9335C30.0007 37.2002 30.3118 37.3335 30.6673 37.3335ZM30.6673 32.0002H33.334C33.6895 32.0002 34.0007 31.8668 34.2673 31.6002C34.534 31.3335 34.6673 31.0224 34.6673 30.6668C34.6673 30.3113 34.534 30.0002 34.2673 29.7335C34.0007 29.4668 33.6895 29.3335 33.334 29.3335H30.6673C30.3118 29.3335 30.0007 29.4668 29.734 29.7335C29.4673 30.0002 29.334 30.3113 29.334 30.6668C29.334 31.0224 29.4673 31.3335 29.734 31.6002C30.0007 31.8668 30.3118 32.0002 30.6673 32.0002ZM38.6673 42.6668H41.334C41.6895 42.6668 42.0007 42.5335 42.2673 42.2668C42.534 42.0002 42.6673 41.6891 42.6673 41.3335C42.6673 40.9779 42.534 40.6668 42.2673 40.4002C42.0007 40.1335 41.6895 40.0002 41.334 40.0002H38.6673C38.3118 40.0002 38.0007 40.1335 37.734 40.4002C37.4673 40.6668 37.334 40.9779 37.334 41.3335C37.334 41.6891 37.4673 42.0002 37.734 42.2668C38.0007 42.5335 38.3118 42.6668 38.6673 42.6668ZM38.6673 37.3335H41.334C41.6895 37.3335 42.0007 37.2002 42.2673 36.9335C42.534 36.6668 42.6673 36.3557 42.6673 36.0002C42.6673 35.6446 42.534 35.3335 42.2673 35.0668C42.0007 34.8002 41.6895 34.6668 41.334 34.6668H38.6673C38.3118 34.6668 38.0007 34.8002 37.734 35.0668C37.4673 35.3335 37.334 35.6446 37.334 36.0002C37.334 36.3557 37.4673 36.6668 37.734 36.9335C38.0007 37.2002 38.3118 37.3335 38.6673 37.3335ZM38.6673 32.0002H41.334C41.6895 32.0002 42.0007 31.8668 42.2673 31.6002C42.534 31.3335 42.6673 31.0224 42.6673 30.6668C42.6673 30.3113 42.534 30.0002 42.2673 29.7335C42.0007 29.4668 41.6895 29.3335 41.334 29.3335H38.6673C38.3118 29.3335 38.0007 29.4668 37.734 29.7335C37.4673 30.0002 37.334 30.3113 37.334 30.6668C37.334 31.0224 37.4673 31.3335 37.734 31.6002C38.0007 31.8668 38.3118 32.0002 38.6673 32.0002Z" fill="#348181"/>
</svg>
