<svg width="64" height="64" viewBox="0 0 64 64" fill="none" xmlns="http://www.w3.org/2000/svg">
<path d="M56.0006 29.4V52C56.0006 53.0667 55.6006 54 54.8006 54.8C54.0006 55.6 53.0673 56 52.0006 56H11.9339C10.8673 56 9.93393 55.6 9.13393 54.8C8.33393 54 7.93393 53.0667 7.93393 52V29.4C6.68949 28.3333 5.86727 27.0222 5.46727 25.4667C5.06727 23.9111 5.11171 22.3556 5.6006 20.8L8.46727 11.8C8.82282 10.6 9.44504 9.66667 10.3339 9C11.2228 8.33333 12.245 8 13.4006 8H50.2673C51.5117 8 52.6006 8.34444 53.5339 9.03333C54.4673 9.72222 55.1117 10.6444 55.4673 11.8L58.4006 20.8C58.8895 22.3556 58.9228 23.9111 58.5006 25.4667C58.0784 27.0222 57.245 28.3333 56.0006 29.4ZM38.0006 27.3333C39.2895 27.3333 40.3784 26.9111 41.2673 26.0667C42.1562 25.2222 42.5117 24.2 42.3339 23L40.6673 12H34.0006V23C34.0006 24.1556 34.3784 25.1667 35.1339 26.0333C35.8895 26.9 36.845 27.3333 38.0006 27.3333ZM25.5339 27.3333C26.7784 27.3333 27.8339 26.9111 28.7006 26.0667C29.5673 25.2222 30.0006 24.2 30.0006 23V12H23.3339L21.6673 23C21.4895 24.1556 21.8006 25.1667 22.6006 26.0333C23.4006 26.9 24.3784 27.3333 25.5339 27.3333ZM13.4006 27.3333C14.4673 27.3333 15.3895 26.9667 16.1673 26.2333C16.945 25.5 17.4006 24.6 17.5339 23.5333L19.2673 12H12.6006L9.53393 21.7333C9.08949 23.1111 9.26727 24.3889 10.0673 25.5667C10.8673 26.7444 11.9784 27.3333 13.4006 27.3333ZM50.5339 27.3333C51.9562 27.3333 53.0784 26.7556 53.9006 25.6C54.7228 24.4444 54.9117 23.1556 54.4673 21.7333L51.4006 12H44.7339L46.4673 23.5333C46.6006 24.6 47.0562 25.5 47.8339 26.2333C48.6117 26.9667 49.5117 27.3333 50.5339 27.3333ZM11.9339 52H52.0006V31.2667C52.045 31.3111 51.9006 31.3333 51.5673 31.3333H50.5339C49.4228 31.3333 48.3673 31.1 47.3673 30.6333C46.3673 30.1667 45.3784 29.4444 44.4006 28.4667C43.6895 29.3556 42.8006 30.0556 41.7339 30.5667C40.6673 31.0778 39.4895 31.3333 38.2006 31.3333C36.8673 31.3333 35.7228 31.1444 34.7673 30.7667C33.8117 30.3889 32.8895 29.7556 32.0006 28.8667C31.3339 29.6667 30.4895 30.2778 29.4673 30.7C28.445 31.1222 27.2895 31.3333 26.0006 31.3333C24.6228 31.3333 23.4006 31.0889 22.3339 30.6C21.2673 30.1111 20.3562 29.4 19.6006 28.4667C18.5339 29.4 17.4895 30.1111 16.4673 30.6C15.445 31.0889 14.4228 31.3333 13.4006 31.3333H12.5006C12.2117 31.3333 12.0228 31.3111 11.9339 31.2667V52ZM52.0006 52H11.9339H52.0006Z" fill="#348181"/>
</svg>
