<svg width="160" height="160" viewBox="0 0 160 160" fill="none" xmlns="http://www.w3.org/2000/svg">
<path fill-rule="evenodd" clip-rule="evenodd" d="M99.7744 15.3742L151.732 34.9172C154.746 36.0605 156.272 39.4217 155.149 42.443L114.271 151.211C113.132 154.229 109.766 155.757 106.745 154.628L54.7819 135.085C51.7683 133.942 50.2422 130.581 51.3649 127.559L92.2433 18.7859C93.3842 15.7673 96.7528 14.2413 99.7744 15.3742Z" fill="#D5F4B5"/>
<path fill-rule="evenodd" clip-rule="evenodd" d="M125.754 25.1377L151.732 34.9171C154.746 36.0604 156.272 39.4215 155.149 42.4429L114.271 151.216C113.128 154.23 109.765 155.754 106.745 154.628L80.7715 144.864L125.754 25.1377Z" fill="#C2F489"/>
<path fill-rule="evenodd" clip-rule="evenodd" d="M118.757 43.7533C132.718 48.9982 139.784 64.5661 134.542 78.5275C129.299 92.4889 113.732 99.5581 99.7702 94.318C85.8079 89.0779 78.7361 73.5123 83.9738 59.5492C86.4914 52.8416 91.5705 47.4091 98.0938 44.4467C104.617 41.4844 112.05 41.2349 118.757 43.7533Z" fill="#00AD3E"/>
<path fill-rule="evenodd" clip-rule="evenodd" d="M118.762 43.7532C132.541 49.1259 139.437 64.5805 134.233 78.4239C129.029 92.2672 113.66 99.3515 99.7539 94.3167L118.762 43.7532Z" fill="#078E34"/>
<path fill-rule="evenodd" clip-rule="evenodd" d="M68.079 107.314L65.0446 106.193C65.1704 105.45 65.4373 104.738 65.8307 104.096L74.3942 107.314C74.337 107.682 74.2404 108.042 74.1059 108.388C73.9699 108.756 73.7941 109.107 73.5819 109.437L70.5474 108.294L66.7531 118.383L66.1242 118.21C65.9145 118.152 65.7154 118.084 65.5215 118.011C65.3276 117.937 65.1232 117.859 64.9083 117.764C64.6934 117.67 64.4785 117.565 64.2637 117.445L68.058 107.356L68.079 107.314ZM76.1079 107.932L71.5222 120.123C71.9118 120.346 72.3183 120.539 72.7381 120.699C73.1547 120.851 73.5822 120.972 74.0168 121.061L78.6026 108.871C78.2118 108.647 77.8034 108.456 77.3815 108.299C76.9682 108.141 76.5421 108.018 76.1079 107.932ZM85.3108 122.675C85.337 123.045 85.337 123.416 85.3108 123.786C85.2792 124.153 85.2232 124.517 85.1431 124.876C84.557 124.879 83.9721 124.821 83.3979 124.703C82.8635 124.583 82.3381 124.425 81.8257 124.231C80.9529 123.929 80.1531 123.447 79.4778 122.816C78.8884 122.263 78.4316 121.584 78.1414 120.83C77.8602 120.059 77.7372 119.239 77.7798 118.419C77.833 117.511 78.0257 116.617 78.351 115.768C78.6658 114.911 79.1171 114.111 79.6874 113.399C80.206 112.757 80.8452 112.223 81.5689 111.826C82.2819 111.443 83.0716 111.225 83.8801 111.187C84.7749 111.153 85.6671 111.305 86.5005 111.633C87.0032 111.819 87.4919 112.042 87.9627 112.298C88.4409 112.573 88.8859 112.901 89.2886 113.278C89.1385 113.608 88.9446 113.917 88.7121 114.195C88.4763 114.473 88.23 114.751 87.9679 115.029C87.6712 114.778 87.3558 114.55 87.0246 114.347C86.6923 114.149 86.3412 113.984 85.9764 113.855C85.0465 113.439 83.9756 113.484 83.0835 113.975C82.2345 114.464 81.5479 115.402 81.0238 116.789C79.9757 119.55 80.6273 121.368 82.9787 122.245C83.3474 122.388 83.728 122.499 84.1159 122.575C84.5039 122.643 84.8963 122.681 85.2899 122.691L85.3108 122.675ZM92.0086 120.82L97.5901 116.009C97.8429 116.057 98.093 116.118 98.3395 116.192C98.5649 116.265 98.7693 116.334 98.9475 116.402C99.1257 116.47 99.351 116.569 99.5816 116.679C99.8122 116.789 100.048 116.91 100.305 117.025L94.7496 121.653L96.0074 129.326L95.2265 129.111C94.9802 129.043 94.7548 128.969 94.5609 128.901C94.367 128.833 94.1836 128.749 93.9634 128.655C93.7232 128.546 93.4888 128.426 93.2612 128.293L92.0086 120.82ZM91.4583 113.682L86.8569 125.909C87.0613 126.024 87.2604 126.123 87.4596 126.212C87.6587 126.302 87.8579 126.38 88.0623 126.459C88.2667 126.537 88.4711 126.606 88.6807 126.668C88.8941 126.736 89.1111 126.792 89.3305 126.836L93.9268 114.615C93.7276 114.499 93.5232 114.4 93.3293 114.311C93.1354 114.221 92.931 114.143 92.7371 114.069L92.1082 113.849C91.8986 113.786 91.6837 113.729 91.4531 113.682H91.4583ZM101.94 117.644L97.3595 129.834L104.398 132.481C104.604 132.148 104.779 131.797 104.922 131.432C105.049 131.084 105.144 130.724 105.205 130.358L100.645 128.644L101.856 125.421L105.383 126.747C105.78 126.106 106.05 125.394 106.18 124.651L102.653 123.325L103.648 120.678L108.087 122.345C108.299 122.015 108.475 121.664 108.612 121.297C108.744 120.958 108.84 120.607 108.9 120.248L101.982 117.628L101.94 117.644ZM112.537 124.011L109.502 122.869C109.566 122.491 109.666 122.121 109.801 121.763C109.933 121.415 110.096 121.08 110.289 120.762L118.852 124.011C118.786 124.368 118.689 124.719 118.564 125.059C118.423 125.425 118.248 125.776 118.04 126.108L115.005 124.965L111.211 135.054C110.996 135.001 110.792 134.944 110.577 134.881C110.362 134.818 110.168 134.76 109.974 134.687L109.361 134.435C109.142 134.34 108.929 134.234 108.722 134.116L112.537 124.011Z" fill="#FFF6EA"/>
<path fill-rule="evenodd" clip-rule="evenodd" d="M92.0077 120.82L97.5892 116.009C97.8421 116.056 98.0923 116.117 98.3386 116.192C98.5692 116.265 98.7684 116.334 98.9518 116.402C99.1352 116.47 99.3501 116.569 99.5807 116.679C99.8113 116.789 100.047 116.91 100.304 117.025L94.7487 121.658L96.0117 129.326L95.2256 129.111C94.9792 129.043 94.7539 128.974 94.5652 128.901C94.3766 128.828 94.1826 128.749 93.9625 128.655C93.7223 128.546 93.4879 128.426 93.2603 128.293L92.0077 120.82ZM92.3798 113.938L87.7207 126.323L88.0666 126.459C88.271 126.532 88.4754 126.606 88.685 126.668C88.8985 126.736 89.1154 126.792 89.3349 126.836L93.9311 114.615C93.7374 114.503 93.5379 114.401 93.3336 114.311C93.1345 114.221 92.9353 114.143 92.7414 114.069L92.3798 113.938ZM101.95 117.644L97.3638 129.834L104.402 132.481C104.799 131.839 105.068 131.127 105.194 130.384L100.629 128.67L101.839 125.447L105.367 126.773C105.578 126.444 105.754 126.092 105.891 125.725C106.023 125.372 106.122 125.007 106.184 124.635L102.657 123.309L103.653 120.662L108.097 122.334C108.298 122.003 108.465 121.652 108.595 121.286C108.729 120.939 108.826 120.579 108.883 120.212L101.971 117.591L101.95 117.644ZM112.536 124.011L109.507 122.869C109.568 122.492 109.667 122.121 109.8 121.763C109.934 121.417 110.099 121.083 110.293 120.767L118.851 124.011C118.79 124.369 118.693 124.72 118.563 125.06C118.423 125.425 118.248 125.777 118.039 126.108L115.004 124.965L111.215 135.054L110.581 134.886C110.372 134.823 110.167 134.76 109.973 134.687C109.779 134.614 109.58 134.53 109.365 134.435C109.145 134.342 108.93 134.237 108.721 134.121L112.536 124.011Z" fill="#00AD3E"/>
<path fill-rule="evenodd" clip-rule="evenodd" d="M8.76839 34.9164L60.705 15.3734C63.725 14.247 67.0877 15.7715 68.2308 18.7852L109.109 127.559C110.245 130.571 108.731 133.935 105.724 135.084L53.7714 154.612C50.7499 155.737 47.3866 154.21 46.2455 151.195L5.36709 42.4265C4.24997 39.414 5.76727 36.0638 8.76839 34.9164Z" fill="#D5F4B5"/>
<path fill-rule="evenodd" clip-rule="evenodd" d="M34.7266 25.1378L60.7053 15.3741C63.7254 14.2478 67.088 15.7722 68.2312 18.7859L109.11 127.559C110.236 130.572 108.725 133.929 105.724 135.085L79.7505 144.849L34.7266 25.1378Z" fill="#C2F489"/>
<path fill-rule="evenodd" clip-rule="evenodd" d="M41.7234 43.7532C55.6842 38.5048 71.2564 45.5674 76.5051 59.5281C81.7538 73.4889 74.6915 89.0612 60.7308 94.3102C46.7702 99.5591 31.1977 92.4971 25.9485 78.5366C20.7021 64.5754 27.7639 49.0042 41.7234 43.7532Z" fill="#00AD3E"/>
<path fill-rule="evenodd" clip-rule="evenodd" d="M41.7227 43.7533C50.755 40.3587 60.9121 42.0406 68.3681 48.1655C75.8241 54.2904 79.4461 63.9277 77.8697 73.4472C76.2934 82.9667 69.7582 90.9222 60.7259 94.3168L41.7227 43.7533Z" fill="#078E34"/>
<path fill-rule="evenodd" clip-rule="evenodd" d="M45.4548 124.96L42.4204 126.108C42.2113 125.777 42.0358 125.425 41.8963 125.059C41.7673 124.72 41.6725 124.369 41.6133 124.011L50.1716 120.783C50.3679 121.098 50.5329 121.432 50.6642 121.779C50.8019 122.136 50.902 122.507 50.9629 122.885L47.9494 124.011L51.7438 134.11L51.1516 134.404C50.9524 134.493 50.7585 134.577 50.5699 134.65C50.3812 134.724 50.1663 134.797 49.9462 134.865C49.7261 134.933 49.485 134.996 49.2492 135.049L45.4548 124.96ZM51.9063 120.138C52.6809 119.695 53.5212 119.379 54.3957 119.2L58.9814 131.39C58.5965 131.613 58.1932 131.802 57.776 131.956C57.3573 132.116 56.926 132.24 56.4867 132.329L51.9063 120.138ZM68.5407 125.164C68.2386 125.418 67.918 125.65 67.5816 125.856C67.2472 126.059 66.8966 126.235 66.5334 126.38C64.1925 127.261 62.5032 126.323 61.4655 123.566C60.9415 122.172 60.8419 121.014 61.1563 120.091C61.5064 119.135 62.281 118.395 63.2527 118.089C63.6143 117.949 63.988 117.842 64.369 117.77C64.7538 117.706 65.1425 117.67 65.5324 117.659C65.5324 117.282 65.5324 116.91 65.5324 116.543C65.5252 116.188 65.4687 115.835 65.3647 115.495C64.813 115.476 64.2609 115.52 63.7191 115.626C63.1966 115.742 62.6833 115.896 62.1835 116.087C61.3368 116.388 60.5634 116.865 59.9142 117.487C59.3296 118.046 58.8783 118.731 58.5936 119.488C58.3107 120.267 58.1842 121.093 58.2215 121.92C58.2622 122.815 58.4462 123.698 58.7665 124.535C59.0783 125.389 59.5222 126.188 60.082 126.904C60.5866 127.552 61.2201 128.087 61.9424 128.477C62.6579 128.856 63.4497 129.069 64.2589 129.1C65.1823 129.122 66.1006 128.957 66.9579 128.613C67.4659 128.425 67.9598 128.2 68.4358 127.942C68.9459 127.655 69.4238 127.314 69.8613 126.925C69.6889 126.599 69.4908 126.287 69.2691 125.992C69.0478 125.695 68.8043 125.415 68.5407 125.154V125.164ZM72.356 119.357L73.4041 112.062C73.6259 111.93 73.8552 111.811 74.0907 111.706C74.3056 111.612 74.5047 111.533 74.6881 111.465C74.8716 111.397 75.0969 111.323 75.3432 111.255L76.1137 111.046L74.9869 118.184L80.9876 123.126L80.2591 123.477C80.0233 123.592 79.8084 123.686 79.6198 123.76C79.4311 123.833 79.2319 123.896 79.0066 123.964C78.7539 124.044 78.4967 124.109 78.2362 124.158L72.3717 119.357H72.356ZM67.2409 114.352C67.4453 114.237 67.6445 114.138 67.8436 114.049C68.0428 113.959 68.2524 113.876 68.4673 113.797C68.6822 113.718 68.8603 113.655 69.0647 113.593C69.2799 113.525 69.4986 113.469 69.7198 113.425L74.3108 125.646C74.1171 125.758 73.9177 125.86 73.7133 125.95C73.5142 126.04 73.3098 126.118 73.1054 126.197C72.901 126.275 72.6966 126.343 72.4922 126.412C72.2878 126.48 72.0677 126.532 71.8371 126.579L67.2409 114.352ZM77.7226 110.427L82.3031 122.617L89.3415 119.997C89.2781 119.619 89.1781 119.249 89.0428 118.891C88.9137 118.543 88.7485 118.209 88.5501 117.895L83.9906 119.609L82.78 116.391L86.3018 115.065C86.2405 114.686 86.1422 114.314 86.0083 113.954C85.8722 113.603 85.7056 113.265 85.5105 112.943L81.9834 114.269L80.9876 111.622L85.4318 109.955C85.3679 109.576 85.2678 109.204 85.1331 108.844C85.0018 108.499 84.8368 108.167 84.6405 107.854L77.7226 110.474V110.427ZM89.8918 108.252L86.8573 109.395C86.6472 109.064 86.4716 108.713 86.3333 108.347C86.1988 108 86.1022 107.64 86.045 107.272L94.6505 104.096C94.8452 104.413 95.0084 104.748 95.1378 105.097C95.2756 105.454 95.3757 105.825 95.4366 106.203L92.4021 107.34L96.1965 117.429L95.6095 117.717C95.4104 117.811 95.2165 117.895 95.0225 117.969L94.3989 118.184C94.1735 118.252 93.9429 118.315 93.7019 118.367L89.8918 108.252Z" fill="#9BD5A4"/>
<path fill-rule="evenodd" clip-rule="evenodd" d="M72.3558 119.357L73.4039 112.062C73.6263 111.931 73.8555 111.812 74.0905 111.706C74.3106 111.612 74.5045 111.533 74.688 111.465C74.8714 111.397 75.0967 111.323 75.3431 111.255L76.1187 111.04L74.9867 118.184L80.9874 123.126L80.259 123.477C80.0231 123.592 79.8135 123.686 79.6196 123.76C79.4257 123.833 79.237 123.896 79.0116 123.964C78.7588 124.044 78.5016 124.108 78.2412 124.158L72.3715 119.357H72.3558ZM68.1055 113.938L72.7593 126.323L73.1052 126.197C73.3096 126.123 73.514 126.04 73.7132 125.95C73.9175 125.86 74.1169 125.758 74.3106 125.646L69.7196 113.425C69.4979 113.467 69.279 113.523 69.0645 113.593C68.8601 113.655 68.6558 113.724 68.4671 113.797L68.1055 113.938ZM77.7434 110.427L82.3291 122.617L89.3623 119.997C89.3014 119.619 89.2013 119.248 89.0635 118.891C88.9344 118.543 88.7693 118.209 88.5709 117.895L84.0166 119.609L82.8007 116.386L86.3278 115.06C86.264 114.683 86.164 114.312 86.0291 113.954C85.8949 113.603 85.73 113.265 85.5365 112.943L82.0041 114.269L81.0084 111.622L85.4526 109.955C85.3911 109.576 85.291 109.204 85.1539 108.844C85.0248 108.498 84.8596 108.166 84.6612 107.854L77.7434 110.474V110.427ZM89.9126 108.252L86.8571 109.395C86.6492 109.063 86.4737 108.712 86.3331 108.347C86.2035 107.998 86.107 107.639 86.0448 107.272L94.6503 104.096C94.845 104.411 95.0082 104.745 95.1377 105.092C95.274 105.45 95.3757 105.82 95.4416 106.198L92.4072 107.34L96.1963 117.429L95.6093 117.717C95.4181 117.809 95.2222 117.892 95.0224 117.963C94.8337 118.037 94.6241 118.11 94.3987 118.184C94.1733 118.257 93.9428 118.315 93.7069 118.367L89.9126 108.252Z" fill="#00AD3E"/>
<path d="M61.2866 76.2097L54.4212 62.8509L55.8624 58.37C56.0915 57.6476 56.1612 56.8841 56.0668 56.1321L55.9724 55.608C55.8933 54.9484 55.4401 54.394 54.8094 54.1852C54.1786 53.9765 53.4841 54.1511 53.0271 54.6333L52.6183 55.0368C52.1105 55.5869 51.7294 56.2416 51.502 56.9549L50.0608 61.4358L36.7072 68.2961C36.0302 68.6409 35.5203 69.2433 35.2921 69.9679L34.8781 71.2467C34.8154 71.4451 34.8656 71.662 35.0091 71.8127C35.1544 71.9654 35.371 72.0275 35.5751 71.9751L47.9645 68.6891C47.5347 70.3715 47.2307 71.7917 46.8586 73.5212L46.4813 75.2978L41.8536 76.5923C41.6692 76.645 41.5236 76.7867 41.4658 76.9697L41.1147 78.0597C41.0602 78.2257 41.0853 78.4075 41.1828 78.5524C41.2795 78.6956 41.4353 78.788 41.6073 78.8039L46.7381 79.2756L51.1823 81.896L51.2976 81.9484C51.4422 81.9945 51.5991 81.9811 51.7338 81.9113C51.8685 81.8415 51.9699 81.721 52.0156 81.5763L52.3667 80.4863C52.4261 80.3061 52.3885 80.108 52.2672 79.9622L49.2589 76.2202L49.9874 74.5484C50.6897 72.929 51.2714 71.5978 51.9003 69.9836L60.0655 79.8626C60.1983 80.0241 60.4088 80.1001 60.6142 80.0608C60.8196 80.0215 60.987 79.8731 61.0508 79.6739L61.4648 78.4004C61.6994 77.6756 61.6353 76.8871 61.2866 76.2097Z" fill="#73E900"/>
<path d="M51.7116 70.4447L48.5671 62.2166L36.7072 68.3116C36.0302 68.6564 35.5203 69.2589 35.2921 69.9835L34.8781 71.2622C34.8154 71.4607 34.8656 71.6775 35.0091 71.8282C35.1544 71.9809 35.371 72.0431 35.5751 71.9907L47.9645 68.7047C47.5347 70.387 47.2307 71.8073 46.8586 73.5367L46.4813 75.3134L41.8536 76.6079C41.6692 76.6606 41.5236 76.8023 41.4658 76.9852L41.1147 78.0753C41.0602 78.2412 41.0853 78.423 41.1828 78.5679C41.2795 78.7112 41.4353 78.8035 41.6073 78.8195L46.7381 79.2912L51.1823 81.9116L51.2976 81.964C51.4422 82.01 51.5991 81.9967 51.7338 81.9269C51.8685 81.8571 51.9699 81.7365 52.0156 81.5919L52.3667 80.5018C52.4261 80.3216 52.3885 80.1236 52.2672 79.9777L49.2589 76.2358L49.9874 74.5639C50.6216 73.086 51.1509 71.844 51.7116 70.4447Z" fill="#8CF220"/>
<path d="M112.312 81.4558L115.813 66.8549L119.822 64.3917C120.469 63.9927 121.02 63.4559 121.436 62.8194L121.698 62.374C122.073 61.8183 122.088 61.0941 121.735 60.524C121.395 59.9573 120.756 59.6416 120.1 59.7169L119.523 59.7536C118.78 59.8417 118.065 60.0903 117.427 60.482L113.412 62.94L98.8166 59.4444C98.0779 59.2642 97.2978 59.3889 96.6521 59.7902L95.5096 60.4925C95.3319 60.6022 95.2281 60.8 95.2391 61.0086C95.25 61.2171 95.3738 61.403 95.562 61.4935L107.092 67.075C105.672 68.076 104.513 68.9512 103.109 70.0256L101.662 71.1209L97.3386 69.0927C97.1689 69.0193 96.9743 69.031 96.8146 69.1242L95.8398 69.7269C95.6907 69.8162 95.5904 69.9686 95.5672 70.1409C95.5464 70.3137 95.6041 70.4868 95.7245 70.6126L99.3092 74.3126L100.986 79.1866C100.998 79.2272 101.016 79.266 101.039 79.3018C101.104 79.4141 101.208 79.4981 101.332 79.5377C101.496 79.5968 101.677 79.5775 101.825 79.4853L102.805 78.8878C102.968 78.7878 103.07 78.6127 103.077 78.4214L103.235 73.6156L104.87 72.8242C106.442 72.059 107.768 71.4249 109.303 70.6073L109.052 83.4264C109.043 83.6412 109.154 83.8432 109.34 83.9505C109.519 84.0577 109.743 84.0577 109.922 83.9505L111.07 83.2482C111.706 82.8398 112.153 82.1947 112.312 81.4558Z" fill="#73E900"/>
<path d="M108.806 70.843L111.788 62.5573L98.8168 59.4495C98.0781 59.2693 97.2981 59.394 96.6523 59.7954L95.5098 60.4924C95.3296 60.6038 95.225 60.805 95.2373 61.0165C95.2454 61.2271 95.3709 61.4154 95.5622 61.5039L107.092 67.0854C105.672 68.0864 104.514 68.9616 103.109 70.036L101.663 71.1313L97.3389 69.0926C97.1691 69.0192 96.9746 69.0308 96.8148 69.124L95.84 69.7267C95.6909 69.8161 95.5906 69.9685 95.5675 70.1408C95.5467 70.3136 95.6044 70.4867 95.7247 70.6124L99.3094 74.3125L100.987 79.1864C100.998 79.2259 101.015 79.2631 101.039 79.2965C101.103 79.4107 101.208 79.4967 101.332 79.5376C101.496 79.5967 101.678 79.5774 101.825 79.4852L102.805 78.8877C102.968 78.7877 103.071 78.6126 103.078 78.4213L103.235 73.6154L104.87 72.8241C106.248 72.127 107.469 71.5401 108.806 70.843Z" fill="#8CF220"/>
</svg>
