<svg width="64" height="64" viewBox="0 0 64 64" fill="none" xmlns="http://www.w3.org/2000/svg">
<g clip-path="url(#clip0_2512_16134)">
<path d="M42.6667 34.6668H34.6667C33.2 34.6668 32 35.8668 32 37.3335V45.3335C32 46.8002 33.2 48.0002 34.6667 48.0002H42.6667C44.1333 48.0002 45.3333 46.8002 45.3333 45.3335V37.3335C45.3333 35.8668 44.1333 34.6668 42.6667 34.6668ZM42.6667 8.00016V10.6668H21.3333V8.00016C21.3333 6.5335 20.1333 5.3335 18.6667 5.3335C17.2 5.3335 16 6.5335 16 8.00016V10.6668H13.3333C10.3733 10.6668 8.02667 13.0668 8.02667 16.0002L8 53.3335C8 56.2668 10.3733 58.6668 13.3333 58.6668H50.6667C53.6 58.6668 56 56.2668 56 53.3335V16.0002C56 13.0668 53.6 10.6668 50.6667 10.6668H48V8.00016C48 6.5335 46.8 5.3335 45.3333 5.3335C43.8667 5.3335 42.6667 6.5335 42.6667 8.00016ZM48 53.3335H16C14.5333 53.3335 13.3333 52.1335 13.3333 50.6668V24.0002H50.6667V50.6668C50.6667 52.1335 49.4667 53.3335 48 53.3335Z" fill="#CBA552"/>
</g>
<defs>
<clipPath id="clip0_2512_16134">
<rect width="64" height="64" fill="white"/>
</clipPath>
</defs>
</svg>
