<svg width="64" height="64" viewBox="0 0 64 64" fill="none" xmlns="http://www.w3.org/2000/svg">
<g clip-path="url(#clip0_2525_17075)">
<path d="M25.334 17.3335V25.3335H17.334V17.3335H25.334ZM29.334 13.3335H13.334V29.3335H29.334V13.3335ZM25.334 38.6668V46.6668H17.334V38.6668H25.334ZM29.334 34.6668H13.334V50.6668H29.334V34.6668ZM46.6673 17.3335V25.3335H38.6673V17.3335H46.6673ZM50.6673 13.3335H34.6673V29.3335H50.6673V13.3335ZM34.6673 34.6668H38.6673V38.6668H34.6673V34.6668ZM38.6673 38.6668H42.6673V42.6668H38.6673V38.6668ZM42.6673 34.6668H46.6673V38.6668H42.6673V34.6668ZM34.6673 42.6668H38.6673V46.6668H34.6673V42.6668ZM38.6673 46.6668H42.6673V50.6668H38.6673V46.6668ZM42.6673 42.6668H46.6673V46.6668H42.6673V42.6668ZM46.6673 38.6668H50.6673V42.6668H46.6673V38.6668ZM46.6673 46.6668H50.6673V50.6668H46.6673V46.6668ZM56.0007 18.6668C54.534 18.6668 53.334 17.4668 53.334 16.0002V10.6668H48.0007C46.534 10.6668 45.334 9.46683 45.334 8.00016C45.334 6.5335 46.534 5.3335 48.0007 5.3335H56.0007C57.4673 5.3335 58.6673 6.5335 58.6673 8.00016V16.0002C58.6673 17.4668 57.4673 18.6668 56.0007 18.6668ZM58.6673 56.0002V48.0002C58.6673 46.5335 57.4673 45.3335 56.0007 45.3335C54.534 45.3335 53.334 46.5335 53.334 48.0002V53.3335H48.0007C46.534 53.3335 45.334 54.5335 45.334 56.0002C45.334 57.4668 46.534 58.6668 48.0007 58.6668H56.0007C57.4673 58.6668 58.6673 57.4668 58.6673 56.0002ZM8.00065 58.6668H16.0007C17.4673 58.6668 18.6673 57.4668 18.6673 56.0002C18.6673 54.5335 17.4673 53.3335 16.0007 53.3335H10.6673V48.0002C10.6673 46.5335 9.46732 45.3335 8.00065 45.3335C6.53398 45.3335 5.33398 46.5335 5.33398 48.0002V56.0002C5.33398 57.4668 6.53398 58.6668 8.00065 58.6668ZM5.33398 8.00016V16.0002C5.33398 17.4668 6.53398 18.6668 8.00065 18.6668C9.46732 18.6668 10.6673 17.4668 10.6673 16.0002V10.6668H16.0007C17.4673 10.6668 18.6673 9.46683 18.6673 8.00016C18.6673 6.5335 17.4673 5.3335 16.0007 5.3335H8.00065C6.53398 5.3335 5.33398 6.5335 5.33398 8.00016Z" fill="#CBA552"/>
</g>
<defs>
<clipPath id="clip0_2525_17075">
<rect width="64" height="64" fill="white"/>
</clipPath>
</defs>
</svg>
