<svg width="64" height="64" viewBox="0 0 64 64" fill="none" xmlns="http://www.w3.org/2000/svg">
<g clip-path="url(#clip0_2512_16070)">
<path d="M31.9993 21.3332C34.9449 21.3332 37.3327 18.9454 37.3327 15.9998C37.3327 13.0543 34.9449 10.6665 31.9993 10.6665C29.0538 10.6665 26.666 13.0543 26.666 15.9998C26.666 18.9454 29.0538 21.3332 31.9993 21.3332Z" fill="#CBA552"/>
<path d="M56 39.84C56 38.5067 55.04 37.36 53.7333 37.2267C48.72 36.6667 44.4267 34.2133 41.0667 30.2133L37.4933 25.9467C36.48 24.6933 34.9867 24 33.4133 24H30.6133C29.04 24 27.5467 24.6933 26.5333 25.92L22.96 30.1867C19.6267 34.1867 15.3067 36.64 10.2933 37.2C8.96 37.36 8 38.5067 8 39.84C8 41.44 9.41333 42.6933 11.0133 42.5067C17.1467 41.7867 22.5333 38.8 26.6667 34V40L16.64 44C14.9067 44.6933 13.5467 46.2133 13.36 48.08C13.0933 50.9333 15.3067 53.3333 18.1067 53.3333H24V52C24 48.32 26.9867 45.3333 30.6667 45.3333H38.6667C39.4133 45.3333 40 45.92 40 46.6667C40 47.4133 39.4133 48 38.6667 48H30.6667C28.4533 48 26.6667 49.7867 26.6667 52V53.3333H45.6C47.8667 53.3333 50 51.8933 50.5333 49.68C51.0933 47.3067 49.8133 44.9867 47.6533 44.1333L37.3333 40V34C41.4933 38.8 46.8533 41.76 52.9867 42.5067C54.5867 42.6667 56 41.44 56 39.84Z" fill="#CBA552"/>
</g>
<defs>
<clipPath id="clip0_2512_16070">
<rect width="64" height="64" fill="white"/>
</clipPath>
</defs>
</svg>
