<svg width="165" height="80" viewBox="0 0 165 80" fill="none" xmlns="http://www.w3.org/2000/svg">
<path fill-rule="evenodd" clip-rule="evenodd" d="M24.4785 7.57208C29.1253 7.57208 33.1046 9.45283 35.9286 12.4672C36.6866 13.276 37.7512 13.727 38.8603 13.727H39.1242C42.7286 13.727 44.5532 9.34969 41.9801 6.82818C37.6789 2.61333 31.6674 0 24.6127 0C17.5994 0 11.5856 2.61434 7.25766 6.81862C4.66896 9.33333 6.49281 13.727 10.1037 13.727C11.2212 13.727 12.292 13.2682 13.0518 12.4496C15.8445 9.44025 19.807 7.57208 24.4785 7.57208ZM0 39.9999V40.134C0 53.3352 10.0622 64.2587 24.486 64.2587C38.9096 64.2587 49.1068 53.2019 49.1068 39.9999V39.8658C49.1068 26.6645 39.0434 15.741 24.62 15.741C10.1972 15.741 0 26.7981 0 39.9999ZM40.4525 39.9999V40.134C40.4525 49.2479 33.9448 56.6193 24.6201 56.6193C15.2955 56.6193 8.65392 49.1138 8.65392 39.9999V39.8658C8.65392 30.7521 15.1608 23.3133 24.4861 23.3133C33.8114 23.3133 40.4525 30.8862 40.4525 39.9999ZM56.48 20.6999V59.2999C56.48 61.6448 58.291 63.4549 60.6392 63.4549H88.2786C90.2911 63.4549 91.9686 61.8463 91.9686 59.7683C91.9686 57.759 90.2911 56.0833 88.2786 56.0833H64.7312V43.4848H84.9243C86.937 43.4848 88.6138 41.8762 88.6138 39.8659C88.6138 37.7882 86.937 36.1132 84.9243 36.1132H64.7312V23.9167H87.9436C89.9551 23.9167 91.6329 22.3082 91.6329 20.2315C91.6329 18.2201 89.9551 16.5454 87.9436 16.5454H60.6392C58.291 16.5454 56.48 18.355 56.48 20.6999ZM99.2749 20.2979C99.2749 18.0194 101.086 16.2104 103.434 16.2104C105.715 16.2104 107.526 18.0194 107.526 20.2979V59.7017C107.526 61.9802 105.715 63.7893 103.434 63.7893C101.086 63.7893 99.2749 61.9802 99.2749 59.7017V20.2979ZM115.366 39.9999V40.134C115.366 53.3352 125.43 64.2587 139.853 64.2587C154.276 64.2587 164.473 53.2019 164.473 39.9999V39.8658C164.473 26.6645 154.41 15.741 139.987 15.741C125.563 15.741 115.366 26.7981 115.366 39.9999ZM155.819 39.9999V40.134C155.819 49.2479 149.312 56.6193 139.987 56.6193C130.661 56.6193 124.02 49.1138 124.02 39.9999V39.8658C124.02 30.7521 130.528 23.3133 139.853 23.3133C149.177 23.3133 155.819 30.8862 155.819 39.9999ZM87.9368 8.17567H64.7248V9.68888C64.7248 11.9193 62.9148 13.7274 60.682 13.7274H60.5162C58.2836 13.7274 56.4736 11.9193 56.4736 9.68888V4.95907C56.4736 2.66448 58.3358 0.804099 60.6329 0.804099H87.839C89.8631 0.804099 91.5852 2.39102 91.6258 4.41265C91.6681 6.52712 89.9739 8.17567 87.9368 8.17567ZM107.519 4.64395C107.519 2.39288 105.734 0.496275 103.481 0.469608C101.107 0.441684 99.2683 2.26105 99.2683 4.5569V9.68898C99.2683 11.9192 101.079 13.7272 103.311 13.7272H103.477C105.709 13.7272 107.519 11.9192 107.519 9.68898V4.64395ZM151.296 12.4672C148.471 9.45283 144.492 7.57208 139.846 7.57208C135.174 7.57208 131.212 9.44025 128.419 12.4496C127.659 13.2682 126.588 13.727 125.471 13.727H125.47C121.859 13.727 120.035 9.33333 122.624 6.81862C126.952 2.61434 132.966 0 139.98 0C147.034 0 153.046 2.61333 157.347 6.82843C159.92 9.34969 158.095 13.727 154.491 13.727H154.227C153.118 13.727 152.053 13.276 151.296 12.4672ZM24.6131 72.3606C19.9787 72.3606 16.0071 70.5063 13.1844 67.5224C12.4251 66.7199 11.3633 66.2729 10.258 66.2729H9.99357C6.37961 66.2729 4.5477 70.6646 7.13011 73.1898C11.4298 77.3944 17.434 80.0001 24.4789 80.0001C31.4824 80.0001 37.4889 77.3931 41.8158 73.1996C44.4143 70.6812 42.5829 66.2729 38.9624 66.2729H38.9617C37.848 66.2729 36.7799 66.7274 36.0189 67.5398C33.2272 70.5189 29.2725 72.3606 24.6131 72.3606ZM60.6323 79.1959C58.335 79.1959 56.4728 77.3355 56.4728 75.0412V70.3217C56.4728 68.0857 58.2876 66.2729 60.5262 66.2729H60.6706C62.9092 66.2729 64.724 68.0857 64.724 70.3217V71.8246H88.1749C90.199 71.8246 91.9208 73.4117 91.9606 75.4334C92.0024 77.5481 90.3085 79.1959 88.2714 79.1959H60.6323ZM99.2683 75.443C99.2683 77.7388 101.107 79.5582 103.481 79.5303C105.734 79.5036 107.519 77.607 107.519 75.3559V70.3217C107.519 68.0855 105.705 66.2726 103.466 66.2726H103.322C101.083 66.2726 99.2683 68.0855 99.2683 70.3217V75.443ZM128.551 67.5224C131.374 70.5066 135.345 72.3606 139.98 72.3606C144.639 72.3606 148.594 70.5189 151.386 67.5398C152.147 66.7274 153.215 66.2729 154.329 66.2729C157.949 66.2729 159.78 70.6806 157.182 73.1994C152.855 77.3931 146.849 80.0001 139.846 80.0001C132.801 80.0001 126.797 77.3944 122.497 73.1901C119.914 70.6648 121.746 66.2729 125.36 66.2729H125.624C126.73 66.2729 127.792 66.7199 128.551 67.5224Z" fill="#006064"/>
</svg>
