<svg width="64" height="64" viewBox="0 0 64 64" fill="none" xmlns="http://www.w3.org/2000/svg">
<path d="M23.5997 58.6668C21.1108 58.6668 18.7552 58.2113 16.533 57.3002C14.3108 56.389 12.333 55.0668 10.5997 53.3335C8.91079 51.6446 7.61079 49.7002 6.69967 47.5002C5.78856 45.3002 5.33301 42.9335 5.33301 40.4002C5.33301 36.8446 6.25523 33.6002 8.09967 30.6668C9.94412 27.7335 12.3997 25.5557 15.4663 24.1335C16.3552 22.2668 17.533 20.6002 18.9997 19.1335C20.4663 17.6668 22.1775 16.4446 24.133 15.4668C25.5552 12.3113 27.7219 9.8335 30.633 8.0335C33.5441 6.2335 36.8219 5.3335 40.4663 5.3335C42.9552 5.3335 45.2997 5.78905 47.4997 6.70016C49.6997 7.61127 51.6441 8.9335 53.333 10.6668C55.0219 12.4002 56.333 14.3557 57.2663 16.5335C58.1997 18.7113 58.6663 21.0446 58.6663 23.5335C58.6663 27.2668 57.8108 30.5224 56.0997 33.3002C54.3886 36.0779 51.8663 38.2668 48.533 39.8668C47.6441 41.8224 46.4775 43.5224 45.033 44.9668C43.5886 46.4113 41.8663 47.6002 39.8663 48.5335C38.4441 51.6891 36.2775 54.1668 33.3663 55.9668C30.4552 57.7668 27.1997 58.6668 23.5997 58.6668ZM23.5997 54.6668C25.5997 54.6668 27.5219 54.2335 29.3663 53.3668C31.2108 52.5002 32.7108 51.3557 33.8663 49.9335C31.0663 50.2446 28.3886 49.9668 25.833 49.1002C23.2775 48.2335 21.0219 46.8446 19.0663 44.9335C17.1108 43.0224 15.7108 40.7779 14.8663 38.2002C14.0219 35.6224 13.7552 32.9335 14.0663 30.1335C12.5997 31.2891 11.4441 32.7891 10.5997 34.6335C9.75523 36.4779 9.33301 38.4002 9.33301 40.4002C9.33301 42.4002 9.68856 44.2668 10.3997 46.0002C11.1108 47.7335 12.133 49.2446 13.4663 50.5335C14.7997 51.8224 16.3219 52.8335 18.033 53.5668C19.7441 54.3002 21.5997 54.6668 23.5997 54.6668ZM31.9997 46.2002C33.9997 46.2002 35.9108 45.7779 37.733 44.9335C39.5552 44.0891 41.0886 42.9335 42.333 41.4668C39.533 41.7779 36.8663 41.4779 34.333 40.5668C31.7997 39.6557 29.5775 38.2224 27.6663 36.2668C25.7108 34.2668 24.2886 31.9891 23.3997 29.4335C22.5108 26.8779 22.2441 24.2002 22.5997 21.4002C20.8219 23.0891 19.5775 24.7224 18.8663 26.3002C18.1552 27.8779 17.7997 29.7779 17.7997 32.0002C17.7997 33.9557 18.1552 35.8002 18.8663 37.5335C19.5775 39.2668 20.5997 40.8002 21.933 42.1335C23.2219 43.4224 24.733 44.4224 26.4663 45.1335C28.1997 45.8446 30.0441 46.2002 31.9997 46.2002ZM40.733 37.6002C41.4886 37.6002 42.2552 37.5224 43.033 37.3668C43.8108 37.2113 44.6441 36.9557 45.533 36.6002C46.4663 33.9779 46.6219 31.3891 45.9997 28.8335C45.3775 26.2779 44.0663 24.0002 42.0663 22.0002C40.1997 20.1335 37.8552 18.8668 35.033 18.2002C32.2108 17.5335 29.5997 17.6224 27.1997 18.4668C26.9775 19.2224 26.8108 20.0002 26.6997 20.8002C26.5886 21.6002 26.533 22.5113 26.533 23.5335C26.533 25.4002 26.8886 27.2002 27.5997 28.9335C28.3108 30.6668 29.333 32.2224 30.6663 33.6002C31.9997 35.0224 33.533 36.0446 35.2663 36.6668C36.9997 37.2891 38.8219 37.6002 40.733 37.6002ZM50.2663 34.0002C51.7775 32.7113 52.8886 31.2224 53.5997 29.5335C54.3108 27.8446 54.6663 25.8446 54.6663 23.5335C54.6663 21.6224 54.3108 19.8113 53.5997 18.1002C52.8886 16.3891 51.8663 14.8668 50.533 13.5335C49.1552 12.1557 47.6108 11.1113 45.8997 10.4002C44.1886 9.68905 42.3775 9.3335 40.4663 9.3335C38.2886 9.3335 36.3108 9.70016 34.533 10.4335C32.7552 11.1668 31.1552 12.3113 29.733 13.8668C32.533 13.5557 35.2441 13.8557 37.8663 14.7668C40.4886 15.6779 42.8219 17.1335 44.8663 19.1335C46.9108 21.1335 48.3997 23.4113 49.333 25.9668C50.2663 28.5224 50.5775 31.2002 50.2663 34.0002Z" fill="#6BB7E6"/>
</svg>
