<svg width="64" height="64" viewBox="0 0 64 64" fill="none" xmlns="http://www.w3.org/2000/svg">
<g clip-path="url(#clip0_2512_16109)">
<path d="M10.6667 34.6667H26.6667C28.1333 34.6667 29.3333 33.4667 29.3333 32V10.6667C29.3333 9.2 28.1333 8 26.6667 8H10.6667C9.2 8 8 9.2 8 10.6667V32C8 33.4667 9.2 34.6667 10.6667 34.6667ZM10.6667 56H26.6667C28.1333 56 29.3333 54.8 29.3333 53.3333V42.6667C29.3333 41.2 28.1333 40 26.6667 40H10.6667C9.2 40 8 41.2 8 42.6667V53.3333C8 54.8 9.2 56 10.6667 56ZM37.3333 56H53.3333C54.8 56 56 54.8 56 53.3333V32C56 30.5333 54.8 29.3333 53.3333 29.3333H37.3333C35.8667 29.3333 34.6667 30.5333 34.6667 32V53.3333C34.6667 54.8 35.8667 56 37.3333 56ZM34.6667 10.6667V21.3333C34.6667 22.8 35.8667 24 37.3333 24H53.3333C54.8 24 56 22.8 56 21.3333V10.6667C56 9.2 54.8 8 53.3333 8H37.3333C35.8667 8 34.6667 9.2 34.6667 10.6667Z" fill="#6BB7E6"/>
</g>
<defs>
<clipPath id="clip0_2512_16109">
<rect width="64" height="64" fill="white"/>
</clipPath>
</defs>
</svg>
