<svg width="232" height="58" viewBox="0 0 232 58" fill="none" xmlns="http://www.w3.org/2000/svg">
<path d="M25.3297 22.9013C22.1916 24.4807 20.9587 28.4292 22.5278 31.588C24.0969 34.7468 28.0196 35.9878 31.1578 34.4084C34.2959 32.829 35.5288 28.8805 33.9597 25.7217C32.3906 22.5629 28.4679 21.3219 25.3297 22.9013Z" fill="black"/>
<path d="M55.5905 25.8345C55.4785 25.2704 54.9181 23.2398 52.9007 24.3679C50.9954 25.4961 51.1074 28.0908 51.1074 28.3164C51.2195 29.3318 51.1074 30.4599 50.9954 31.4752C50.3229 37.0031 47.7451 42.1926 43.5983 45.9155C39.4514 49.6384 34.1838 51.669 28.692 51.669C27.9074 51.669 27.0108 51.669 26.1142 51.5562C20.9587 50.9921 16.3635 48.7358 12.777 45.1258C12.1045 44.1105 12.4408 43.2079 12.6649 42.6439C14.0099 41.0645 15.691 39.2594 16.4756 38.4697C17.7084 37.1159 18.0446 36.5519 17.2601 35.1981C16.4756 33.8443 15.3548 34.07 13.6736 34.4084C12.777 34.634 10.3113 34.7468 8.406 34.9725C7.73354 34.9725 6.949 34.5212 6.50069 33.1674C6.38861 32.6034 6.27653 32.0393 6.27653 31.588C6.27653 31.3624 6.27653 31.1368 6.16445 31.024C6.05238 29.5574 6.05238 28.0908 6.27653 26.6242C6.949 21.0963 9.52677 15.9068 13.6736 12.184C17.8205 8.46107 23.0881 6.43041 28.5799 6.43041C29.4765 6.43041 30.2611 6.43041 31.1577 6.54323C34.7442 6.99448 38.2186 8.23544 41.693 10.6045C41.805 10.7174 43.9345 12.2968 45.9519 11.1686C47.6331 9.81485 46.2881 8.23544 45.9519 7.897C41.9171 4.39975 36.8736 2.25628 31.606 1.57939C30.5973 1.46657 29.5886 1.35376 28.5799 1.35376C21.9674 1.35376 15.5789 3.83568 10.5355 8.23544C5.49199 12.748 2.35383 18.9528 1.56929 25.6089C1.0089 30.6855 1.90552 35.6494 3.81083 40.0491L6.50069 39.4851L8.63015 39.0338L10.0872 38.6954L9.07846 39.8235L7.50938 41.7413L5.71615 43.772C9.97508 50.4281 17.148 55.1663 25.5538 56.0688C26.5625 56.1816 27.5712 56.2944 28.5799 56.2944C35.1925 56.2944 41.5809 53.8125 46.6244 49.4127C51.6678 44.9002 54.806 38.6954 55.5905 32.0393C55.8147 29.8958 55.8147 27.8652 55.5905 25.8345Z" fill="black"/>
<path d="M79.6874 46.0283C79.6874 46.7052 79.5754 47.2693 79.3512 47.7206C79.1271 48.1718 78.7908 48.6231 78.3425 48.8487C77.8942 49.1871 77.3338 49.4128 76.7734 49.5256C76.2131 49.6384 75.5406 49.7512 74.756 49.7512H68.5918V36.3263H74.4198C74.4198 36.3263 76.9976 36.6647 77.8942 37.2288C78.7908 37.7929 79.1271 38.6954 79.1271 39.9364C79.1271 40.7261 78.9029 41.2901 78.5667 41.7414C78.2304 42.1926 77.6701 42.5311 76.9976 42.7567V42.8695C76.9976 42.8695 78.3425 43.4336 78.7908 43.9977C79.4633 44.5617 79.6874 45.2386 79.6874 46.0283ZM77.6701 39.9364C77.6701 39.1467 77.3338 38.5826 76.7734 38.2441C76.2131 37.9057 75.4285 37.6801 74.4198 37.6801H70.1609V42.0798H74.4198C74.4198 42.0798 76.2131 41.8542 76.7734 41.5158C77.3338 41.1773 77.6701 40.7261 77.6701 39.9364ZM70.1609 43.6592C70.1609 43.6592 70.1609 43.772 70.1609 43.6592V48.1718H74.756C74.756 48.1718 75.6527 48.1718 75.9889 48.059C76.4372 47.9462 76.7734 47.8334 76.9976 47.6077C77.3338 47.3821 77.558 47.1565 77.6701 46.9309C77.8942 46.5924 77.8942 46.254 77.8942 45.9155C77.8942 45.5771 77.7821 45.2386 77.6701 45.013C77.558 44.7874 77.3338 44.5617 76.9976 44.3361C76.7734 44.1105 76.4372 43.9977 75.9889 43.8849C75.6527 43.772 75.2044 43.772 74.756 43.6592H70.1609Z" fill="black"/>
<path d="M99.6371 50.0897C98.7404 50.0897 97.9559 49.9768 97.2834 49.6384C96.611 49.3 96.0506 48.9615 95.4902 48.3974C95.0419 47.8334 94.5936 47.2693 94.3694 46.4796C94.1453 45.8027 94.0332 44.9002 94.0332 44.1105V36.3263H95.4902V44.1105C95.4902 44.1105 95.6023 45.3515 95.7144 45.9155C95.9385 46.4796 96.1627 46.9309 96.4989 47.3821C96.8351 47.8334 97.2834 48.059 97.7317 48.2846C98.2921 48.5103 98.8525 48.6231 99.525 48.6231C100.197 48.6231 100.758 48.5103 101.318 48.2846C101.879 48.059 102.215 47.7206 102.551 47.3821C102.887 46.9309 103.111 46.4796 103.336 45.9155C103.56 45.3515 103.56 44.7874 103.56 44.1105V36.3263H105.017V44.1105C105.017 44.1105 104.905 45.8027 104.681 46.4796C104.456 47.1565 104.12 47.8334 103.56 48.3974C103.111 48.9615 102.439 49.3 101.767 49.6384C101.318 49.864 100.534 50.0897 99.6371 50.0897Z" fill="black"/>
<path d="M128.665 36.3263C128.665 36.3263 128.777 36.3263 128.665 36.3263H130.459L125.303 44.5617V49.6384H123.846V44.5617L118.69 36.3263H120.484L124.182 42.3055L124.518 42.9823H124.631L124.967 42.3055L128.665 36.3263Z" fill="black"/>
<path d="M155.227 46.0283C155.227 46.7052 155.115 47.2693 154.891 47.7206C154.667 48.1718 154.331 48.6231 153.883 48.8487C153.434 49.1871 152.874 49.4128 152.313 49.5256C151.753 49.6384 151.081 49.7512 150.296 49.7512H144.132V36.3263H149.96C149.96 36.3263 152.538 36.6647 153.434 37.2288C154.331 37.7929 154.667 38.6954 154.667 39.9364C154.667 40.7261 154.443 41.2901 154.107 41.7414C153.77 42.1926 153.21 42.5311 152.538 42.7567V42.8695C152.538 42.8695 153.883 43.4336 154.331 43.9977C154.891 44.5617 155.227 45.2386 155.227 46.0283ZM153.098 39.9364C153.098 39.1467 152.762 38.5826 152.201 38.2441C151.641 37.9057 150.856 37.6801 149.848 37.6801H145.589V42.0798H149.848C149.848 42.0798 151.529 41.8542 152.201 41.5158C152.874 41.1773 153.098 40.7261 153.098 39.9364ZM145.589 43.6592C145.589 43.6592 145.589 43.772 145.589 43.6592V48.1718H150.184C150.184 48.1718 151.081 48.1718 151.417 48.059C151.865 47.9462 152.201 47.8334 152.426 47.6077C152.762 47.3821 152.986 47.1565 153.098 46.9309C153.322 46.5924 153.322 46.254 153.322 45.9155C153.322 45.5771 153.21 45.2386 153.098 45.013C152.986 44.7874 152.762 44.5617 152.426 44.3361C152.201 44.1105 151.865 43.9977 151.417 43.8849C151.081 43.772 150.632 43.772 150.184 43.6592H145.589Z" fill="black"/>
<path d="M174.168 36.3263H174.504L181.117 49.7512H179.436L178.315 47.4949H170.806L169.685 49.7512H168.004L174.168 36.3263ZM174.504 39.4851C174.504 39.4851 174.392 39.4851 174.504 39.4851H174.392L171.59 45.6899L171.478 45.8027H177.53L177.418 45.6899L174.504 39.4851Z" fill="black"/>
<path d="M204.765 48.2846C204.765 48.2846 204.765 48.3974 204.765 48.2846C204.765 48.2846 204.093 48.9615 203.645 49.1871C203.308 49.4127 202.748 49.6384 202.188 49.7512C201.627 49.9768 200.955 49.9768 200.17 49.9768C199.162 49.9768 198.153 49.7512 197.368 49.4127C196.472 49.0743 195.799 48.5102 195.127 47.9461C194.454 47.2693 194.006 46.5924 193.67 45.6899C193.334 44.7873 193.109 43.8848 193.109 42.9823C193.109 41.967 193.334 41.0645 193.67 40.1619C194.006 39.2594 194.454 38.5825 195.127 37.9057C195.799 37.2288 196.472 36.7775 197.368 36.4391C198.265 36.1006 199.162 35.875 200.17 35.875C200.955 35.875 201.627 35.9878 202.188 36.1006C202.748 36.3263 203.196 36.4391 203.645 36.6647C204.093 36.8903 204.429 37.2288 204.765 37.5672L203.869 38.8082C203.869 38.8082 203.308 38.3569 202.86 38.1313C202.524 37.9057 202.188 37.7928 201.739 37.68C201.291 37.5672 200.731 37.4544 200.17 37.4544C199.386 37.4544 198.601 37.5672 197.929 37.9057C197.256 38.2441 196.696 38.5825 196.248 39.1466C195.799 39.7107 195.351 40.2748 195.127 40.9516C194.903 41.6285 194.791 42.3054 194.791 43.0951C194.791 43.8848 194.903 44.5617 195.127 45.2386C195.351 45.9155 195.799 46.4796 196.248 47.0436C196.696 47.6077 197.256 47.9461 197.929 48.2846C198.601 48.623 199.274 48.7358 200.17 48.7358C200.731 48.7358 201.291 48.623 201.739 48.5102C202.188 48.3974 202.636 48.1718 202.86 48.059C203.196 47.8333 203.533 47.6077 203.869 47.2693L204.765 48.2846Z" fill="black"/>
<path d="M220.345 43.659C220.345 43.7718 220.345 43.7718 220.345 43.659L227.854 36.2133H229.647V36.4389L224.268 41.7412L229.647 49.2997V49.5254H227.966L223.259 42.8693L220.457 45.6897V49.5254H219V36.3261H220.457V43.659H220.345Z" fill="black"/>
<path d="M77.4454 6.65601C80.1353 6.65601 82.1527 7.22008 83.6097 8.46104C85.0667 9.702 85.8512 11.507 85.8512 13.7633C85.8512 15.0043 85.6271 16.0196 85.1788 17.0349C84.7305 17.9375 84.1701 18.7272 83.3856 19.404C82.601 20.0809 81.7044 20.5322 80.6957 20.8706C79.5749 21.2091 78.4542 21.3219 77.1092 21.3219H71.7295V27.7523H68.3672V6.76882H77.4454V6.65601ZM81.0319 10.8301C80.1353 10.1533 78.9025 9.81481 77.3334 9.81481H71.8416V18.1631H77.3334C77.3334 18.1631 80.1353 17.8246 81.0319 17.1477C81.9285 16.4709 82.3769 15.3427 82.3769 13.8761C82.3769 12.6352 81.9285 11.507 81.0319 10.8301Z" fill="black"/>
<path d="M97.3955 6.76869C97.3955 6.65588 97.5076 6.65588 97.3955 6.76869H100.87V24.7062H112.414V27.7522H97.5076V6.76869H97.3955Z" fill="black"/>
<path d="M132.027 6.65601L142.675 27.7523H138.752L137.183 24.5935H126.311L124.742 27.7523H120.932L131.355 6.76882H132.027V6.65601ZM131.691 13.0864C131.691 13.0864 131.691 13.1992 131.691 13.0864L127.88 21.3219L127.656 21.6603H135.726L135.614 21.4347L131.915 13.1992H131.691V13.0864Z" fill="black"/>
<path d="M171.142 27.8651C171.03 27.8651 171.03 27.8651 171.142 27.8651L156.572 13.7633V27.8651H153.21V6.7688H154.107L168.565 20.645V6.7688H171.927V27.8651H171.142Z" fill="black"/>
<path d="M188.85 18.84C188.738 18.84 188.738 18.84 188.85 18.84V24.7063H201.291V27.7523H185.376V6.7688H201.291V9.81479H188.85V15.794H199.386V18.7271H188.85V18.84Z" fill="black"/>
<path d="M228.414 6.65601C228.414 6.65601 228.526 6.65601 228.414 6.65601V9.702H221.353V27.6395H217.991V9.81481H210.93V6.76882H228.414V6.65601Z" fill="black"/>
</svg>
