<svg width="64" height="64" viewBox="0 0 64 64" fill="none" xmlns="http://www.w3.org/2000/svg">
<g clip-path="url(#clip0_2512_16168)">
<path d="M10.6667 18.6665C10.6667 17.1998 11.8667 15.9998 13.3333 15.9998H56C57.4667 15.9998 58.6667 14.7998 58.6667 13.3332C58.6667 11.8665 57.4667 10.6665 56 10.6665H10.6667C7.73333 10.6665 5.33333 13.0665 5.33333 15.9998V45.3332H4C1.78667 45.3332 0 47.1198 0 49.3332C0 51.5465 1.78667 53.3332 4 53.3332H37.3333V45.3332H10.6667V18.6665ZM61.3333 21.3332H45.3333C43.8667 21.3332 42.6667 22.5332 42.6667 23.9998V50.6665C42.6667 52.1332 43.8667 53.3332 45.3333 53.3332H61.3333C62.8 53.3332 64 52.1332 64 50.6665V23.9998C64 22.5332 62.8 21.3332 61.3333 21.3332ZM58.6667 45.3332H48V26.6665H58.6667V45.3332Z" fill="#6BB7E6"/>
</g>
<defs>
<clipPath id="clip0_2512_16168">
<rect width="64" height="64" fill="white"/>
</clipPath>
</defs>
</svg>
