<svg width="240" height="240" viewBox="0 0 240 240" fill="none" xmlns="http://www.w3.org/2000/svg">
<path d="M108.993 100.164C98.3693 105.453 94.1959 118.677 99.5075 129.256C104.819 139.835 118.098 143.991 128.722 138.702C139.345 133.412 143.518 120.189 138.207 109.61C132.895 99.0305 119.616 94.8744 108.993 100.164Z" fill="#FCFCFC"/>
<path d="M211.431 109.988C211.051 108.099 209.154 101.298 202.325 105.076C195.875 108.854 196.255 117.544 196.255 118.3C196.634 121.7 196.255 125.478 195.875 128.879C193.599 147.392 184.873 164.772 170.835 177.24C156.797 189.708 138.965 196.509 120.374 196.509C117.718 196.509 114.683 196.509 111.648 196.131C94.1953 194.242 78.6398 186.686 66.4988 174.595C64.2224 171.195 65.3606 168.172 66.1194 166.283C70.6723 160.994 76.3633 154.949 79.0192 152.304C83.1926 147.77 84.3308 145.881 81.675 141.347C79.0192 136.813 75.2251 137.569 69.5341 138.702C66.4988 139.458 58.152 139.836 51.7021 140.591C49.4257 140.591 46.7699 139.08 45.2523 134.546C44.8729 132.657 44.4935 130.768 44.4935 129.257C44.4935 128.501 44.4935 127.745 44.1141 127.368C43.7347 122.456 43.7347 117.544 44.4935 112.632C46.7699 94.1191 55.4961 76.7392 69.5341 64.271C83.572 51.8029 101.404 45.0021 119.995 45.0021C123.03 45.0021 125.686 45.0021 128.721 45.3799C140.862 46.8912 152.623 51.0472 164.385 58.9815C164.764 59.3593 171.973 64.6489 178.802 60.8706C184.493 56.3368 179.94 51.0472 178.802 49.9138C165.144 38.2012 148.071 31.0226 130.239 28.7556C126.824 28.3778 123.409 28 119.995 28C97.6099 28 75.9839 36.3121 58.9108 51.0472C41.8376 66.1602 31.2143 86.9404 28.5585 109.232C26.6615 126.234 29.6967 142.858 36.1466 157.593L45.2523 155.704L52.4609 154.193L57.3932 153.06L53.9785 156.838L48.6669 163.261L42.5964 170.062C57.0138 192.353 81.2956 208.222 109.751 211.244C113.165 211.622 116.58 212 119.995 212C142.38 212 164.005 203.688 181.079 188.953C198.152 173.84 208.775 153.06 211.431 130.768C212.19 123.589 212.19 116.788 211.431 109.988Z" fill="#FCFCFC"/>
</svg>
