<svg width="64" height="64" viewBox="0 0 64 64" fill="none" xmlns="http://www.w3.org/2000/svg">
<path d="M43.067 33.4669C40.9781 31.6002 38.9892 29.778 37.1003 28.0002C35.2114 26.2224 33.5559 24.4891 32.1337 22.8002C30.7114 21.1113 29.5781 19.478 28.7337 17.9002C27.8892 16.3224 27.467 14.8002 27.467 13.3335C27.467 11.0224 28.2448 9.08908 29.8003 7.53353C31.3559 5.97797 33.2892 5.2002 35.6003 5.2002C36.9337 5.2002 38.2559 5.56686 39.567 6.3002C40.8781 7.03353 42.0448 8.02242 43.067 9.26686C44.0892 8.02242 45.2559 7.03353 46.567 6.3002C47.8781 5.56686 49.2003 5.2002 50.5337 5.2002C52.8448 5.2002 54.7781 5.97797 56.3337 7.53353C57.8892 9.08908 58.667 11.0224 58.667 13.3335C58.667 14.8002 58.2448 16.3224 57.4003 17.9002C56.5559 19.478 55.4226 21.1113 54.0003 22.8002C52.5781 24.4891 50.9226 26.2224 49.0337 28.0002C47.1448 29.778 45.1559 31.6002 43.067 33.4669ZM43.067 27.9335C46.0003 25.2669 48.667 22.6224 51.067 20.0002C53.467 17.378 54.667 15.1558 54.667 13.3335C54.667 12.1335 54.2781 11.1446 53.5003 10.3669C52.7225 9.58908 51.7337 9.2002 50.5337 9.2002C49.7781 9.2002 49.0337 9.37797 48.3003 9.73353C47.567 10.0891 46.8225 10.7558 46.067 11.7335L43.067 15.4002L40.067 11.7335C39.3114 10.7558 38.567 10.0891 37.8337 9.73353C37.1003 9.37797 36.3559 9.2002 35.6003 9.2002C34.4003 9.2002 33.4114 9.58908 32.6337 10.3669C31.8559 11.1446 31.467 12.1335 31.467 13.3335C31.467 15.1558 32.667 17.378 35.067 20.0002C37.467 22.6224 40.1337 25.2669 43.067 27.9335ZM37.7337 59.8669L17.0003 53.9335V57.7335H2.66699V31.4669H23.267L40.267 37.8669C41.467 38.3113 42.4781 39.0335 43.3003 40.0335C44.1225 41.0335 44.5337 42.4669 44.5337 44.3335H52.1337C54.0003 44.3335 55.5559 45.0002 56.8003 46.3335C58.0448 47.6669 58.667 49.4669 58.667 51.7335V53.4669L37.7337 59.8669ZM6.66699 53.7335H12.9337V35.4669H6.66699V53.7335ZM37.467 55.7335L54.5337 50.5335C54.267 49.6891 53.9337 49.1113 53.5337 48.8002C53.1337 48.4891 52.667 48.3335 52.1337 48.3335H38.3337C37.0003 48.3335 35.767 48.2446 34.6337 48.0669C33.5003 47.8891 32.4225 47.6446 31.4003 47.3335L26.0003 45.6669L27.467 41.8002L32.3337 43.4002C33.4448 43.7558 34.5003 44.0002 35.5003 44.1335C36.5003 44.2669 38.0892 44.3335 40.267 44.3335C40.267 43.8002 40.167 43.278 39.967 42.7669C39.767 42.2558 39.4226 41.8891 38.9337 41.6669L22.6003 35.4669H17.0003V49.7335L37.467 55.7335Z" fill="#6BB7E6"/>
</svg>
