<svg width="240" height="240" viewBox="0 0 240 240" fill="none" xmlns="http://www.w3.org/2000/svg">
<path fill-rule="evenodd" clip-rule="evenodd" d="M120 40C164.183 40 200 75.8172 200 120C200 164.183 164.183 200 120 200C75.8172 200 40 164.183 40 120C40 75.8172 75.8172 40 120 40ZM120 64.6154C89.4119 64.6154 64.6154 89.4119 64.6154 120C64.6154 150.588 89.4119 175.385 120 175.385C150.588 175.385 175.385 150.588 175.385 120C175.385 89.4119 150.588 64.6154 120 64.6154ZM120.36 97.8462C132.794 97.8462 142.874 107.926 142.874 120.36C142.874 132.794 132.794 142.874 120.36 142.874C107.926 142.874 97.8462 132.794 97.8462 120.36C97.8462 107.926 107.926 97.8462 120.36 97.8462Z" fill="#EFA414"/>
</svg>
