<svg width="240" height="240" viewBox="0 0 240 240" fill="none" xmlns="http://www.w3.org/2000/svg">
<g clip-path="url(#clip0_1199_8703)">
<path fill-rule="evenodd" clip-rule="evenodd" d="M90.3936 32.8738C86.7252 32.8738 82.093 37.4581 82.093 41.0886V119.556C82.093 123.187 86.7252 126.141 90.3936 126.141H113.334C117.002 126.141 121.635 123.187 121.635 119.556V41.0886C121.635 37.4581 117.002 32.8738 113.334 32.8738H90.3936ZM113.334 132.663H90.3936C83.0913 132.663 77.1504 126.783 77.1504 119.556V41.0886C77.1504 33.8617 83.0913 27.9822 90.3936 27.9822H113.334C120.636 27.9822 126.577 33.8617 126.577 41.0886V119.556C126.577 126.783 120.636 132.663 113.334 132.663Z" fill="#78D178"/>
<path fill-rule="evenodd" clip-rule="evenodd" d="M79.4542 203.259C79.4542 207.771 75.7586 211.428 71.1998 211.428C66.641 211.428 62.9453 207.771 62.9453 203.259C62.9453 198.748 66.641 195.09 71.1998 195.09C75.7586 195.09 79.4542 198.748 79.4542 203.259Z" fill="#282828"/>
<path fill-rule="evenodd" clip-rule="evenodd" d="M145.735 203.259C145.735 207.771 142.04 211.428 137.481 211.428C132.922 211.428 129.227 207.771 129.227 203.259C129.227 198.748 132.922 195.09 137.481 195.09C142.04 195.09 145.735 198.748 145.735 203.259Z" fill="#282828"/>
<path fill-rule="evenodd" clip-rule="evenodd" d="M148.321 201.466H49.894C46.0455 201.466 42.9258 198.378 42.9258 194.569V55.4167C42.9258 51.6083 46.0455 48.5208 49.894 48.5208H148.321C152.17 48.5208 155.29 51.6083 155.29 55.4167V194.569C155.29 198.378 152.17 201.466 148.321 201.466Z" fill="#064924"/>
<path fill-rule="evenodd" clip-rule="evenodd" d="M151.948 201.465H56.4858C52.6373 201.465 49.5176 198.378 49.5176 194.569V55.4165C49.5176 51.608 52.6373 48.5205 56.4858 48.5205H151.948C155.796 48.5205 158.916 51.608 158.916 55.4165V194.569C158.916 198.378 155.796 201.465 151.948 201.465Z" fill="#369745"/>
<path fill-rule="evenodd" clip-rule="evenodd" d="M151.948 201.465H56.4858C52.6373 201.465 49.5176 198.378 49.5176 194.569V129.069H158.916V194.569C158.916 198.378 155.796 201.465 151.948 201.465Z" fill="#2E8137"/>
<path fill-rule="evenodd" clip-rule="evenodd" d="M115.692 35.8085H90.012C89.0961 35.8085 88.3535 35.0735 88.3535 34.1671V27.0144C88.3535 26.108 89.0961 25.373 90.012 25.373H115.692C116.608 25.373 117.351 26.108 117.351 27.0144V34.1671C117.351 35.0735 116.608 35.8085 115.692 35.8085Z" fill="#022613"/>
<path fill-rule="evenodd" clip-rule="evenodd" d="M67.9707 201.465H74.561V48.5205H67.9707V201.465Z" fill="#78D178"/>
<path fill-rule="evenodd" clip-rule="evenodd" d="M67.6888 121.47C67.0132 121.47 66.4634 122.018 66.4634 122.69V129.025C66.4634 129.697 67.0132 130.245 67.6888 130.245H74.0502C74.7258 130.245 75.2755 129.697 75.2755 129.025V122.69C75.2755 122.018 74.7258 121.47 74.0502 121.47H67.6888ZM74.0502 132.682H67.6888C65.6635 132.682 64.0156 131.042 64.0156 129.025V122.69C64.0156 120.674 65.6635 119.033 67.6888 119.033H74.0502C76.0757 119.033 77.7234 120.674 77.7234 122.69V129.025C77.7234 131.042 76.0757 132.682 74.0502 132.682Z" fill="#2E662E"/>
<path fill-rule="evenodd" clip-rule="evenodd" d="M134.199 201.465H140.79V48.5205H134.199V201.465Z" fill="#78D178"/>
<path fill-rule="evenodd" clip-rule="evenodd" d="M135.173 121.47C134.498 121.47 133.948 122.018 133.948 122.69V129.025C133.948 129.697 134.498 130.245 135.173 130.245H141.535C142.21 130.245 142.76 129.697 142.76 129.025V122.69C142.76 122.018 142.21 121.47 141.535 121.47H135.173ZM141.535 132.682H135.173C133.148 132.682 131.5 131.042 131.5 129.025V122.69C131.5 120.674 133.148 119.033 135.173 119.033H141.535C143.56 119.033 145.208 120.674 145.208 122.69V129.025C145.208 131.042 143.56 132.682 141.535 132.682Z" fill="#2E662E"/>
<path d="M152.887 107.842C150.577 107.842 147.66 110.746 147.66 113.046V162.746C147.66 165.046 150.577 166.917 152.887 166.917H167.335C169.645 166.917 172.563 165.046 172.563 162.746V113.046C172.563 110.746 169.645 107.842 167.335 107.842H152.887ZM167.335 171.048H152.887C148.288 171.048 144.547 167.324 144.547 162.746V113.046C144.547 108.468 148.288 104.744 152.887 104.744H167.335C171.934 104.744 175.675 108.468 175.675 113.046V162.746C175.675 167.324 171.934 171.048 167.335 171.048Z" fill="#AF3023"/>
<path d="M146.02 209.35C146.02 212.208 143.693 214.525 140.822 214.525C137.951 214.525 135.623 212.208 135.623 209.35C135.623 206.493 137.951 204.176 140.822 204.176C143.693 204.176 146.02 206.493 146.02 209.35Z" fill="#282828"/>
<path d="M187.715 209.35C187.715 212.208 185.388 214.525 182.517 214.525C179.646 214.525 177.318 212.208 177.318 209.35C177.318 206.493 179.646 204.176 182.517 204.176C185.388 204.176 187.715 206.493 187.715 209.35Z" fill="#282828"/>
<path d="M187.206 210.003H127.395C124.37 210.003 121.918 207.563 121.918 204.552V126.965C121.918 119.324 128.141 113.13 135.818 113.13H178.783C186.46 113.13 192.683 119.324 192.683 126.965V204.552C192.683 207.563 190.231 210.003 187.206 210.003Z" fill="#C93B28"/>
<path d="M190.536 210.003H132.592C129.567 210.003 127.115 207.563 127.115 204.552V127.569C127.115 119.594 133.61 113.13 141.622 113.13H181.506C189.518 113.13 196.013 119.594 196.013 127.569V204.552C196.013 207.563 193.561 210.003 190.536 210.003Z" fill="#FF4D29"/>
<mask id="mask0_1199_8703" style="mask-type:alpha" maskUnits="userSpaceOnUse" x="151" y="103" width="19" height="7">
<path d="M151.605 103.092H169.867V109.702H151.605V103.092Z" fill="white"/>
</mask>
<g mask="url(#mask0_1199_8703)">
<path d="M168.564 109.702H152.909C152.189 109.702 151.605 109.121 151.605 108.404V104.389C151.605 103.673 152.189 103.092 152.909 103.092H168.564C169.284 103.092 169.867 103.673 169.867 104.389V108.404C169.867 109.121 169.284 109.702 168.564 109.702Z" fill="#C93B28"/>
</g>
<path d="M186.716 140.583H136.398C135.902 140.583 135.5 140.183 135.5 139.689V138.773C135.5 138.279 135.902 137.879 136.398 137.879H186.716C187.212 137.879 187.614 138.279 187.614 138.773V139.689C187.614 140.183 187.212 140.583 186.716 140.583Z" fill="#AF3023"/>
<path d="M187.219 144.571H185.048C184.334 144.571 183.8 143.918 183.946 143.222L184.712 139.563C184.821 139.043 185.281 138.671 185.814 138.671H186.453C186.986 138.671 187.446 139.043 187.555 139.563L188.321 143.222C188.467 143.918 187.933 144.571 187.219 144.571Z" fill="#AF3023"/>
<path d="M108.277 125.432C102.908 125.432 98.541 129.779 98.541 135.122V136.596C98.541 141.939 102.908 146.285 108.277 146.285C113.645 146.285 118.012 141.939 118.012 136.596V135.122C118.012 129.779 113.645 125.432 108.277 125.432ZM108.277 149.235C101.274 149.235 95.5781 143.565 95.5781 136.596V135.122C95.5781 128.153 101.274 122.483 108.277 122.483C115.279 122.483 120.975 128.153 120.975 135.122V136.596C120.975 143.565 115.279 149.235 108.277 149.235Z" fill="#996600"/>
<path d="M138.381 210.239H76.059C72.6965 210.239 69.9707 207.526 69.9707 204.18V183.439C69.9707 180.092 72.6965 177.379 76.059 177.379H138.381C141.743 177.379 144.469 180.092 144.469 183.439V204.18C144.469 207.526 141.743 210.239 138.381 210.239Z" fill="#996600"/>
<path d="M130.611 215.329H81.4265C78.2635 215.329 75.6992 212.777 75.6992 209.629V156.679C75.6992 143.229 86.6554 132.325 100.17 132.325H111.867C125.382 132.325 136.338 143.229 136.338 156.679V209.629C136.338 212.777 133.774 215.329 130.611 215.329Z" fill="#C18B11"/>
<path d="M83.2985 215.329C81.4842 215.329 80.0137 213.865 80.0137 212.06V156.036C80.0137 142.941 90.6806 132.324 103.839 132.324H115.227C128.385 132.324 139.052 142.941 139.052 156.036V212.06C139.052 213.865 137.582 215.329 135.767 215.329H83.2985Z" fill="#F9C22E"/>
<path d="M131.057 178.596H88.2794C87.7605 178.596 87.3398 178.178 87.3398 177.661V177.214C87.3398 176.698 87.7605 176.279 88.2794 176.279H131.057C131.576 176.279 131.997 176.698 131.997 177.214V177.661C131.997 178.178 131.576 178.596 131.057 178.596Z" fill="#A5720C"/>
<path d="M93.0342 182.013H91.1739C90.562 182.013 90.1047 181.453 90.2297 180.857L90.8859 177.722C90.9792 177.277 91.3733 176.958 91.8301 176.958H92.378C92.8347 176.958 93.2292 177.277 93.3222 177.722L93.9784 180.857C94.1034 181.453 93.6461 182.013 93.0342 182.013Z" fill="#A5720C"/>
<path d="M112.566 183.884H106.664C94.3326 183.884 84.3359 193.833 84.3359 206.107V215.304H134.895V206.107C134.895 193.833 124.898 183.884 112.566 183.884Z" fill="#FBDA82"/>
</g>
<defs>
<clipPath id="clip0_1199_8703">
<rect width="153" height="190" fill="white" transform="translate(43 25)"/>
</clipPath>
</defs>
</svg>
