<svg width="240" height="240" viewBox="0 0 240 240" fill="none" xmlns="http://www.w3.org/2000/svg">
<path fill-rule="evenodd" clip-rule="evenodd" d="M120 220C175.228 220 220 175.228 220 120C220 64.7719 175.228 20 120 20C64.7719 20 20 64.7719 20 120C20 175.228 64.7719 220 120 220ZM120 186.138C168.703 186.138 210.078 156.527 210.078 120C210.078 83.4728 168.703 53.8622 120 53.8622C71.2975 53.8622 29.9225 83.4728 29.9225 120C29.9225 156.527 71.2975 186.138 120 186.138Z" fill="white"/>
<path fill-rule="evenodd" clip-rule="evenodd" d="M72.9015 114.321L154.071 84.258L123.007 165.762L103.967 131.023L72.9015 114.321Z" fill="white"/>
</svg>
