<svg width="64" height="64" viewBox="0 0 64 64" fill="none" xmlns="http://www.w3.org/2000/svg">
<g clip-path="url(#clip0_2512_16240)">
<path d="M23.2006 42.3998L12.8006 31.9998L23.2006 21.5998C24.2406 20.5598 24.2406 18.9064 23.2006 17.8664C22.1606 16.8264 20.5073 16.8264 19.4673 17.8664L7.22727 30.1064C6.18727 31.1464 6.18727 32.8264 7.22727 33.8664L19.4673 46.1331C20.5073 47.1731 22.1606 47.1731 23.2006 46.1331C24.2406 45.0931 24.2406 43.4398 23.2006 42.3998ZM40.8006 42.3998L51.2006 31.9998L40.8006 21.5998C39.7606 20.5598 39.7606 18.9064 40.8006 17.8664C41.8406 16.8264 43.4939 16.8264 44.5339 17.8664L56.7739 30.1064C57.8139 31.1464 57.8139 32.8264 56.7739 33.8664L44.5339 46.1331C43.4939 47.1731 41.8406 47.1731 40.8006 46.1331C39.7606 45.0931 39.7606 43.4398 40.8006 42.3998Z" fill="#5B96CD"/>
</g>
<defs>
<clipPath id="clip0_2512_16240">
<rect width="64" height="64" fill="white"/>
</clipPath>
</defs>
</svg>
