<svg width="64" height="64" viewBox="0 0 64 64" fill="none" xmlns="http://www.w3.org/2000/svg">
<path d="M29.1327 58.6667C28.066 58.6667 27.1327 58.2778 26.3327 57.5C25.5327 56.7222 25.1327 55.7778 25.1327 54.6667V41.3333H14.666C13.5993 41.3333 12.666 40.9333 11.866 40.1333C11.066 39.3333 10.666 38.4 10.666 37.3333V17.1333C10.666 14.6889 11.5438 12.5556 13.2993 10.7333C15.0549 8.91111 17.1771 8 19.666 8H53.3327V37.3333C53.3327 38.4 52.9327 39.3333 52.1327 40.1333C51.3327 40.9333 50.3993 41.3333 49.3327 41.3333H38.866V54.6667C38.866 55.7778 38.466 56.7222 37.666 57.5C36.866 58.2778 35.9327 58.6667 34.866 58.6667H29.1327ZM14.666 27.0667H49.3327V12H45.5993V23.4H41.5993V12H36.866V17.6667H32.866V12H19.666C18.2438 12 17.0549 12.5111 16.0993 13.5333C15.1438 14.5556 14.666 15.7556 14.666 17.1333V27.0667ZM14.666 37.3333H49.3327V31.0667H14.666V37.3333ZM14.666 31.0667V37.3333V31.0667Z" fill="#5B96CD"/>
</svg>
