<svg width="64" height="64" viewBox="0 0 64 64" fill="none" xmlns="http://www.w3.org/2000/svg">
<path d="M53.334 10.6665H10.6673C7.73398 10.6665 5.36065 13.0665 5.36065 15.9998L5.33398 47.9998C5.33398 50.9332 7.73398 53.3332 10.6673 53.3332H53.334C56.2673 53.3332 58.6673 50.9332 58.6673 47.9998V15.9998C58.6673 13.0665 56.2673 10.6665 53.334 10.6665ZM10.6673 23.9998H38.6673V33.3332H10.6673V23.9998ZM10.6673 38.6665H38.6673V47.9998H13.334C11.8673 47.9998 10.6673 46.7998 10.6673 45.3332V38.6665ZM50.6673 47.9998H44.0007V23.9998H53.334V45.3332C53.334 46.7998 52.134 47.9998 50.6673 47.9998Z" fill="#5B96CD"/>
</svg>
