<svg width="160" height="160" viewBox="0 0 160 160" fill="none" xmlns="http://www.w3.org/2000/svg">
<g clip-path="url(#clip0_1199_7771)">
<path d="M142 139C142 142.314 114.242 145 80 145C45.7583 145 18 142.314 18 139C18 135.686 45.7583 133 80 133C114.242 133 142 135.686 142 139Z" fill="#E1E1E1"/>
<path fill-rule="evenodd" clip-rule="evenodd" d="M60.0836 20.142C57.5733 20.142 54.4036 23.2848 54.4036 25.7738V79.5679C54.4036 82.0568 57.5733 84.0818 60.0836 84.0818H75.7812C78.2913 84.0818 81.4611 82.0568 81.4611 79.5679V25.7738C81.4611 23.2848 78.2913 20.142 75.7812 20.142H60.0836ZM75.7812 88.5531H60.0836C55.0867 88.5531 51.0215 84.5223 51.0215 79.5679V25.7738C51.0215 20.8193 55.0867 16.7886 60.0836 16.7886H75.7812C80.7781 16.7886 84.8433 20.8193 84.8433 25.7738V79.5679C84.8433 84.5223 80.7781 88.5531 75.7812 88.5531Z" fill="#78D178"/>
<path fill-rule="evenodd" clip-rule="evenodd" d="M52.5975 132.485C52.5975 135.578 50.0686 138.085 46.9491 138.085C43.8296 138.085 41.3008 135.578 41.3008 132.485C41.3008 129.392 43.8296 126.885 46.9491 126.885C50.0686 126.885 52.5975 129.392 52.5975 132.485Z" fill="#282828"/>
<path fill-rule="evenodd" clip-rule="evenodd" d="M97.951 132.485C97.951 135.578 95.4221 138.085 92.3026 138.085C89.1832 138.085 86.6543 135.578 86.6543 132.485C86.6543 129.392 89.1832 126.885 92.3026 126.885C95.4221 126.885 97.951 129.392 97.951 132.485Z" fill="#282828"/>
<path fill-rule="evenodd" clip-rule="evenodd" d="M99.7215 131.255H32.3697C29.7363 131.255 27.6016 129.139 27.6016 126.528V31.1307C27.6016 28.5198 29.7363 26.4031 32.3697 26.4031H99.7215C102.355 26.4031 104.49 28.5198 104.49 31.1307V126.528C104.49 129.139 102.355 131.255 99.7215 131.255Z" fill="#064924"/>
<path fill-rule="evenodd" clip-rule="evenodd" d="M102.202 131.255H36.8795C34.2461 131.255 32.1113 129.139 32.1113 126.528V31.1307C32.1113 28.5198 34.2461 26.4031 36.8795 26.4031H102.202C104.835 26.4031 106.97 28.5198 106.97 31.1307V126.528C106.97 129.139 104.835 131.255 102.202 131.255Z" fill="#3EAB4E"/>
<path fill-rule="evenodd" clip-rule="evenodd" d="M102.202 131.255H36.8795C34.2461 131.255 32.1113 129.139 32.1113 126.528V81.6238H106.97V126.528C106.97 129.139 104.835 131.255 102.202 131.255Z" fill="#389B43"/>
<path fill-rule="evenodd" clip-rule="evenodd" d="M64.9703 45.759C46.5748 45.759 31.6621 57.1553 31.6621 71.2133V81.7489H107.082V71.2133C107.082 57.1553 92.1697 45.759 73.7742 45.759H64.9703Z" fill="#57B665"/>
<path d="M76.0253 49.5732C76.0253 53.5485 72.7846 56.7712 68.787 56.7712C64.7894 56.7712 61.5488 53.5485 61.5488 49.5732C61.5488 45.5979 64.7894 42.3752 68.787 42.3752C72.7846 42.3752 76.0253 45.5979 76.0253 49.5732Z" fill="#2E662E"/>
<path fill-rule="evenodd" clip-rule="evenodd" d="M77.3947 22.1541H59.8224C59.1956 22.1541 58.6875 21.6502 58.6875 21.0288V16.1252C58.6875 15.5038 59.1956 15 59.8224 15H77.3947C78.0215 15 78.5296 15.5038 78.5296 16.1252V21.0288C78.5296 21.6502 78.0215 22.1541 77.3947 22.1541Z" fill="#022613"/>
<path fill-rule="evenodd" clip-rule="evenodd" d="M44.7383 131.255H49.2479V26.4031H44.7383V131.255Z" fill="#78D178"/>
<path fill-rule="evenodd" clip-rule="evenodd" d="M44.5467 76.4141C44.0844 76.4141 43.7082 76.7894 43.7082 77.2506V81.5931C43.7082 82.0543 44.0844 82.4296 44.5467 82.4296H48.8996C49.3619 82.4296 49.7381 82.0543 49.7381 81.5931V77.2506C49.7381 76.7894 49.3619 76.4141 48.8996 76.4141H44.5467ZM48.8996 84.1005H44.5467C43.1608 84.1005 42.0332 82.9758 42.0332 81.5931V77.2506C42.0332 75.8679 43.1608 74.7432 44.5467 74.7432H48.8996C50.2857 74.7432 51.4131 75.8679 51.4131 77.2506V81.5931C51.4131 82.9758 50.2857 84.1005 48.8996 84.1005Z" fill="#2E662E"/>
<path fill-rule="evenodd" clip-rule="evenodd" d="M90.0586 131.255H94.5682V26.4031H90.0586V131.255Z" fill="#78D178"/>
<path fill-rule="evenodd" clip-rule="evenodd" d="M90.7244 76.4141C90.2621 76.4141 89.8859 76.7894 89.8859 77.2506V81.5931C89.8859 82.0543 90.2621 82.4296 90.7244 82.4296H95.0774C95.5397 82.4296 95.9159 82.0543 95.9159 81.5931V77.2506C95.9159 76.7894 95.5397 76.4141 95.0774 76.4141H90.7244ZM95.0774 84.1005H90.7244C89.3385 84.1005 88.2109 82.9758 88.2109 81.5931V77.2506C88.2109 75.8679 89.3385 74.7432 90.7244 74.7432H95.0774C96.4634 74.7432 97.5908 75.8679 97.5908 77.2506V81.5931C97.5908 82.9758 96.4634 84.1005 95.0774 84.1005Z" fill="#2E662E"/>
<path d="M102.846 67.0716C101.265 67.0716 99.2687 69.0622 99.2687 70.6387V104.711C99.2687 106.288 101.265 107.57 102.846 107.57H112.732C114.313 107.57 116.309 106.288 116.309 104.711V70.6387C116.309 69.0622 114.313 67.0716 112.732 67.0716H102.846ZM112.732 110.402H102.846C99.699 110.402 97.1387 107.849 97.1387 104.711V70.6387C97.1387 67.5005 99.699 64.9475 102.846 64.9475H112.732C115.879 64.9475 118.439 67.5005 118.439 70.6387V104.711C118.439 107.849 115.879 110.402 112.732 110.402Z" fill="#E2E2E2"/>
<path d="M98.1477 136.661C98.1477 138.62 96.5551 140.208 94.5905 140.208C92.6258 140.208 91.0332 138.62 91.0332 136.661C91.0332 134.702 92.6258 133.114 94.5905 133.114C96.5551 133.114 98.1477 134.702 98.1477 136.661Z" fill="#B7B7B7"/>
<path d="M126.677 136.661C126.677 138.62 125.084 140.208 123.12 140.208C121.155 140.208 119.562 138.62 119.562 136.661C119.562 134.702 121.155 133.114 123.12 133.114C125.084 133.114 126.677 134.702 126.677 136.661Z" fill="#B7B7B7"/>
<path d="M126.33 137.109H85.4019C83.3322 137.109 81.6543 135.435 81.6543 133.371V80.181C81.6543 74.9428 85.9127 70.6963 91.1658 70.6963H120.566C125.819 70.6963 130.077 74.9428 130.077 80.181V133.371C130.077 135.435 128.4 137.109 126.33 137.109Z" fill="#C93B28"/>
<path d="M128.608 137.109H88.9587C86.8889 137.109 85.2109 135.435 85.2109 133.371V80.5949C85.2109 75.1281 89.6552 70.6963 95.1375 70.6963H122.43C127.912 70.6963 132.356 75.1281 132.356 80.5949V133.371C132.356 135.435 130.678 137.109 128.608 137.109Z" fill="#FF4D29"/>
<mask id="mask0_1199_7771" style="mask-type:alpha" maskUnits="userSpaceOnUse" x="101" y="63" width="14" height="6">
<path d="M101.969 63.8147H114.465V68.346H101.969V63.8147Z" fill="white"/>
</mask>
<g mask="url(#mask0_1199_7771)">
<path d="M113.573 68.3461H102.861C102.368 68.3461 101.969 67.9478 101.969 67.4566V64.7043C101.969 64.213 102.368 63.8147 102.861 63.8147H113.573C114.066 63.8147 114.465 64.213 114.465 64.7043V67.4566C114.465 67.9478 114.066 68.3461 113.573 68.3461Z" fill="#C93B28"/>
</g>
<path d="M125.995 89.517H91.564C91.2244 89.517 90.9492 89.2425 90.9492 88.9039V88.2761C90.9492 87.9376 91.2244 87.6631 91.564 87.6631H125.995C126.335 87.6631 126.61 87.9376 126.61 88.2761V88.9039C126.61 89.2425 126.335 89.517 125.995 89.517Z" fill="#AF3023"/>
<path d="M126.338 92.251H124.853C124.364 92.251 123.999 91.8033 124.099 91.3262L124.623 88.8177C124.697 88.4616 125.012 88.2063 125.377 88.2063H125.814C126.179 88.2063 126.494 88.4616 126.568 88.8177L127.092 91.3262C127.192 91.8033 126.827 92.251 126.338 92.251Z" fill="#E5E5E5"/>
<path d="M117.683 107.934C117.683 113.132 113.457 117.347 108.244 117.347C103.031 117.347 98.8047 113.132 98.8047 107.934C98.8047 102.736 103.031 98.5215 108.244 98.5215C113.457 98.5215 117.683 102.736 117.683 107.934Z" fill="#FF6B4D"/>
<path d="M72.3202 82.1077C68.6468 82.1077 65.6583 85.0875 65.6583 88.7502V89.761C65.6583 93.4238 68.6468 96.4036 72.3202 96.4036C75.9935 96.4036 78.982 93.4238 78.982 89.761V88.7502C78.982 85.0875 75.9935 82.1077 72.3202 82.1077ZM72.3202 98.4253C67.5288 98.4253 63.6309 94.5385 63.6309 89.761V88.7502C63.6309 83.9727 67.5288 80.0859 72.3202 80.0859C77.1115 80.0859 81.0096 83.9727 81.0096 88.7502V89.761C81.0096 94.5385 77.1115 98.4253 72.3202 98.4253Z" fill="#442C02"/>
<path d="M92.9191 137.27H50.2735C47.9726 137.27 46.1074 135.41 46.1074 133.116V118.897C46.1074 116.603 47.9726 114.743 50.2735 114.743H92.9191C95.22 114.743 97.0852 116.603 97.0852 118.897V133.116C97.0852 135.41 95.22 137.27 92.9191 137.27Z" fill="#996600"/>
<path d="M87.6023 140.76H53.9464C51.782 140.76 50.0273 139.01 50.0273 136.852V100.552C50.0273 91.3307 57.5245 83.8555 66.7725 83.8555H74.7762C84.0243 83.8555 91.5214 91.3307 91.5214 100.552V136.852C91.5214 139.01 89.7667 140.76 87.6023 140.76Z" fill="#C18B11"/>
<path d="M55.2282 140.76C53.9867 140.76 52.9805 139.756 52.9805 138.518V100.111C52.9805 91.1335 60.2797 83.8555 69.2835 83.8555H77.0761C86.0802 83.8555 93.3792 91.1335 93.3792 100.111V138.518C93.3792 139.756 92.3729 140.76 91.1315 140.76H55.2282Z" fill="#F9C22E"/>
<path d="M87.907 115.577H58.6351C58.28 115.577 57.9922 115.29 57.9922 114.936V114.63C57.9922 114.276 58.28 113.989 58.6351 113.989H87.907C88.2621 113.989 88.5499 114.276 88.5499 114.63V114.936C88.5499 115.29 88.2621 115.577 87.907 115.577Z" fill="#A5720C"/>
<path d="M61.8883 117.92H60.6153C60.1966 117.92 59.8837 117.536 59.9692 117.127L60.4183 114.978C60.4821 114.673 60.7518 114.454 61.0644 114.454H61.4393C61.7518 114.454 62.0217 114.673 62.0854 114.978L62.5344 117.127C62.6199 117.536 62.307 117.92 61.8883 117.92Z" fill="#E5E5E5"/>
<path d="M75.2548 119.203H71.2164C62.778 119.203 55.9375 126.023 55.9375 134.437V140.743H90.5337V134.437C90.5337 126.023 83.693 119.203 75.2548 119.203Z" fill="#FBDA82"/>
<path d="M76.9546 100.158C76.9546 102.232 75.2689 103.913 73.1893 103.913C71.1097 103.913 69.4238 102.232 69.4238 100.158C69.4238 98.0847 71.1097 96.4038 73.1893 96.4038C75.2689 96.4038 76.9546 98.0847 76.9546 100.158Z" fill="#FBDA82"/>
</g>
<defs>
<clipPath id="clip0_1199_7771">
<rect width="124" height="131" fill="white" transform="translate(18 14)"/>
</clipPath>
</defs>
</svg>
