<svg width="64" height="64" viewBox="0 0 64 64" fill="none" xmlns="http://www.w3.org/2000/svg">
<path d="M27.133 42.3334C28.1552 43.3556 29.633 43.8334 31.5663 43.7667C33.4997 43.7001 34.9108 42.9778 35.7997 41.6001L50.1997 19.0001L27.8663 33.6001C26.533 34.489 25.8219 35.9112 25.733 37.8667C25.6441 39.8223 26.1108 41.3112 27.133 42.3334V42.3334ZM31.8663 10.7334C34.3997 10.7334 37.0441 11.1445 39.7997 11.9667C42.5552 12.789 45.1997 14.2001 47.733 16.2001L44.2663 18.6667C42.2663 17.3334 40.1219 16.3445 37.833 15.7001C35.5441 15.0556 33.5552 14.7334 31.8663 14.7334C25.6441 14.7334 20.333 16.9556 15.933 21.4001C11.533 25.8445 9.33301 31.2445 9.33301 37.6001C9.33301 39.6001 9.61079 41.6223 10.1663 43.6667C10.7219 45.7112 11.5108 47.6001 12.533 49.3334H51.133C52.1108 47.7334 52.8886 45.8667 53.4663 43.7334C54.0441 41.6001 54.333 39.5112 54.333 37.4667C54.333 35.6001 54.0552 33.589 53.4997 31.4334C52.9441 29.2778 51.9552 27.289 50.533 25.4667L53.133 22.0001C54.8219 24.489 56.0886 26.989 56.933 29.5001C57.7775 32.0112 58.2441 34.5334 58.333 37.0667C58.4219 39.7334 58.1552 42.2445 57.533 44.6001C56.9108 46.9556 55.9997 49.1334 54.7997 51.1334C54.2663 52.1556 53.6997 52.7778 53.0997 53.0001C52.4997 53.2223 51.7552 53.3334 50.8663 53.3334H12.7997C12.0441 53.3334 11.2997 53.1445 10.5663 52.7667C9.83301 52.389 9.28856 51.8445 8.93301 51.1334C7.77745 49.0001 6.88856 46.8334 6.26634 44.6334C5.64412 42.4334 5.33301 40.089 5.33301 37.6001C5.33301 33.9112 6.03301 30.4334 7.43301 27.1667C8.83301 23.9001 10.733 21.0556 13.133 18.6334C15.533 16.2112 18.3441 14.289 21.5663 12.8667C24.7886 11.4445 28.2219 10.7334 31.8663 10.7334V10.7334Z" fill="#000000"/>
</svg>
