<svg width="64" height="64" viewBox="0 0 64 64" fill="none" xmlns="http://www.w3.org/2000/svg">
<g clip-path="url(#clip0_2512_16124)">
<path d="M53.334 7.99984H50.6673V5.33317C50.6673 3.8665 49.4673 2.6665 48.0007 2.6665C46.534 2.6665 45.334 3.8665 45.334 5.33317V7.99984H18.6673V5.33317C18.6673 3.8665 17.4673 2.6665 16.0007 2.6665C14.534 2.6665 13.334 3.8665 13.334 5.33317V7.99984H10.6673C7.73398 7.99984 5.33398 10.3998 5.33398 13.3332V55.9998C5.33398 58.9332 7.73398 61.3332 10.6673 61.3332H53.334C56.2673 61.3332 58.6673 58.9332 58.6673 55.9998V13.3332C58.6673 10.3998 56.2673 7.99984 53.334 7.99984ZM50.6673 55.9998H13.334C11.8673 55.9998 10.6673 54.7998 10.6673 53.3332V21.3332H53.334V53.3332C53.334 54.7998 52.134 55.9998 50.6673 55.9998Z" fill="#DA3440"/>
</g>
<defs>
<clipPath id="clip0_2512_16124">
<rect width="64" height="64" fill="white"/>
</clipPath>
</defs>
</svg>
