<svg width="240" height="240" viewBox="0 0 240 240" fill="none" xmlns="http://www.w3.org/2000/svg">
<path fill-rule="evenodd" clip-rule="evenodd" d="M131.74 31.2955C105.895 36.1938 85.6302 55.407 79.1874 81.1207C77.0605 89.6118 77.068 103.646 79.2044 112.178C80.8761 118.854 84.7102 127.55 88.4856 133.228C91.889 138.347 96.3657 143.303 97.1487 142.82C97.5079 142.598 96.5545 141.067 95.0306 139.417C88.4536 132.294 82.9335 121.604 80.2123 110.722C78.4432 103.647 78.6204 88.8254 80.5674 81.0506C86.356 57.9324 104.248 39.92 127.724 33.5752C132.561 32.2677 135.203 32.0098 143.739 32.0098C152.274 32.0098 154.917 32.2677 159.754 33.5752C169.806 36.2918 181.915 42.8175 186.961 48.2377C187.871 49.2133 189.08 50.012 189.651 50.012C191.367 50.012 186.514 45.4844 180.504 41.4786C174.172 37.2572 167.795 34.3971 160.079 32.32C152.951 30.4008 139.103 29.9008 131.74 31.2955ZM132.628 44.2482C116.152 47.8193 102.918 58.2718 95.6106 73.4833C91.5912 81.852 90.6091 86.3912 90.6057 96.6144C90.6037 103.804 90.8954 106.476 92.1657 110.901C94.1515 117.822 98.1648 125.275 103.082 131.176C108.797 138.033 109.316 139.023 109.32 143.074C109.327 150.016 104.826 155.114 98.0162 155.876C95.2937 156.181 94.0439 155.928 91.2974 154.519C87.5997 152.622 86.2135 152.776 88.885 154.787C95.244 159.575 105.754 157.041 109.225 149.883C110.767 146.704 111.175 141.171 110.079 138.329C109.745 137.463 107.432 134.311 104.938 131.325C95.0961 119.537 91.0078 107.877 91.8222 93.921C92.3047 85.6537 93.5804 80.671 97.0533 73.4833C103.247 60.6673 114.762 50.9678 129.087 46.5028C136.512 44.1884 150.966 44.1884 158.391 46.5028C165.071 48.5853 171.377 51.9217 176.591 56.1342C178.906 58.0045 180.968 59.2631 181.174 58.9311C181.379 58.5998 180.247 57.2663 178.658 55.9682C171.518 50.1358 163.035 46.0178 154.399 44.1904C148.745 42.9937 138.286 43.0216 132.628 44.2482ZM135.269 57.8262C127.489 59.5917 121.318 63.043 115.469 68.902C106.888 77.4965 103.431 86.5129 104.062 98.6513C104.612 109.241 107.795 116.533 115.788 125.518C117.589 127.542 119.861 130.899 120.838 132.976C122.36 136.218 122.613 137.674 122.613 143.231C122.613 149.174 122.429 150.082 120.381 154.233C113.281 168.632 95.6971 173.289 82.4872 164.269C78.2476 161.374 76.2188 161.227 79.6787 164.065C91.9183 174.106 110.594 171.514 119.54 158.532C123.965 152.113 125.416 143.122 123.229 135.687C121.88 131.1 120.353 128.58 115.694 123.248C108.683 115.223 105.235 106.442 105.235 96.6144C105.235 86.1871 109.088 76.957 116.549 69.5081C130.305 55.7757 151.114 54.5287 167.132 66.4759C170.424 68.9319 172.119 69.5109 171.075 67.8236C170.005 66.0956 160.868 60.6748 156.428 59.1331C150.131 56.9472 141.495 56.4139 135.269 57.8262ZM135.415 70.6899C122.728 74.8174 114.565 88.0552 116.801 100.874C117.843 106.849 119.444 109.98 124.623 116.175C129.911 122.499 131.953 125.892 133.731 131.311C135.71 137.345 136.112 143.331 134.972 149.783C133.593 157.579 130.589 163.44 124.917 169.401C117.21 177.501 108.331 181.315 97.1821 181.315C87.7401 181.315 80.4931 178.838 73.2802 173.147C71.3046 171.588 69.4823 170.521 69.2315 170.775C68.5228 171.493 73.7511 175.605 78.6565 178.187C84.5637 181.297 90.2548 182.676 97.1821 182.676C108.47 182.676 117.094 179.116 125.06 171.169C131.633 164.611 134.852 158.43 136.368 149.454C138.429 137.254 135.101 126.611 125.698 115.323C119.601 108.005 117.938 103.98 117.969 96.6144C117.999 89.4608 119.847 84.6175 124.474 79.5627C129.314 74.2766 134.667 71.6559 141.458 71.2484C148.185 70.8443 152.589 71.9335 157.786 75.2875C160.079 76.7666 162.144 77.7864 162.377 77.5544C163.036 76.8972 159.845 74.6167 154.983 72.2696C151.186 70.4375 149.678 70.1048 144.42 69.9435C140.569 69.8258 137.218 70.1034 135.415 70.6899ZM137.404 84.078C130.852 87.4001 128.022 95.4334 131.056 102.101C131.748 103.621 133.965 106.723 135.982 108.992C140.875 114.498 143.806 119.52 146.322 126.711C149.028 134.441 149.674 146.176 147.856 154.558C145.607 164.921 138.3 176.99 130.349 183.473C111.199 199.083 83.3431 199.321 64.4509 184.035C60.4049 180.761 58.2268 179.895 60.2938 182.381C63.6447 186.412 75.5326 192.955 83.3288 195.061C90.3216 196.949 102.873 197.08 109.664 195.337C133.777 189.148 150.197 168.167 150.191 143.557C150.188 129.526 145.825 117.941 136.668 107.636C132.557 103.012 131.131 100.173 131.131 96.6144C131.131 93.8775 132.65 89.8186 134.394 87.8926C138.027 83.8821 145.113 82.8841 150.031 85.6911C153.616 87.7375 154.574 86.7681 151.091 84.6196C147.416 82.352 141.285 82.1098 137.404 84.078ZM143.398 97.3247C143.398 97.5281 144.885 99.4779 146.703 101.658C152.951 109.154 157.462 117.959 160.18 127.967C161.202 131.73 161.447 134.919 161.402 143.897C161.352 154.031 161.169 155.704 159.523 161.101C155.905 172.966 150.481 181.698 141.217 190.569C128.993 202.277 114.433 208.028 97.0567 208.013C80.7923 207.999 68.167 203.497 55.308 193.125C50.3134 189.096 47.8328 188.68 52.4192 192.64C70.3941 208.16 93.4598 213.255 116.136 206.716C135.81 201.042 152.768 184.784 159.475 165.166C162.532 156.225 163.4 150.01 162.968 140.155C162.3 124.946 157.364 112.349 147.306 100.186C144.948 97.3335 143.398 96.1994 143.398 97.3247Z" fill="white"/>
</svg>
