<svg width="64" height="64" viewBox="0 0 64 64" fill="none" xmlns="http://www.w3.org/2000/svg">
<g clip-path="url(#clip0_2512_16222)">
<path d="M23.4395 24.6398V14.6665C23.4395 10.9865 26.4262 7.99984 30.1062 7.99984C33.7862 7.99984 36.7728 10.9865 36.7728 14.6665V24.6398C39.9995 22.4798 42.1062 18.8265 42.1062 14.6665C42.1062 8.0265 36.7462 2.6665 30.1062 2.6665C23.4662 2.6665 18.1062 8.0265 18.1062 14.6665C18.1062 18.8265 20.2128 22.4798 23.4395 24.6398ZM38.1062 31.2265C37.3595 30.8532 36.5595 30.6665 35.7328 30.6665H34.1062V14.6665C34.1062 12.4532 32.3195 10.6665 30.1062 10.6665C27.8928 10.6665 26.1062 12.4532 26.1062 14.6665V43.3065L16.9328 41.3865C15.9462 41.1732 14.9062 41.4932 14.1862 42.2132C13.0395 43.3865 13.0395 45.2532 14.1862 46.4265L24.8795 57.1198C25.8928 58.1065 27.2528 58.6665 28.6662 58.6665H44.9328C47.5995 58.6665 49.8395 56.7198 50.2128 54.0798L51.8928 42.1598C52.2128 39.8932 51.0395 37.6532 48.9862 36.6398L38.1062 31.2265Z" fill="#DA3440"/>
</g>
<defs>
<clipPath id="clip0_2512_16222">
<rect width="64" height="64" fill="white"/>
</clipPath>
</defs>
</svg>
