<svg width="64" height="64" viewBox="0 0 64 64" fill="none" xmlns="http://www.w3.org/2000/svg">
<path d="M29.866 52.8665L15.1993 44.2665C14.5771 43.9109 14.0993 43.4221 13.766 42.7998C13.4327 42.1776 13.266 41.5109 13.266 40.7998V23.6665C13.266 22.9554 13.4327 22.2887 13.766 21.6665C14.0993 21.0443 14.5771 20.5554 15.1993 20.1998L29.9327 11.4665C30.5549 11.1109 31.2438 10.9332 31.9993 10.9332C32.7549 10.9332 33.4438 11.1109 34.066 11.4665L48.7993 20.1998C49.4216 20.5554 49.8993 21.0443 50.2327 21.6665C50.566 22.2887 50.7327 22.9554 50.7327 23.6665V40.7998C50.7327 41.5109 50.5549 42.1776 50.1993 42.7998C49.8438 43.4221 49.3549 43.9109 48.7327 44.2665L33.866 52.8665C33.2438 53.2221 32.5771 53.3998 31.866 53.3998C31.1549 53.3998 30.4882 53.2221 29.866 52.8665ZM29.9993 48.2665V33.3332L17.3327 26.0665V40.6665L29.9993 48.2665ZM33.9993 48.2665L46.7327 40.6665V26.0665L33.9993 33.3332V48.2665ZM2.66602 15.2665V10.1332C2.66602 8.04428 3.38824 6.27761 4.83268 4.83317C6.27713 3.38873 8.04379 2.6665 10.1327 2.6665H15.266V6.6665H10.1327C9.1549 6.6665 8.33268 6.99984 7.66602 7.6665C6.99935 8.33317 6.66602 9.15539 6.66602 10.1332V15.2665H2.66602ZM10.1327 61.3332C8.04379 61.3332 6.27713 60.6109 4.83268 59.1665C3.38824 57.7221 2.66602 55.9554 2.66602 53.8665V48.7332H6.66602V53.8665C6.66602 54.8443 6.99935 55.6665 7.66602 56.3332C8.33268 56.9998 9.1549 57.3332 10.1327 57.3332H15.266V61.3332H10.1327ZM48.7327 61.0665V57.0665H53.866C54.8438 57.0665 55.666 56.7332 56.3327 56.0665C56.9993 55.3998 57.3327 54.5776 57.3327 53.5998V48.4665H61.3327V53.5998C61.3327 55.6887 60.6105 57.4554 59.166 58.8998C57.7216 60.3443 55.9549 61.0665 53.866 61.0665H48.7327ZM57.3327 15.2665V10.1332C57.3327 9.15539 56.9993 8.33317 56.3327 7.6665C55.666 6.99984 54.8438 6.6665 53.866 6.6665H48.7327V2.6665H53.866C55.9549 2.6665 57.7216 3.38873 59.166 4.83317C60.6105 6.27761 61.3327 8.04428 61.3327 10.1332V15.2665H57.3327ZM31.9993 29.7332L44.666 22.3998L31.9993 15.1332L19.3327 22.3998L31.9993 29.7332Z" fill="#DA3440"/>
</svg>
