<svg width="64" height="64" viewBox="0 0 64 64" fill="none" xmlns="http://www.w3.org/2000/svg">
<path d="M45.3333 28V18.6667C45.3333 17.2 44.1333 16 42.6667 16H10.6667C9.2 16 8 17.2 8 18.6667V45.3333C8 46.8 9.2 48 10.6667 48H42.6667C44.1333 48 45.3333 46.8 45.3333 45.3333V36L51.44 42.1067C53.12 43.7867 56 42.5867 56 40.2133V23.76C56 21.3867 53.12 20.1867 51.44 21.8667L45.3333 28ZM34.6667 34.6667H29.3333V40C29.3333 41.4667 28.1333 42.6667 26.6667 42.6667C25.2 42.6667 24 41.4667 24 40V34.6667H18.6667C17.2 34.6667 16 33.4667 16 32C16 30.5333 17.2 29.3333 18.6667 29.3333H24V24C24 22.5333 25.2 21.3333 26.6667 21.3333C28.1333 21.3333 29.3333 22.5333 29.3333 24V29.3333H34.6667C36.1333 29.3333 37.3333 30.5333 37.3333 32C37.3333 33.4667 36.1333 34.6667 34.6667 34.6667Z" fill="#DA3440"/>
</svg>
