<svg width="64" height="64" viewBox="0 0 64 64" fill="none" xmlns="http://www.w3.org/2000/svg">
<g clip-path="url(#clip0_2525_17035)">
<path d="M29.3327 48.0002H37.3327C38.7993 48.0002 39.9993 46.8002 39.9993 45.3335V34.6668C39.9993 33.2002 38.7993 32.0002 37.3327 32.0002H29.3327C27.866 32.0002 26.666 33.2002 26.666 34.6668V45.3335C26.666 46.8002 27.866 48.0002 29.3327 48.0002ZM13.3327 48.0002H21.3327C22.7993 48.0002 23.9993 46.8002 23.9993 45.3335V16.0002C23.9993 14.5335 22.7993 13.3335 21.3327 13.3335H13.3327C11.866 13.3335 10.666 14.5335 10.666 16.0002V45.3335C10.666 46.8002 11.866 48.0002 13.3327 48.0002ZM45.3327 48.0002H53.3327C54.7993 48.0002 55.9993 46.8002 55.9993 45.3335V34.6668C55.9993 33.2002 54.7993 32.0002 53.3327 32.0002H45.3327C43.866 32.0002 42.666 33.2002 42.666 34.6668V45.3335C42.666 46.8002 43.866 48.0002 45.3327 48.0002ZM26.666 16.0002V26.6668C26.666 28.1335 27.866 29.3335 29.3327 29.3335H53.3327C54.7993 29.3335 55.9993 28.1335 55.9993 26.6668V16.0002C55.9993 14.5335 54.7993 13.3335 53.3327 13.3335H29.3327C27.866 13.3335 26.666 14.5335 26.666 16.0002Z" fill="#DA3440"/>
</g>
<defs>
<clipPath id="clip0_2525_17035">
<rect width="64" height="64" fill="white"/>
</clipPath>
</defs>
</svg>
