<svg width="240" height="240" viewBox="0 0 240 240" fill="none" xmlns="http://www.w3.org/2000/svg">
<path d="M208.494 194.062L173.938 159.608C185.087 145.404 191.137 127.864 191.114 109.807C191.114 93.7261 186.346 78.0062 177.412 64.6353C168.477 51.2645 155.779 40.8431 140.922 34.6892C126.065 28.5352 109.717 26.9251 93.9449 30.0623C78.1729 33.1996 63.6853 40.9433 52.3143 52.3143C40.9433 63.6853 33.1996 78.1729 30.0623 93.9449C26.9251 109.717 28.5352 126.065 34.6892 140.922C40.8431 155.779 51.2645 168.477 64.6353 177.412C78.0062 186.346 93.7261 191.114 109.807 191.114C127.864 191.137 145.404 185.087 159.608 173.938L194.062 208.494C195.006 209.446 196.131 210.202 197.369 210.718C198.608 211.234 199.936 211.5 201.278 211.5C202.619 211.5 203.948 211.234 205.186 210.718C206.425 210.202 207.549 209.446 208.494 208.494C209.446 207.549 210.202 206.425 210.718 205.186C211.234 203.948 211.5 202.619 211.5 201.278C211.5 199.936 211.234 198.608 210.718 197.369C210.202 196.131 209.446 195.006 208.494 194.062ZM48.8268 109.807C48.8268 97.7464 52.4033 85.9565 59.1039 75.9283C65.8045 65.9001 75.3283 58.0841 86.471 53.4687C97.6137 48.8532 109.875 47.6456 121.704 49.9985C133.533 52.3515 144.399 58.1593 152.927 66.6875C161.455 75.2158 167.263 86.0815 169.616 97.9105C171.969 109.74 170.761 122.001 166.146 133.143C161.53 144.286 153.714 153.81 143.686 160.51C133.658 167.211 121.868 170.788 109.807 170.788C93.6342 170.788 78.1236 164.363 66.6875 152.927C55.2515 141.491 48.8268 125.98 48.8268 109.807Z" fill="#8FDADE"/>
<path d="M109.5 63.5C84.5634 63.5 63.5 84.5634 63.5 109.5C63.5 134.437 84.5634 155.5 109.5 155.5C134.437 155.5 155.5 134.437 155.5 109.5C155.5 84.5634 134.437 63.5 109.5 63.5ZM109.5 86.5C117.444 86.5 123.3 92.3512 123.3 100.3C123.3 108.249 117.444 114.1 109.5 114.1C101.56 114.1 95.7 108.249 95.7 100.3C95.7 92.3512 101.56 86.5 109.5 86.5ZM86.0124 131.451C90.1386 125.379 97.0202 121.331 104.9 121.331H114.1C121.984 121.331 128.861 125.379 132.988 131.451C127.109 137.744 118.769 141.7 109.5 141.7C100.231 141.7 91.8912 137.744 86.0124 131.451Z" fill="white"/>
<path d="M109.283 83.7299C118.11 83.7299 124.616 90.2308 124.616 99.0623C124.616 107.894 118.11 114.395 109.283 114.395C100.462 114.395 93.9509 107.894 93.9509 99.0623C93.9509 90.2308 100.462 83.7299 109.283 83.7299ZM83.1875 133.673C87.7719 126.926 95.4177 122.429 104.172 122.429H114.394C123.154 122.429 130.795 126.926 135.379 133.673C128.847 140.664 119.582 145.06 109.283 145.06C98.985 145.06 89.7191 140.664 83.1875 133.673Z" fill="#012F5C"/>
</svg>
