<svg width="163" height="167" viewBox="0 0 163 167" fill="none" xmlns="http://www.w3.org/2000/svg">
<path d="M14.0625 39.8093C15.3749 38.0452 17.1032 35.6572 18.4872 33.9504C22.6322 29.246 23.1701 28.6293 26.9422 25.1512C28.0609 24.2333 29.3876 23.1289 30.6856 22.0891C21.1119 30.1926 19.8928 39.1639 28.6776 44.7073C28.6633 44.7073 28.6633 44.7073 28.6633 44.7217C40.9477 52.1224 67.8688 50.5232 89.1101 41.0428C109.685 31.8635 117.279 18.7329 107.124 10.9305C98.2105 9.25962 87.5826 9.06599 76.3381 10.572L75.1691 8.64289L76.1373 5.44449C82.7492 4.84927 89.0312 4.9927 94.4527 5.9178C95.7651 6.14011 97.4934 6.52018 98.7842 6.79269C101.28 7.40225 102.635 7.76799 104.263 8.29149C105.927 8.78631 107.347 9.28113 109.821 10.1991C112.245 11.1528 113.292 11.5831 115.235 12.5512C117.412 13.5442 119.526 14.6674 121.567 15.9146C137.746 26.0906 127.685 44.6571 99.1356 57.379C70.6656 70.0578 34.386 72.0515 18.1287 61.9973C18.1215 61.983 18.1 61.9686 18.057 61.9543H18.0856C9.20758 56.332 8.27531 48.1711 14.0625 39.8093ZM88.1348 110.949L87.9054 99.5175L79.7803 90.4817C52.9381 96.5629 26.5549 95.2578 11.8825 86.6164C11.8323 86.559 11.7104 86.5016 11.6602 86.4442C3.3558 81.3311 1.30481 74.7335 1.92871 67.5622C-0.0147083 78.0538 -0.172477 81.8403 0.107204 90.8187C0.451426 96.441 3.70002 101.626 10.2331 105.714L10.2833 105.771C25.9239 115.495 58.5102 117.604 88.1348 110.949ZM122.019 124.036C84.1333 139.232 36.7167 140.129 16.1207 126.066C18.3449 131.501 21.3714 136.573 25.0992 141.111C44.0027 154.019 87.5253 153.195 122.285 139.246C142.63 131.093 155.466 120.243 158.837 110.074L159.783 107.012C162.028 99.2522 162.451 92.7908 162.81 87.0395C162.401 99.5247 147.692 113.724 122.019 124.036ZM38.3876 153.302C39.578 154.435 43.3214 159.032 62.2895 164.109C67.417 165.242 80.3253 168.878 104.17 163.593L104.313 161.42L102.427 158.466C80.3038 163.701 55.7278 161.951 38.3876 153.302ZM93.1332 62.8794L113.277 78.1471C113.277 78.1471 117.587 81.2522 113.521 83.4323C109.469 85.5909 99.0639 90.8761 99.0639 90.8761L88.7874 87.0395L83.6313 89.3343L92.7245 97.2299L92.7962 109.514L98.1388 107.141L101.681 96.7637C101.681 96.7637 112.56 92.5757 116.877 90.998C121.216 89.4562 120.635 94.7343 120.635 94.7343L118.498 119.913L125.598 116.757L137.287 82.7869C137.287 82.7869 143.483 79.7749 147.843 77.1287C152.196 74.4825 153.688 70.0937 153.688 70.0937C153.688 70.0937 149.442 68.265 144.551 69.7351C139.661 71.1909 133.285 73.7869 133.285 73.7869L100.211 59.7384L93.1332 62.8794Z" fill="#012F5C"/>
<path d="M14.0617 39.8095C15.374 38.0453 17.1023 35.6573 18.4864 33.9505C22.6314 29.2461 23.1692 28.6294 26.9413 25.1513C28.06 24.2334 29.3867 23.129 30.6847 22.0892C21.1111 30.1927 19.8919 39.164 28.6768 44.7074C28.6624 44.7074 28.6624 44.7074 28.6624 44.7218C40.9469 52.1226 67.8679 50.5234 89.1093 41.0429C109.684 31.8637 117.278 18.733 107.124 10.9307C98.2096 9.25974 87.5818 9.06611 76.3372 10.5721L75.1683 8.64301L76.1364 5.44461C82.7483 4.84939 89.0304 4.99282 94.4519 5.91792C95.7642 6.14023 97.4925 6.52031 98.7833 6.79282C101.279 7.40237 102.634 7.76811 104.262 8.29162C105.926 8.78643 107.346 9.28125 109.82 10.1992C112.244 11.153 113.291 11.5832 115.234 12.5514C117.411 13.5443 119.525 14.6675 121.567 15.9147C137.745 26.0908 127.684 44.6572 99.1347 57.3791C70.6647 70.058 34.3851 72.0516 18.1278 61.9974C18.1206 61.9831 18.0991 61.9688 18.0561 61.9544H18.0848C9.20671 56.3321 8.27444 48.1712 14.0617 39.8095ZM122.018 124.036C84.1324 139.232 36.7158 140.129 16.1198 126.066C18.3441 131.501 21.3705 136.573 25.0983 141.111C44.0018 154.019 87.5244 153.195 122.284 139.247C142.629 131.093 155.465 120.243 158.836 110.074L159.782 107.012C162.027 99.2523 162.45 92.791 162.809 87.0396C162.4 99.5248 147.692 113.724 122.018 124.036ZM93.1324 62.8795L113.277 78.1472C113.277 78.1472 117.586 81.2524 113.52 83.4324C109.469 85.591 99.063 90.8762 99.063 90.8762L88.7866 87.0396L83.6304 89.3344L92.7236 97.23L92.7953 109.514L98.1379 107.141L101.681 96.7639C101.681 96.7639 112.559 92.5758 116.877 90.9981C121.215 89.4563 120.634 94.7344 120.634 94.7344L118.497 119.913L125.597 116.757L137.286 82.787C137.286 82.787 143.482 79.7751 147.842 77.1289C152.195 74.4827 153.687 70.0938 153.687 70.0938C153.687 70.0938 149.441 68.2651 144.551 69.7353C139.66 71.191 133.284 73.787 133.284 73.787L100.21 59.7385L93.1324 62.8795Z" fill="#8FDADE"/>
<path d="M14.0617 39.8095C15.374 38.0453 17.1023 35.6573 18.4864 33.9505C22.6314 29.2461 23.1692 28.6294 26.9413 25.1513C28.06 24.2334 29.3867 23.129 30.6847 22.0892C21.1111 30.1927 19.8919 39.164 28.6768 44.7074C28.6624 44.7074 28.6624 44.7074 28.6624 44.7218C40.9469 52.1226 67.8679 50.5234 89.1093 41.0429C109.684 31.8637 117.278 18.733 107.124 10.9307C98.2096 9.25974 87.5818 9.06611 76.3372 10.5721L75.1683 8.64301L76.1364 5.44461C82.7483 4.84939 89.0304 4.99282 94.4519 5.91792C95.7642 6.14023 97.4925 6.52031 98.7833 6.79282C101.279 7.40237 102.634 7.76811 104.262 8.29162C105.926 8.78643 107.346 9.28125 109.82 10.1992C112.244 11.153 113.291 11.5832 115.234 12.5514C117.411 13.5443 119.525 14.6675 121.567 15.9147C137.745 26.0908 127.684 44.6572 99.1347 57.3791C70.6647 70.058 34.3851 72.0516 18.1278 61.9974C18.1206 61.9831 18.0991 61.9688 18.0561 61.9544H18.0848C9.20671 56.3321 8.27444 48.1712 14.0617 39.8095ZM93.1324 62.8795L113.277 78.1472C113.277 78.1472 117.586 81.2524 113.52 83.4324C109.469 85.591 99.063 90.8762 99.063 90.8762L88.7866 87.0396L83.6304 89.3344L92.7236 97.23L92.7953 109.514L98.1379 107.141L101.681 96.7639C101.681 96.7639 112.559 92.5758 116.877 90.9981C121.215 89.4563 120.634 94.7344 120.634 94.7344L118.497 119.913L125.597 116.757L137.286 82.787C137.286 82.787 143.482 79.7751 147.842 77.1289C152.195 74.4827 153.687 70.0938 153.687 70.0938C153.687 70.0938 149.441 68.2651 144.551 69.7353C139.66 71.191 133.284 73.787 133.284 73.787L100.21 59.7385L93.1324 62.8795Z" fill="#8FDADE"/>
<path d="M93.1328 62.8793L113.277 78.147C113.277 78.147 117.587 81.2522 113.521 83.4322C109.469 85.5908 99.0635 90.876 99.0635 90.876L88.787 87.0394L83.6309 89.3342L92.7241 97.2298L92.7958 109.514L98.1384 107.141L101.681 96.7637C101.681 96.7637 112.56 92.5756 116.877 90.998C121.216 89.4561 120.635 94.7342 120.635 94.7342L118.498 119.913L125.597 116.757L137.286 82.7868C137.286 82.7868 143.482 79.7749 147.843 77.1287C152.196 74.4825 153.687 70.0936 153.687 70.0936C153.687 70.0936 149.442 68.265 144.551 69.7351C139.66 71.1908 133.285 73.7868 133.285 73.7868L100.211 59.7383L93.1328 62.8793Z" fill="#012F5C"/>
<path d="M116.54 149.746C114.793 150.384 112.884 151.261 110.739 152.488C110.484 152.629 108.48 155.21 108.191 156.588C107.903 157.966 108.448 160.187 108.448 160.187C108.58 161.13 109.226 162.531 109.331 162.651C109.514 162.929 110.011 163.036 110.77 162.965C110.334 161.533 110.995 160.048 112.279 159.573C113.625 159.078 115.155 159.869 115.697 161.341C115.74 161.459 115.775 161.579 115.803 161.701C115.839 161.688 115.88 161.674 115.914 161.662L130.539 156.428C130.452 156.278 130.378 156.12 130.318 155.958C129.776 154.486 130.427 152.891 131.773 152.395C133.119 151.9 134.649 152.691 135.191 154.163C135.256 154.341 135.306 154.524 135.337 154.71L139.138 153.35C138.659 151.8 138.409 150.08 137.074 149.062C136.549 148.662 134.588 148.31 130.24 149.107C127.701 148.725 125.155 148.169 122.633 148.241C120.764 148.503 118.786 148.927 116.54 149.746ZM115.786 150.93C116.153 150.799 116.494 150.692 116.782 150.625L118.412 153.683C115.763 154.273 113.079 154.916 111.282 154.228C111.169 153.854 111.437 153.152 111.883 152.758C112.135 152.534 114.198 151.501 115.786 150.93L115.786 150.93ZM117.904 150.177C119.434 149.633 121.749 148.965 123.577 149.143C124.458 149.246 126.182 149.612 127.405 150.045L127.276 150.889C124.689 151.699 121.247 152.791 119.794 153.131L117.904 150.177L117.904 150.177ZM112.672 160.639C112.284 160.782 111.974 161.087 111.81 161.488C111.647 161.889 111.642 162.352 111.799 162.777C111.955 163.201 112.259 163.551 112.643 163.75C113.028 163.949 113.462 163.98 113.849 163.837C114.237 163.695 114.547 163.389 114.711 162.988C114.875 162.587 114.879 162.124 114.723 161.7C114.566 161.276 114.263 160.926 113.878 160.727C113.493 160.528 113.06 160.496 112.672 160.639ZM132.165 153.461C131.778 153.604 131.468 153.91 131.304 154.31C131.14 154.711 131.136 155.175 131.292 155.599C131.448 156.023 131.752 156.373 132.137 156.572C132.521 156.771 132.955 156.802 133.343 156.66C133.731 156.517 134.041 156.211 134.204 155.81C134.368 155.41 134.372 154.946 134.216 154.522C134.06 154.098 133.756 153.748 133.372 153.549C132.987 153.35 132.553 153.319 132.165 153.461Z" fill="#012F5C"/>
<path fill-rule="evenodd" clip-rule="evenodd" d="M51.767 5.18061L51.9014 5.75853L49.8404 6.43061C48.7069 6.80028 47.7758 7.11299 47.7712 7.1254C47.7508 7.18174 47.7117 7.82981 47.7146 8.0654L47.7178 8.32666L54.6021 6.30589C60.3791 4.61013 61.4793 4.26133 61.4429 4.1373C61.419 4.05598 61.2761 3.83666 61.1254 3.64994C60.8144 3.26473 60.6797 3.25439 59.5861 3.53241L58.8318 3.72423L58.6325 3.16534L58.4332 2.60635L57.8353 2.81669L57.2374 3.02693L57.3705 3.59964L57.5035 4.17237L56.7684 4.38816L56.0332 4.60396L55.8356 4.05019L55.6381 3.49638L55.0214 3.64268L54.4046 3.78887L54.5391 4.36689L54.6735 4.94481L53.9689 5.18592L53.2642 5.42713L53.0651 4.86856L52.8659 4.3101L52.2492 4.4564L51.6325 4.60259L51.767 5.18061ZM45.0721 9.83179C44.9475 10.1235 44.883 11.2865 44.9843 11.4196C45.0647 11.5255 46.7693 11.0522 54.8441 8.68199C63.46 6.15293 64.6082 5.79513 64.6208 5.63588C64.6287 5.53661 64.5728 5.40887 64.4968 5.35183C64.4208 5.2949 64.2321 5.0593 64.0777 4.82834C63.9232 4.59727 63.6994 4.38773 63.5802 4.36257C63.4502 4.33502 59.7265 5.38436 54.2536 6.99082C47.086 9.09476 45.1283 9.70051 45.0721 9.83179ZM41.1864 13.5354C41.1079 14.0274 41.0705 14.823 41.1183 14.9857C41.1592 15.125 42.797 14.6653 54.4862 11.2342C62.5327 8.87226 67.8201 7.27758 67.8394 7.20677C67.8568 7.14234 67.7766 6.9693 67.661 6.82216C67.5454 6.675 67.3678 6.44793 67.2664 6.31746C67.1648 6.18703 67.025 6.01833 66.9554 5.94262C66.8442 5.82154 65.2823 6.25533 54.0296 9.53237L41.2303 13.2598L41.1864 13.5354ZM34.3785 17.7303C34.3095 17.8074 35.1833 18.559 35.48 18.6776C35.5261 18.6961 36.1175 19.0994 36.7941 19.5737C37.4708 20.0481 38.1634 20.5265 38.3334 20.6368C38.5034 20.7471 39.0933 21.15 39.6444 21.532C40.1954 21.9139 40.8397 22.2886 41.0761 22.3644L41.506 22.5023L55.191 18.4852L68.876 14.4682L69.1465 13.9519C69.3848 13.4967 69.4284 13.0867 69.5135 10.4939C69.5665 8.876 69.5645 7.52659 69.509 7.49523C69.3898 7.42791 34.5016 17.5923 34.3785 17.7303ZM40.062 17.1422C40.0543 17.2399 40.0967 17.4273 40.1562 17.5587C40.2483 17.7619 40.3264 17.7794 40.6793 17.6758C41.4701 17.4437 41.2841 16.7197 40.4758 16.8836C40.1991 16.9398 40.0717 17.0195 40.062 17.1422ZM41.7257 16.5935C41.661 16.6697 41.6661 16.8588 41.7376 17.0283C41.8534 17.3033 41.8992 17.3178 42.2903 17.203C42.7066 17.0808 42.7141 17.0689 42.6065 16.7023C42.5069 16.3628 42.4648 16.3331 42.1682 16.3927C41.9878 16.429 41.7886 16.5194 41.7257 16.5935ZM43.2607 16.2033C43.253 16.301 43.2954 16.4884 43.3549 16.6198C43.447 16.823 43.5251 16.8405 43.878 16.7369C44.6688 16.5048 44.4828 15.7807 43.6744 15.9447C43.3978 16.0009 43.2704 16.0806 43.2607 16.2033ZM44.9244 15.6546C44.8597 15.7308 44.8648 15.9199 44.9362 16.0894C45.0513 16.3628 45.099 16.3785 45.4773 16.2675C45.9637 16.1247 46.1292 15.801 45.8454 15.5476C45.656 15.3786 45.1042 15.4427 44.9244 15.6546ZM46.5237 15.1852C46.459 15.2614 46.4641 15.4504 46.5355 15.62C46.6506 15.8934 46.6983 15.9091 47.0766 15.798C47.563 15.6552 47.7285 15.3315 47.4447 15.0782C47.2553 14.9091 46.7035 14.9732 46.5237 15.1852ZM48.123 14.7157C48.0583 14.7919 48.0634 14.981 48.1348 15.1505C48.2499 15.4239 48.2976 15.4396 48.6759 15.3286C49.1623 15.1858 49.3279 14.8621 49.044 14.6087C48.8546 14.4397 48.3028 14.5037 48.123 14.7157ZM49.7231 14.249C49.6576 14.3241 49.6623 14.5107 49.7341 14.6811C49.8706 15.005 50.1657 15.0332 50.6196 14.7655C50.8802 14.6117 50.8393 14.2061 50.5469 14.0452C50.3562 13.9403 49.8923 14.055 49.7231 14.249ZM51.3236 13.7519C51.2595 13.8045 51.248 13.9875 51.2982 14.1585C51.3684 14.3979 51.4531 14.467 51.6667 14.4588C52.2565 14.4363 52.5899 13.9797 52.2426 13.6698C52.0731 13.5186 51.5511 13.5652 51.3236 13.7519ZM52.9236 13.2849C52.8591 13.3362 52.8473 13.5181 52.8975 13.689C52.9685 13.9311 53.0521 13.9975 53.275 13.9889C53.4325 13.9829 53.6724 13.9125 53.8081 13.8325C53.9997 13.7195 54.0347 13.6181 53.9644 13.3786C53.85 12.9888 53.3528 12.944 52.9236 13.2849ZM54.5379 12.8685C54.3102 13.2885 54.7331 13.6525 55.211 13.4478C55.567 13.2954 55.6799 12.9438 55.4413 12.7309C55.2324 12.5445 54.6669 12.6305 54.5379 12.8685ZM56.1222 12.346C56.0577 12.3973 56.0459 12.5792 56.0961 12.7501C56.1672 12.9922 56.2507 13.0586 56.4737 13.05C56.6311 13.044 56.871 12.9736 57.0068 12.8936C57.1984 12.7806 57.2334 12.6792 57.1631 12.4397C57.0486 12.0499 56.5514 12.0051 56.1222 12.346ZM57.7365 11.9296C57.5088 12.3496 57.9317 12.7136 58.4097 12.5089C58.7656 12.3565 58.8785 12.0049 58.6399 11.792C58.431 11.6056 57.8655 11.6916 57.7365 11.9296ZM59.3209 11.4071C59.2564 11.4584 59.2446 11.6403 59.2947 11.8112C59.3648 12.0498 59.4499 12.1197 59.6606 12.1116C60.1872 12.0916 60.4203 11.9084 60.36 11.562C60.3283 11.3799 60.2314 11.2203 60.1357 11.1926C59.9538 11.1398 59.5105 11.2566 59.3209 11.4071ZM60.9318 10.9969C60.6936 11.4362 61.1348 11.7666 61.6717 11.5509C61.9641 11.4335 62.0068 11.3654 61.9593 11.0926C61.9276 10.9104 61.8307 10.7509 61.735 10.7231C61.4878 10.6513 61.0355 10.8055 60.9318 10.9969ZM62.5311 10.5275C62.3721 10.8208 62.5569 11.1842 62.8593 11.1727C63.3858 11.1526 63.6189 10.9694 63.5586 10.6231C63.5269 10.441 63.43 10.2814 63.3344 10.2537C63.0871 10.1819 62.6349 10.3361 62.5311 10.5275ZM64.1312 10.2058C64.0703 10.6386 64.3578 10.8058 64.8409 10.6187C65.1661 10.4927 65.2066 10.4331 65.1579 10.1537C65.0944 9.78927 64.9018 9.69617 64.4694 9.82043C64.2573 9.8814 64.1614 9.99076 64.1312 10.2058Z" fill="#012F5C"/>
</svg>
