<svg width="64" height="64" viewBox="0 0 64 64" fill="none" xmlns="http://www.w3.org/2000/svg">
<g clip-path="url(#clip0_2512_16139)">
<path d="M45.334 16.0002H40.0007V8.00016C40.0007 6.5335 38.8007 5.3335 37.334 5.3335H26.6673C25.2007 5.3335 24.0007 6.5335 24.0007 8.00016V16.0002H18.6673C15.734 16.0002 13.334 18.4002 13.334 21.3335V50.6668C13.334 53.6002 15.734 56.0002 18.6673 56.0002C18.6673 57.4668 19.8673 58.6668 21.334 58.6668C22.8007 58.6668 24.0007 57.4668 24.0007 56.0002H40.0007C40.0007 57.4668 41.2007 58.6668 42.6673 58.6668C44.134 58.6668 45.334 57.4668 45.334 56.0002C48.2673 56.0002 50.6673 53.6002 50.6673 50.6668V21.3335C50.6673 18.4002 48.2673 16.0002 45.334 16.0002ZM23.334 48.0002C22.2407 48.0002 21.334 47.0935 21.334 46.0002V26.0002C21.334 24.9068 22.2407 24.0002 23.334 24.0002C24.4273 24.0002 25.334 24.9068 25.334 26.0002V46.0002C25.334 47.0935 24.4273 48.0002 23.334 48.0002ZM32.0007 48.0002C30.9073 48.0002 30.0007 47.0935 30.0007 46.0002V26.0002C30.0007 24.9068 30.9073 24.0002 32.0007 24.0002C33.094 24.0002 34.0007 24.9068 34.0007 26.0002V46.0002C34.0007 47.0935 33.094 48.0002 32.0007 48.0002ZM36.0007 16.0002H28.0007V9.3335H36.0007V16.0002ZM40.6673 48.0002C39.574 48.0002 38.6673 47.0935 38.6673 46.0002V26.0002C38.6673 24.9068 39.574 24.0002 40.6673 24.0002C41.7607 24.0002 42.6673 24.9068 42.6673 26.0002V46.0002C42.6673 47.0935 41.7607 48.0002 40.6673 48.0002Z" fill="#04A3AC"/>
</g>
<defs>
<clipPath id="clip0_2512_16139">
<rect width="64" height="64" fill="white"/>
</clipPath>
</defs>
</svg>
