<svg width="210" height="214" viewBox="0 0 210 214" fill="none" xmlns="http://www.w3.org/2000/svg">
<path fill-rule="evenodd" clip-rule="evenodd" d="M34.0925 0.92041L81.1171 107.293L0 69.2045V0.92041H34.0925ZM129.793 107.293L175.832 0.92041H209.925V69.2045L129.793 107.293ZM121.176 137.625L209.98 103.333V126.888C209.98 149.986 200.624 172.138 183.97 188.47C167.316 204.803 144.728 213.978 121.176 213.978V137.625ZM142.045 0.92041H69.3369L105.289 100.326L142.045 0.92041ZM0.0419922 103.333L88.763 137.625L88.8462 213.978C65.2939 213.978 42.7062 204.803 26.0521 188.47C9.39812 172.138 0.0419922 149.986 0.0419922 126.888V103.333Z" fill="black"/>
</svg>
