<svg width="209" height="45" viewBox="0 0 209 45" fill="none" xmlns="http://www.w3.org/2000/svg">
<g clip-path="url(#clip0_538_22705)">
<path d="M67.7563 7.3042V28.4496C67.7563 35.0765 69.1049 39.0195 76.0265 39.0195C82.8923 39.0195 84.185 35.0682 84.185 28.4496V7.3042H91.6706V28.3833C91.6706 40.7343 87.1111 44.9065 76.0349 44.9065C64.9586 44.9065 60.2734 40.7453 60.2734 28.3833V7.3042H67.7563Z" fill="black"/>
<path d="M97.5254 16.9851H104.726V20.0998C106.36 17.5954 109.171 16.3694 112.606 16.3694C117.386 16.3694 119.469 18.5425 120.594 20.5996C122.788 17.7638 125.6 16.3694 129.808 16.3694C133.127 16.3694 135.671 17.3717 137.235 19.3211C138.583 21.0441 139.259 23.4933 139.259 27.2762V44.2494H132.075V28.6154C132.075 26.5003 131.963 24.8877 131.237 23.775C130.562 22.7174 129.436 22.1044 127.465 22.1044C122.629 22.1044 122.065 26.111 122.065 30.3384V44.2522H114.862V28.6154C114.862 26.4451 114.694 24.7745 113.907 23.6645C113.231 22.7174 112.106 22.1044 110.249 22.1044C105.41 22.1044 104.735 26.111 104.735 30.3384V44.2522H97.5254V16.9851Z" fill="black"/>
<path d="M155.373 35.3471L160.999 16.9878H168.538L159.031 44.2521H151.433L141.756 16.9878H149.688L155.373 35.3471Z" fill="black"/>
<path d="M176.534 27.8312H189.872C189.704 23.3249 186.329 21.5439 183.171 21.5439C180.133 21.5439 176.749 23.2006 176.534 27.8312ZM169.386 30.6118C169.386 22.2673 174.845 16.3694 183.347 16.3694C192.351 16.3694 197.525 22.8224 197.075 32.7821H176.534C176.701 36.7886 179.457 39.4587 183.397 39.4587C186.999 39.4587 189.079 37.6805 189.866 35.4549L196.62 36.344C195.325 40.1269 191.329 44.9038 183.497 44.9038C174.158 44.9038 169.375 38.553 169.375 30.6035" fill="black"/>
<path d="M209.002 7.3042H201.799V44.252H209.002V7.3042Z" fill="black"/>
<path d="M26.1172 22.5048L35.3814 0.92041H42.2416V14.7762L26.1172 22.5048Z" fill="black"/>
<path d="M24.3828 28.6597L42.2523 21.7014V26.4811C42.2523 31.1679 40.3696 35.6628 37.0184 38.9769C33.6673 42.291 29.1221 44.1529 24.3828 44.1529V28.6597Z" fill="black"/>
<path d="M16.3226 22.5048L6.86019 0.92041H0V14.7762L16.3226 22.5048Z" fill="black"/>
<path d="M28.5837 0.92041H13.9531L21.1875 21.0911L28.5837 0.92041Z" fill="black"/>
<path d="M17.8605 28.6597L0.0078125 21.7014V26.4811C0.0078125 31.1679 1.89048 35.6628 5.24165 38.9769C8.59283 42.291 13.138 44.1529 17.8773 44.1529L17.8605 28.6597Z" fill="black"/>
</g>
<defs>
<clipPath id="clip0_538_22705">
<rect width="209" height="44" fill="white" transform="translate(0 0.92041)"/>
</clipPath>
</defs>
</svg>
