<svg width="64" height="64" viewBox="0 0 64 64" fill="none" xmlns="http://www.w3.org/2000/svg">
<path d="M19.1337 58.6002C17.8004 58.6002 16.6671 58.1335 15.7337 57.2002C14.8004 56.2668 14.3337 55.1335 14.3337 53.8002C14.3337 52.4668 14.8004 51.3335 15.7337 50.4002C16.6671 49.4668 17.8004 49.0002 19.1337 49.0002C20.4671 49.0002 21.6004 49.4668 22.5337 50.4002C23.4671 51.3335 23.9337 52.4668 23.9337 53.8002C23.9337 55.1335 23.4671 56.2668 22.5337 57.2002C21.6004 58.1335 20.4671 58.6002 19.1337 58.6002ZM45.8004 58.6002C44.4671 58.6002 43.3337 58.1335 42.4004 57.2002C41.4671 56.2668 41.0004 55.1335 41.0004 53.8002C41.0004 52.4668 41.4671 51.3335 42.4004 50.4002C43.3337 49.4668 44.4671 49.0002 45.8004 49.0002C47.1337 49.0002 48.2671 49.4668 49.2004 50.4002C50.1337 51.3335 50.6004 52.4668 50.6004 53.8002C50.6004 55.1335 50.1337 56.2668 49.2004 57.2002C48.2671 58.1335 47.1337 58.6002 45.8004 58.6002ZM15.6671 14.6002L23.0004 29.8002H42.2004L50.5337 14.6002H15.6671ZM13.6671 10.6002H52.9337C53.9559 10.6002 54.7337 11.0668 55.2671 12.0002C55.8004 12.9335 55.8004 13.8668 55.2671 14.8002L46.2671 31.0002C45.7782 31.8446 45.1448 32.5224 44.3671 33.0335C43.5893 33.5446 42.7337 33.8002 41.8004 33.8002H21.6004L17.8671 40.7335H50.6004V44.7335H18.4671C16.6004 44.7335 15.2559 44.1113 14.4337 42.8668C13.6115 41.6224 13.6226 40.2224 14.4671 38.6668L18.7337 30.8002L8.60039 9.3335H3.40039V5.3335H11.2004L13.6671 10.6002ZM23.0004 29.8002H42.2004H23.0004Z" fill="#2F7C38"/>
</svg>
