<svg width="64" height="64" viewBox="0 0 64 64" fill="none" xmlns="http://www.w3.org/2000/svg">
<g clip-path="url(#clip0_2461_16387)">
<path d="M55.3334 18.6402C54.96 17.1735 53.4934 16.3202 52.0267 16.6402C45.68 18.0535 38.6134 18.6668 32 18.6668C25.3867 18.6668 18.32 18.0535 11.9734 16.6402C10.5067 16.3202 9.04002 17.1735 8.66669 18.6402C8.29336 20.1335 9.20002 21.6535 10.6667 22.0002C14.96 22.9602 19.6 23.6268 24 24.0002V56.0002C24 57.4668 25.2 58.6668 26.6667 58.6668C28.1334 58.6668 29.3334 57.4668 29.3334 56.0002V42.6668H34.6667V56.0002C34.6667 57.4668 35.8667 58.6668 37.3334 58.6668C38.8 58.6668 40 57.4668 40 56.0002V24.0002C44.4 23.6268 49.04 22.9602 53.3067 22.0002C54.8 21.6535 55.7067 20.1335 55.3334 18.6402ZM32 16.0002C34.9334 16.0002 37.3334 13.6002 37.3334 10.6668C37.3334 7.7335 34.9334 5.3335 32 5.3335C29.0667 5.3335 26.6667 7.7335 26.6667 10.6668C26.6667 13.6002 29.0667 16.0002 32 16.0002Z" fill="#40AD4C"/>
</g>
<defs>
<clipPath id="clip0_2461_16387">
<rect width="64" height="64" fill="white"/>
</clipPath>
</defs>
</svg>
