<svg width="240" height="240" viewBox="0 0 240 240" fill="none" xmlns="http://www.w3.org/2000/svg">
<path fill-rule="evenodd" clip-rule="evenodd" d="M43.9142 19.1149C37.2053 19.8946 32.3987 25.9653 33.1784 32.6742L35.6684 54.1003C34.6956 54.2165 33.9994 55.098 34.1126 56.0719L35.7554 70.2076C35.8686 71.1815 36.7483 71.8798 37.7218 71.7698L38.543 78.8365C37.5673 78.95 36.8684 79.833 36.9818 80.8087L38.6245 94.9444C38.7379 95.9201 39.6208 96.6192 40.5965 96.506L54.791 218.647C55.5706 225.356 61.6413 230.162 68.3503 229.383L150.073 219.886C156.781 219.106 161.588 213.035 160.808 206.326L139.196 20.3535C138.416 13.6446 132.345 8.83799 125.636 9.61766L43.9142 19.1149ZM145.307 57.4755C145.421 58.4514 144.722 59.3344 143.746 59.4478L141.692 41.7782C142.668 41.6648 143.551 42.364 143.665 43.3398L145.307 57.4755Z" fill="#D5F4B5"/>
<rect x="39.6582" y="26.7732" width="92.5002" height="197.452" rx="6.11468" transform="rotate(-6.62882 39.6582 26.7732)" fill="#004C1E"/>
<path d="M66.4861 30.8187C64.8089 31.0136 63.2912 29.812 63.0963 28.1347L61.8065 17.036L109.514 11.4917L110.804 22.5904C110.999 24.2677 109.797 25.7853 108.12 25.9802L66.4861 30.8187Z" fill="#D5F4B5"/>
<path fill-rule="evenodd" clip-rule="evenodd" d="M96.4526 36.9497L156.808 37.5505C160.312 37.5953 163.123 40.4599 163.102 43.9645L161.878 170.299C161.84 173.806 158.972 176.621 155.464 176.594L95.1041 175.995C91.5998 175.951 88.7885 173.086 88.8094 169.581L90.0313 43.2411C90.0718 39.7326 92.944 36.9185 96.4526 36.9497Z" fill="#D5F4B5"/>
<path fill-rule="evenodd" clip-rule="evenodd" d="M126.623 37.2422L156.803 37.5506C160.308 37.5955 163.119 40.46 163.098 43.9646L161.876 170.305C161.831 173.809 158.965 176.619 155.46 176.594L125.291 176.3L126.623 37.2422Z" fill="#C2F489"/>
<path fill-rule="evenodd" clip-rule="evenodd" d="M126.417 58.8646C142.632 59.0198 155.651 72.2885 155.499 88.503C155.346 104.717 142.08 117.739 125.865 117.59C109.651 117.44 96.627 104.176 96.7738 87.9612C96.8459 80.1716 100.01 72.7298 105.569 67.273C111.128 61.8162 118.628 58.7916 126.417 58.8646Z" fill="#00AD3E"/>
<path fill-rule="evenodd" clip-rule="evenodd" d="M126.422 58.8624C142.499 59.2159 155.302 72.4322 155.145 88.512C154.987 104.592 141.928 117.555 125.848 117.594L126.422 58.8624Z" fill="#078E34"/>
<path fill-rule="evenodd" clip-rule="evenodd" d="M98.3346 142.673L94.8171 142.658C94.669 141.853 94.6764 141.027 94.8389 140.224L104.785 140.32C104.864 140.717 104.899 141.121 104.891 141.525C104.889 141.951 104.841 142.375 104.746 142.791L101.221 142.754L101.105 154.473L100.398 154.531C100.162 154.55 99.9336 154.555 99.7082 154.552C99.4827 154.55 99.2447 154.546 98.99 154.529C98.7354 154.513 98.4769 154.486 98.2125 154.443L98.3288 142.724L98.3346 142.673ZM106.766 140.313L106.625 154.474C107.106 154.557 107.593 154.602 108.081 154.609C108.564 154.61 109.045 154.574 109.522 154.502L109.664 140.342C109.182 140.259 108.693 140.216 108.204 140.213C107.723 140.205 107.242 140.239 106.766 140.313ZM121.66 151.942C121.825 152.31 121.963 152.69 122.074 153.077C122.179 153.464 122.257 153.857 122.309 154.253C121.712 154.475 121.093 154.634 120.462 154.727C119.871 154.803 119.276 154.838 118.68 154.831C117.676 154.847 116.679 154.653 115.755 154.261C114.947 153.915 114.227 153.392 113.65 152.73C113.075 152.047 112.644 151.255 112.382 150.402C112.098 149.455 111.961 148.469 111.977 147.48C111.979 146.488 112.142 145.503 112.459 144.563C112.75 143.714 113.204 142.93 113.795 142.256C114.381 141.599 115.106 141.081 115.918 140.741C116.819 140.373 117.787 140.196 118.761 140.22C119.344 140.223 119.926 140.268 120.502 140.355C121.093 140.457 121.67 140.627 122.222 140.862C122.191 141.255 122.108 141.642 121.975 142.013C121.837 142.385 121.689 142.76 121.525 143.142C121.128 142.996 120.721 142.881 120.308 142.797C119.894 142.719 119.474 142.681 119.053 142.685C117.949 142.607 116.871 143.052 116.143 143.886C115.458 144.702 115.107 145.916 115.088 147.528C115.046 150.738 116.389 152.353 119.118 152.373C119.548 152.381 119.978 152.352 120.403 152.286C120.824 152.21 121.239 152.103 121.645 151.966L121.66 151.942ZM127.81 147.551L131.719 140.557C131.995 140.512 132.273 140.482 132.553 140.465C132.81 140.456 133.044 140.45 133.252 140.453C133.459 140.456 133.726 140.474 134.003 140.5C134.28 140.527 134.565 140.562 134.871 140.584L130.921 147.381L135.065 154.75L134.187 154.821C133.91 154.843 133.652 154.852 133.429 154.855C133.205 154.858 132.987 154.84 132.727 154.826C132.441 154.805 132.157 154.769 131.875 154.718L127.81 147.551ZM124.588 140.465L124.444 154.669C124.696 154.711 124.937 154.738 125.173 154.755C125.41 154.772 125.643 154.778 125.881 154.782C126.119 154.786 126.353 154.78 126.591 154.766C126.834 154.755 127.076 154.732 127.317 154.695L127.457 140.498C127.211 140.455 126.965 140.429 126.734 140.411C126.503 140.392 126.265 140.388 126.039 140.385L125.315 140.395C125.077 140.408 124.836 140.43 124.583 140.467L124.588 140.465ZM136.771 140.607L136.635 154.765L144.811 154.846C144.897 154.429 144.946 154.005 144.956 153.58C144.956 153.176 144.918 152.774 144.844 152.377L139.548 152.325L139.584 148.582L143.681 148.622C143.847 147.819 143.858 146.991 143.713 146.184L139.616 146.144L139.647 143.069L144.803 143.118C144.896 142.702 144.944 142.278 144.947 141.852C144.956 141.457 144.924 141.062 144.851 140.674L136.808 140.575L136.771 140.607ZM149.969 143.162L146.443 143.126C146.367 142.716 146.331 142.301 146.336 141.885C146.341 141.48 146.383 141.077 146.461 140.681L156.419 140.809C156.484 141.198 156.517 141.592 156.515 141.987C156.508 142.412 156.459 142.836 156.371 143.253L152.845 143.216L152.729 154.935C152.49 154.962 152.26 154.979 152.017 154.995C151.774 155.011 151.554 155.024 151.329 155.022L150.609 154.993C150.35 154.978 150.092 154.948 149.837 154.905L149.969 143.162Z" fill="#FFF6EA"/>
<path fill-rule="evenodd" clip-rule="evenodd" d="M127.812 147.552L131.721 140.557C131.997 140.512 132.275 140.481 132.555 140.466C132.818 140.455 133.046 140.45 133.259 140.451C133.472 140.452 133.728 140.474 134.005 140.501C134.282 140.527 134.567 140.562 134.873 140.584L130.925 147.387L135.072 154.748L134.189 154.821C133.912 154.844 133.656 154.858 133.436 154.853C133.216 154.849 132.989 154.841 132.729 154.826C132.443 154.805 132.159 154.769 131.877 154.719L127.812 147.552ZM125.628 140.384L125.484 154.77L125.888 154.78C126.124 154.779 126.36 154.778 126.598 154.764C126.841 154.754 127.084 154.73 127.324 154.693L127.465 140.497C127.225 140.455 126.984 140.425 126.741 140.409C126.505 140.392 126.272 140.386 126.046 140.383L125.628 140.384ZM136.784 140.603L136.642 154.763L144.818 154.844C144.984 154.041 144.994 153.214 144.845 152.408L139.544 152.358L139.58 148.615L143.676 148.655C143.77 148.239 143.818 147.815 143.821 147.389C143.825 146.979 143.79 146.569 143.715 146.166L139.618 146.126L139.649 143.052L144.811 143.103C144.893 142.69 144.933 142.269 144.929 141.847C144.937 141.443 144.902 141.039 144.823 140.642L136.786 140.542L136.784 140.603ZM149.97 143.162L146.451 143.124C146.373 142.716 146.335 142.301 146.338 141.885C146.346 141.482 146.39 141.08 146.47 140.684L156.421 140.809C156.492 141.197 156.524 141.592 156.517 141.987C156.511 142.413 156.463 142.837 156.373 143.253L152.847 143.217L152.736 154.934L152.026 154.999C151.789 155.012 151.556 155.024 151.331 155.022C151.105 155.019 150.871 155.008 150.616 154.991C150.356 154.978 150.097 154.951 149.841 154.91L149.97 143.162Z" fill="#00AD3E"/>
<path d="M133.883 99.7778L132.018 83.559L135.196 79.5489C135.708 78.9002 136.071 78.1465 136.258 77.3414L136.36 76.7888C136.536 76.0813 136.281 75.3362 135.708 74.8854C135.15 74.433 134.379 74.3488 133.737 74.6703L133.162 74.9226C132.436 75.2896 131.798 75.81 131.292 76.4479L128.108 80.4545L111.896 82.3229C111.074 82.4141 110.324 82.8322 109.814 83.4828L108.909 84.6258C108.768 84.8041 108.736 85.0448 108.825 85.2538C108.914 85.4627 109.109 85.6065 109.335 85.6288L123.192 87.0335C122.115 88.5853 121.258 89.9109 120.223 91.5317L119.154 93.1895L113.982 92.729C113.781 92.7172 113.587 92.8017 113.458 92.9564L112.687 93.9353C112.568 94.0821 112.522 94.2751 112.563 94.4597C112.606 94.644 112.73 94.7993 112.899 94.8829L117.94 97.3265L121.469 101.68C121.497 101.717 121.529 101.75 121.566 101.778C121.674 101.869 121.812 101.916 121.953 101.91C122.142 101.909 122.321 101.822 122.437 101.673L123.215 100.697C123.345 100.534 123.384 100.317 123.32 100.119L121.69 95.1518L123.065 93.7341C124.386 92.3667 125.504 91.2248 126.768 89.8175L131.288 103.005C131.358 103.228 131.547 103.393 131.777 103.433C132 103.476 132.229 103.393 132.372 103.216L133.282 102.071C133.78 101.417 133.996 100.592 133.883 99.7778Z" fill="#73E900"/>
<path fill-rule="evenodd" clip-rule="evenodd" d="M182.33 46.7587L228.477 85.6621C231.151 87.9286 231.493 91.9275 229.245 94.616L147.839 191.234C145.575 193.913 141.571 194.256 138.885 192.002L92.7317 153.096C90.0586 150.83 89.7157 146.831 91.9639 144.142L173.372 47.5193C175.638 44.8402 179.645 44.5 182.33 46.7587Z" fill="#D5F4B5"/>
<path fill-rule="evenodd" clip-rule="evenodd" d="M205.405 66.2019L228.476 85.6617C231.149 87.9282 231.492 91.9271 229.244 94.6157L147.836 191.239C145.569 193.912 141.569 194.253 138.884 192.001L115.812 172.56L205.405 66.2019Z" fill="#C2F489"/>
<path fill-rule="evenodd" clip-rule="evenodd" d="M191.473 82.7383C203.875 93.185 205.461 111.707 195.016 124.11C184.572 136.513 166.051 138.103 153.645 127.661C141.24 117.218 139.647 98.6972 150.088 86.2902C155.104 80.3307 162.283 76.6085 170.045 75.9424C177.806 75.2762 185.514 77.7209 191.473 82.7383Z" fill="#00AD3E"/>
<path fill-rule="evenodd" clip-rule="evenodd" d="M191.478 82.7396C203.647 93.2514 205.1 111.595 194.738 123.891C184.376 136.188 166.051 137.864 153.629 127.653L191.478 82.7396Z" fill="#078E34"/>
<path fill-rule="evenodd" clip-rule="evenodd" d="M116.448 129.466L113.746 127.214C114.144 126.499 114.676 125.866 115.313 125.351L122.92 131.76C122.728 132.116 122.498 132.45 122.234 132.756C121.961 133.083 121.654 133.38 121.316 133.64L118.622 131.367L111.068 140.327L110.487 139.922C110.293 139.787 110.113 139.644 109.941 139.499C109.769 139.353 109.588 139.198 109.402 139.024C109.216 138.849 109.034 138.663 108.858 138.462L116.411 129.501L116.448 129.466ZM124.452 133.016L115.324 143.843C115.642 144.214 115.988 144.559 116.36 144.876C116.732 145.183 117.126 145.462 117.539 145.711L126.667 134.884C126.348 134.513 125.999 134.169 125.624 133.855C125.258 133.542 124.865 133.262 124.452 133.016ZM128.527 151.468C128.42 151.857 128.285 152.237 128.124 152.607C127.958 152.971 127.768 153.324 127.556 153.663C126.954 153.453 126.376 153.181 125.83 152.852C125.326 152.534 124.845 152.182 124.39 151.797C123.606 151.17 122.961 150.385 122.498 149.494C122.095 148.713 121.874 147.851 121.85 146.973C121.842 146.08 122.014 145.195 122.355 144.371C122.74 143.46 123.262 142.613 123.904 141.861C124.538 141.097 125.291 140.441 126.134 139.919C126.899 139.449 127.748 139.134 128.634 138.991C129.503 138.857 130.392 138.92 131.234 139.175C132.164 139.465 133.023 139.945 133.758 140.584C134.205 140.957 134.625 141.363 135.015 141.797C135.405 142.252 135.742 142.751 136.018 143.283C135.744 143.567 135.433 143.812 135.094 144.013C134.751 144.212 134.398 144.408 134.028 144.597C133.815 144.232 133.575 143.884 133.309 143.556C133.04 143.232 132.741 142.935 132.414 142.67C131.612 141.907 130.498 141.564 129.405 141.743C128.357 141.936 127.313 142.648 126.272 143.879C124.195 146.327 124.202 148.427 126.293 150.18C126.619 150.461 126.969 150.712 127.339 150.932C127.712 151.142 128.1 151.324 128.5 151.476L128.527 151.468ZM136.065 152L143.533 149.097C143.775 149.238 144.009 149.392 144.235 149.557C144.439 149.714 144.624 149.858 144.781 149.993C144.939 150.127 145.134 150.311 145.33 150.508C145.527 150.704 145.725 150.914 145.946 151.125L138.572 153.85L137.073 162.169L136.351 161.666C136.123 161.506 135.919 161.349 135.745 161.209C135.571 161.069 135.414 160.916 135.222 160.739C135.016 160.541 134.819 160.332 134.634 160.114L136.065 152ZM138.095 144.485L128.937 155.343C129.105 155.536 129.273 155.71 129.444 155.874C129.616 156.038 129.792 156.19 129.972 156.345C130.153 156.5 130.338 156.644 130.53 156.785C130.724 156.932 130.926 157.068 131.135 157.193L140.285 146.337C140.123 146.147 139.95 145.971 139.783 145.809C139.617 145.647 139.436 145.492 139.264 145.347L138.7 144.893C138.508 144.752 138.308 144.615 138.089 144.483L138.095 144.485ZM147.397 152.353L138.274 163.182L144.526 168.451C144.858 168.185 145.165 167.889 145.444 167.567C145.701 167.256 145.929 166.922 146.124 166.569L142.074 163.156L144.486 160.293L147.619 162.933C148.258 162.42 148.794 161.789 149.197 161.074L146.064 158.434L148.046 156.083L151.989 159.404C152.326 159.143 152.634 158.847 152.907 158.52C153.166 158.221 153.392 157.896 153.583 157.551L147.446 152.352L147.397 152.353ZM155.944 162.728L153.249 160.455C153.451 160.091 153.688 159.748 153.957 159.43C154.218 159.122 154.507 158.838 154.82 158.581L162.416 165.022C162.218 165.364 161.992 165.688 161.74 165.992C161.463 166.315 161.155 166.611 160.822 166.876L158.127 164.602L150.573 173.563C150.372 173.431 150.184 173.298 149.986 173.155C149.789 173.013 149.611 172.883 149.439 172.738L148.902 172.257C148.713 172.08 148.533 171.894 148.363 171.697L155.944 162.728Z" fill="#078E34"/>
<path fill-rule="evenodd" clip-rule="evenodd" d="M136.062 152L143.529 149.097C143.771 149.238 144.005 149.391 144.231 149.557C144.44 149.716 144.62 149.859 144.783 149.995C144.946 150.131 145.13 150.312 145.327 150.508C145.523 150.705 145.721 150.914 145.942 151.125L138.566 153.855L137.075 162.172L136.347 161.666C136.12 161.507 135.913 161.355 135.747 161.211C135.58 161.067 135.41 160.916 135.219 160.74C135.012 160.542 134.815 160.333 134.63 160.114L136.062 152ZM138.943 145.083L129.669 156.082L129.974 156.347C130.157 156.497 130.34 156.646 130.532 156.787C130.726 156.934 130.928 157.07 131.137 157.195L140.287 146.34C140.129 146.155 139.961 145.978 139.785 145.811C139.613 145.647 139.438 145.494 139.266 145.349L138.943 145.083ZM147.404 152.357L138.276 163.184L144.528 168.453C145.167 167.94 145.701 167.308 146.1 166.592L142.045 163.178L144.456 160.314L147.589 162.954C147.926 162.693 148.234 162.397 148.507 162.071C148.771 161.757 149.005 161.419 149.204 161.06L146.071 158.42L148.053 156.069L152 159.397C152.327 159.13 152.625 158.831 152.891 158.504C153.155 158.197 153.385 157.863 153.577 157.508L147.444 152.311L147.404 152.357ZM155.94 162.728L153.251 160.457C153.451 160.093 153.686 159.749 153.953 159.431C154.216 159.124 154.506 158.842 154.82 158.589L162.412 165.023C162.219 165.367 161.992 165.692 161.736 165.992C161.46 166.316 161.152 166.613 160.818 166.876L158.123 164.603L150.575 173.565L149.986 173.163C149.794 173.022 149.607 172.884 149.435 172.738C149.263 172.592 149.09 172.434 148.904 172.259C148.712 172.084 148.529 171.898 148.357 171.703L155.94 162.728Z" fill="#00AD3E"/>
<path d="M171.171 119.035L180.063 105.343L185.066 104.275C185.875 104.101 186.634 103.751 187.292 103.25L187.722 102.889C188.309 102.456 188.587 101.719 188.432 101.006C188.29 100.302 187.749 99.7464 187.049 99.5851L186.445 99.4133C185.651 99.2336 184.828 99.2285 184.032 99.3983L179.025 100.459L165.337 91.5741C164.645 91.1212 163.801 90.9656 162.993 91.1423L161.567 91.447C161.345 91.4948 161.167 91.6599 161.103 91.8775C161.038 92.0952 161.097 92.3308 161.257 92.4919L171.046 102.4C169.226 102.91 167.722 103.387 165.892 103.977L164.012 104.574L160.317 100.925C160.17 100.788 159.966 100.729 159.769 100.767L158.551 101.03C158.366 101.068 158.207 101.188 158.121 101.356C158.037 101.525 158.033 101.724 158.111 101.896L160.441 106.99L160.389 112.595C160.386 112.641 160.39 112.687 160.4 112.732C160.427 112.871 160.503 112.995 160.616 113.08C160.762 113.2 160.955 113.246 161.139 113.205L162.361 112.949C162.565 112.906 162.733 112.764 162.81 112.57L164.717 107.702L166.68 107.485C168.569 107.272 170.158 107.104 172.029 106.824L167.114 119.87C167.027 120.087 167.067 120.334 167.219 120.512C167.364 120.687 167.593 120.768 167.815 120.723L169.247 120.42C170.047 120.233 170.739 119.734 171.171 119.035Z" fill="#73E900"/>
</svg>
