<svg width="240" height="240" viewBox="0 0 240 240" fill="none" xmlns="http://www.w3.org/2000/svg">
<path d="M179 190.412C179 194.443 152.585 197.711 120 197.711C87.4151 197.711 61 194.443 61 190.412C61 186.381 87.4151 183.113 120 183.113C152.585 183.113 179 186.381 179 190.412Z" fill="#E1E1E1"/>
<path fill-rule="evenodd" clip-rule="evenodd" d="M111.465 48.2552C108.412 48.2552 104.556 52.0784 104.556 55.1062V120.546C104.556 123.574 108.412 126.038 111.465 126.038H130.561C133.615 126.038 137.471 123.574 137.471 120.546V55.1062C137.471 52.0784 133.615 48.2552 130.561 48.2552H111.465ZM130.561 131.477H111.465C105.387 131.477 100.441 126.574 100.441 120.546V55.1062C100.441 49.0791 105.387 44.1758 111.465 44.1758H130.561C136.64 44.1758 141.585 49.0791 141.585 55.1062V120.546C141.585 126.574 136.64 131.477 130.561 131.477Z" fill="#78D178"/>
<path fill-rule="evenodd" clip-rule="evenodd" d="M102.36 184.92C102.36 188.683 99.2832 191.733 95.4884 191.733C91.6935 191.733 88.6172 188.683 88.6172 184.92C88.6172 181.157 91.6935 178.107 95.4884 178.107C99.2832 178.107 102.36 181.157 102.36 184.92Z" fill="#282828"/>
<path fill-rule="evenodd" clip-rule="evenodd" d="M157.531 184.92C157.531 188.683 154.455 191.733 150.66 191.733C146.865 191.733 143.789 188.683 143.789 184.92C143.789 181.157 146.865 178.107 150.66 178.107C154.455 178.107 157.531 181.157 157.531 184.92Z" fill="#282828"/>
<path fill-rule="evenodd" clip-rule="evenodd" d="M159.685 183.424H77.7516C74.5481 183.424 71.9512 180.849 71.9512 177.673V61.6229C71.9512 58.4468 74.5481 55.8718 77.7516 55.8718H159.685C162.888 55.8718 165.485 58.4468 165.485 61.6229V177.673C165.485 180.849 162.888 183.424 159.685 183.424Z" fill="#064924"/>
<path fill-rule="evenodd" clip-rule="evenodd" d="M162.702 183.424H83.238C80.0345 183.424 77.4375 180.849 77.4375 177.673V61.6229C77.4375 58.4468 80.0345 55.8718 83.238 55.8718H162.702C165.906 55.8718 168.503 58.4468 168.503 61.6229V177.673C168.503 180.849 165.906 183.424 162.702 183.424Z" fill="#3EAB4E"/>
<path fill-rule="evenodd" clip-rule="evenodd" d="M162.702 183.424H83.238C80.0345 183.424 77.4375 180.849 77.4375 177.673V123.048H168.503V177.673C168.503 180.849 165.906 183.424 162.702 183.424Z" fill="#389B43"/>
<path fill-rule="evenodd" clip-rule="evenodd" d="M117.41 79.4182C95.0318 79.4182 76.8906 93.2817 76.8906 110.383V123.2H168.639V110.383C168.639 93.2817 150.498 79.4182 128.12 79.4182H117.41Z" fill="#57B665"/>
<path d="M130.859 84.0581C130.859 88.894 126.916 92.8144 122.053 92.8144C117.19 92.8144 113.248 88.894 113.248 84.0581C113.248 79.2221 117.19 75.3018 122.053 75.3018C126.916 75.3018 130.859 79.2221 130.859 84.0581Z" fill="#2E662E"/>
<path fill-rule="evenodd" clip-rule="evenodd" d="M132.525 50.7029H111.148C110.386 50.7029 109.768 50.09 109.768 49.334V43.3689C109.768 42.6129 110.386 42 111.148 42H132.525C133.287 42 133.905 42.6129 133.905 43.3689V49.334C133.905 50.09 133.287 50.7029 132.525 50.7029Z" fill="#022613"/>
<path fill-rule="evenodd" clip-rule="evenodd" d="M92.7969 183.424H98.2828V55.8718H92.7969V183.424Z" fill="#78D178"/>
<path fill-rule="evenodd" clip-rule="evenodd" d="M92.5654 116.71C92.0031 116.71 91.5454 117.167 91.5454 117.728V123.01C91.5454 123.571 92.0031 124.028 92.5654 124.028H97.8608C98.4232 124.028 98.8808 123.571 98.8808 123.01V117.728C98.8808 117.167 98.4232 116.71 97.8608 116.71H92.5654ZM97.8608 126.06H92.5654C90.8795 126.06 89.5078 124.692 89.5078 123.01V117.728C89.5078 116.045 90.8795 114.677 92.5654 114.677H97.8608C99.5469 114.677 100.918 116.045 100.918 117.728V123.01C100.918 124.692 99.5469 126.06 97.8608 126.06Z" fill="#2E662E"/>
<path fill-rule="evenodd" clip-rule="evenodd" d="M147.93 183.424H153.416V55.8718H147.93V183.424Z" fill="#78D178"/>
<path fill-rule="evenodd" clip-rule="evenodd" d="M148.739 116.71C148.177 116.71 147.719 117.167 147.719 117.728V123.01C147.719 123.571 148.177 124.028 148.739 124.028H154.035C154.597 124.028 155.055 123.571 155.055 123.01V117.728C155.055 117.167 154.597 116.71 154.035 116.71H148.739ZM154.035 126.06H148.739C147.053 126.06 145.682 124.692 145.682 123.01V117.728C145.682 116.045 147.053 114.677 148.739 114.677H154.035C155.721 114.677 157.092 116.045 157.092 117.728V123.01C157.092 124.692 155.721 126.06 154.035 126.06Z" fill="#2E662E"/>
</svg>
