<svg width="64" height="64" viewBox="0 0 64 64" fill="none" xmlns="http://www.w3.org/2000/svg">
<path d="M53.3333 47.9998C56.2667 47.9998 58.64 45.5998 58.64 42.6665L58.6667 15.9998C58.6667 13.0665 56.2667 10.6665 53.3333 10.6665H10.6667C7.73333 10.6665 5.33333 13.0665 5.33333 15.9998V42.6665C5.33333 45.5998 7.73333 47.9998 10.6667 47.9998H2.66667C1.2 47.9998 0 49.1998 0 50.6665C0 52.1332 1.2 53.3332 2.66667 53.3332H61.3333C62.8 53.3332 64 52.1332 64 50.6665C64 49.1998 62.8 47.9998 61.3333 47.9998H53.3333ZM13.3333 15.9998H50.6667C52.1333 15.9998 53.3333 17.1998 53.3333 18.6665V39.9998C53.3333 41.4665 52.1333 42.6665 50.6667 42.6665H13.3333C11.8667 42.6665 10.6667 41.4665 10.6667 39.9998V18.6665C10.6667 17.1998 11.8667 15.9998 13.3333 15.9998Z" fill="#2F7C38"/>
</svg>
