<svg width="240" height="240" viewBox="0 0 240 240" fill="none" xmlns="http://www.w3.org/2000/svg">
<path fill-rule="evenodd" clip-rule="evenodd" d="M42.3023 25.4453L176.081 12.302C180.527 11.8761 184.481 15.1294 184.929 19.5824L203.257 206.952C203.682 211.408 200.436 215.37 195.992 215.82L62.2136 228.964C57.7725 229.383 53.8254 226.133 53.3752 221.686L35.0374 34.313C34.6124 29.8576 37.8588 25.8951 42.3023 25.4453Z" fill="#006527"/>
<path fill-rule="evenodd" clip-rule="evenodd" d="M110.912 18.7041L177.786 12.0385C182.234 11.6065 186.192 14.8629 186.635 19.3189L204.963 206.689C205.387 211.144 202.15 215.198 197.707 215.648L130.822 222.217L110.912 18.7041Z" fill="#2B4234"/>
<path fill-rule="evenodd" clip-rule="evenodd" d="M111.859 39.8632C114.078 39.6392 116.312 39.5934 118.539 39.7262C121.041 42.3036 123.101 45.2786 124.633 48.5305C126.848 53.0507 128.598 57.7849 129.857 62.6601C124.605 62.4807 119.348 62.6518 114.119 63.1721C108.886 63.6751 103.693 64.5308 98.5754 65.7335C98.8687 60.7014 99.6722 55.7123 100.973 50.8432C101.845 47.3537 103.286 44.0327 105.24 41.0151C107.407 40.4514 109.615 40.0575 111.844 39.8369L111.859 39.8632ZM130.481 65.0026C119.716 64.5868 108.943 65.6437 98.4622 68.1442C98.0425 78.9315 99.1016 89.7255 101.61 100.224C106.987 100.446 112.372 100.287 117.726 99.7472C123.079 99.23 128.39 98.3387 133.619 97.0799C134.03 86.2944 132.975 75.5029 130.481 65.0026ZM133.444 99.474C133.148 104.506 132.348 109.495 131.056 114.367C130.181 117.856 128.736 121.176 126.779 124.192C122.438 125.311 117.951 125.752 113.475 125.502C110.979 122.919 108.925 119.942 107.394 116.69C105.175 112.169 103.422 107.434 102.16 102.558C112.676 102.908 123.193 101.875 133.441 99.4844L133.444 99.474ZM121.94 40.0513C123.787 42.3448 125.375 44.8365 126.674 47.4808C129.079 52.3707 130.966 57.5001 132.304 62.7845C137.725 63.0619 143.102 63.9071 148.348 65.3064C151.19 66.0623 153.937 67.1386 156.536 68.5149L156.623 68.7711C151.402 53.4205 138.007 42.3196 121.981 40.0624L121.94 40.0513ZM157.488 71.7885C158.044 73.9605 158.434 76.1721 158.653 78.4038C158.875 80.629 158.924 82.868 158.8 85.1008C156.22 87.6018 153.248 89.6637 150.004 91.205C145.491 93.4166 140.767 95.1703 135.905 96.4399C136.237 85.9056 135.189 75.3731 132.789 65.1117C137.81 65.4081 142.789 66.2098 147.65 67.5045C151.126 68.3856 154.435 69.8326 157.444 71.7877L157.488 71.7885ZM158.495 88.27L158.426 88.5288C156.148 90.3904 153.664 91.9833 151.023 93.276C146.144 95.6686 141.03 97.5455 135.763 98.8761C135.485 104.313 134.641 109.705 133.244 114.965C132.49 117.81 131.417 120.559 130.045 123.161C145.327 117.829 156.316 104.334 158.464 88.2617L158.495 88.27ZM110.048 125.192C108.201 122.901 106.616 120.41 105.324 117.765C102.933 112.877 101.061 107.752 99.7357 102.473C94.3098 102.203 88.9274 101.36 83.6779 99.9583C80.8388 99.193 78.0935 98.1134 75.4926 96.7396L75.4232 96.5434C80.6811 111.862 94.0799 122.922 110.09 125.159L110.048 125.192ZM74.4996 93.4549C73.3638 89.1077 72.9228 84.6075 73.1928 80.1219C75.7642 77.6133 78.733 75.5496 81.9784 74.0148C86.4876 71.7924 91.2121 70.0383 96.0778 68.7799C95.8993 74.029 96.0736 79.2842 96.5998 84.5098C97.0978 89.751 97.9526 94.952 99.1585 100.076C94.1368 99.7842 89.1575 98.9825 84.2972 97.6835C80.8174 96.8038 77.5046 95.3595 74.49 93.4079L74.4996 93.4549ZM73.5067 76.8774L73.5759 76.6186C75.8627 74.7692 78.3454 73.1773 80.9792 71.8713C85.8479 69.5072 90.9453 67.6487 96.1917 66.325C96.4738 60.8926 97.3171 55.5042 98.7082 50.2461C99.4726 47.4017 100.546 44.65 101.91 42.0405C86.6523 47.3676 75.6743 60.8322 73.5067 76.8774Z" fill="#D5F4B5"/>
<path fill-rule="evenodd" clip-rule="evenodd" d="M77.9131 170.678C79.2299 170.432 80.5646 170.202 81.9145 169.999C83.2643 169.795 84.6499 169.624 86.0376 169.486C87.511 169.342 88.9947 169.339 90.4687 169.478C91.937 169.602 93.3648 170.023 94.6662 170.716C95.995 171.433 97.118 172.479 97.9281 173.755C98.9177 175.398 99.4921 177.259 99.6012 179.175C99.8672 181.07 99.6628 183 99.0061 184.796C98.4811 186.207 97.616 187.465 96.4879 188.459C95.3712 189.394 94.0736 190.089 92.6764 190.498C91.2795 190.925 89.8445 191.216 88.3917 191.367L87.3292 191.448L86.3923 191.473L87.3675 201.533C86.8334 201.667 86.3049 201.78 85.7846 201.862C85.2644 201.945 84.7601 202.009 84.2716 202.055C83.7831 202.102 83.287 202.135 82.7365 202.164C82.186 202.194 81.6232 202.187 81.0349 202.151L77.9592 170.712L77.9131 170.678ZM85.8413 186.121C86.1694 186.149 86.4992 186.148 86.8272 186.12L87.9627 186.014C88.6819 185.945 89.3887 185.781 90.0644 185.524C90.7218 185.28 91.321 184.9 91.8239 184.41C92.3313 183.885 92.7128 183.252 92.9394 182.557C93.2003 181.689 93.2748 180.775 93.1582 179.875C93.0861 178.943 92.8325 178.035 92.4119 177.2C92.0608 176.541 91.5603 175.974 90.9506 175.543C90.3682 175.145 89.7058 174.88 89.0102 174.767C88.2861 174.639 87.548 174.613 86.8167 174.688C86.4998 174.714 86.2008 174.756 85.9251 174.793C85.6495 174.83 85.2616 174.914 84.7565 175.023L85.8413 186.121ZM107.92 167.817C108.511 167.676 109.097 167.556 109.633 167.456C110.169 167.355 110.788 167.277 111.448 167.211C112.108 167.144 112.58 167.115 113.159 167.104C113.738 167.093 114.27 167.092 115.003 167.122L127.836 197.476C126.69 197.752 125.527 197.951 124.355 198.072C123.28 198.178 122.197 198.196 121.119 198.124L118.765 192.022L108.428 193.041L107.258 199.484C106.282 199.756 105.284 199.941 104.276 200.037C103.216 200.148 102.148 200.166 101.084 200.09L107.889 167.808L107.92 167.817ZM116.818 186.961L111.935 174.165L109.428 187.684L116.808 186.958L116.818 186.961ZM135.661 182.123L138.399 182.858C138.946 183.005 139.432 183.136 139.986 183.34C140.482 183.502 140.953 183.729 141.389 184.016C141.816 184.301 142.181 184.671 142.46 185.103C142.778 185.615 142.965 186.199 143.002 186.802C143.199 188.039 142.717 189.287 141.741 190.069C140.51 190.952 139.048 191.454 137.535 191.514C136.382 191.638 135.218 191.627 134.067 191.481C132.866 191.318 131.68 191.059 130.521 190.707C130.266 191.659 130.12 192.619 129.969 193.555C129.833 194.442 129.76 195.339 129.751 196.237C130.456 196.466 131.174 196.659 131.899 196.814C132.582 196.956 133.272 197.056 133.967 197.114C134.696 197.184 135.429 197.21 136.161 197.192C136.918 197.174 137.773 197.126 138.729 197.027C140.476 196.891 142.189 196.47 143.801 195.782C145.13 195.23 146.338 194.424 147.359 193.408C148.276 192.455 148.963 191.303 149.366 190.042C149.799 188.712 149.941 187.305 149.783 185.915C149.698 184.686 149.402 183.48 148.909 182.352C148.507 181.467 147.933 180.671 147.22 180.012C146.495 179.373 145.663 178.868 144.763 178.52C143.822 178.145 142.746 177.779 141.636 177.458L137.556 176.363C137.12 176.222 136.703 176.028 136.315 175.785C135.944 175.547 135.628 175.231 135.389 174.86C135.126 174.426 134.973 173.936 134.941 173.43C134.863 172.82 134.941 172.199 135.168 171.627C135.356 171.181 135.662 170.795 136.053 170.511C136.443 170.235 136.874 170.021 137.33 169.878C137.819 169.748 138.318 169.655 138.821 169.601C139.544 169.526 140.27 169.492 140.997 169.497C141.579 169.504 142.16 169.542 142.738 169.61C143.239 169.668 143.735 169.768 144.22 169.908L145.604 170.28C146.185 168.64 146.492 166.916 146.515 165.176C145.139 164.843 143.744 164.598 142.337 164.443C140.947 164.3 139.546 164.295 138.156 164.429C136.664 164.568 135.201 164.922 133.811 165.482C132.627 165.951 131.55 166.654 130.645 167.55C129.777 168.407 129.119 169.453 128.72 170.606C128.316 171.896 128.19 173.258 128.35 174.601C128.431 175.665 128.687 176.708 129.107 177.689C129.471 178.483 129.982 179.2 130.613 179.802C131.247 180.393 131.976 180.87 132.771 181.214C133.671 181.616 134.6 181.947 135.551 182.204L135.661 182.123ZM158.471 179.882C157.524 179.625 156.598 179.295 155.702 178.894C154.905 178.548 154.172 178.07 153.533 177.48C152.903 176.88 152.395 176.163 152.038 175.369C151.61 174.39 151.35 173.345 151.27 172.278C151.12 170.932 151.25 169.569 151.654 168.276C152.031 167.124 152.671 166.076 153.524 165.216C154.434 164.317 155.515 163.612 156.703 163.14C158.09 162.582 159.549 162.226 161.037 162.085C162.428 161.951 163.829 161.956 165.219 162.099C166.626 162.255 168.021 162.5 169.397 162.832C169.378 164.572 169.074 166.297 168.496 167.938L167.102 167.564C166.62 167.425 166.128 167.326 165.63 167.269C165.053 167.193 164.471 167.156 163.889 167.156C163.159 167.148 162.429 167.182 161.703 167.257C161.202 167.303 160.706 167.396 160.222 167.536C159.744 167.657 159.294 167.867 158.894 168.156C158.499 168.438 158.19 168.823 157.998 169.269C157.766 169.84 157.688 170.462 157.771 171.072C157.812 171.576 157.965 172.065 158.219 172.502C158.458 172.872 158.775 173.184 159.148 173.417C159.532 173.668 159.949 173.866 160.386 174.005L161.746 174.425L164.453 175.152C165.599 175.46 166.638 175.839 167.582 176.203C168.48 176.56 169.31 177.068 170.037 177.706C170.749 178.369 171.326 179.164 171.736 180.048C172.225 181.177 172.517 182.381 172.599 183.609C172.755 184.999 172.617 186.406 172.193 187.738C171.785 188.997 171.098 190.148 170.185 191.105C169.169 192.121 167.964 192.928 166.638 193.481C165.02 194.162 163.305 194.581 161.556 194.724C160.599 194.822 159.745 194.87 158.987 194.889C158.255 194.906 157.523 194.88 156.794 194.81C156.103 194.749 155.416 194.649 154.736 194.513C154.055 194.33 153.325 194.201 152.588 193.936C152.594 193.037 152.664 192.14 152.796 191.251C152.95 190.316 153.137 189.368 153.358 188.406C154.517 188.759 155.703 189.018 156.904 189.181C158.055 189.32 159.218 189.331 160.372 189.213C161.88 189.146 163.337 188.643 164.568 187.766C165.544 186.983 166.025 185.736 165.829 184.498C165.788 183.896 165.607 183.311 165.3 182.792C165.012 182.364 164.644 181.998 164.215 181.713C163.78 181.425 163.309 181.198 162.813 181.037C162.286 180.895 161.794 180.707 161.236 180.558L158.471 179.882Z" fill="#D5F4B5"/>
</svg>
