<svg width="64" height="64" viewBox="0 0 64 64" fill="none" xmlns="http://www.w3.org/2000/svg">
<g clip-path="url(#clip0_2461_16240)">
<path d="M45.3333 2.6665H18.6666C15.7333 2.6665 13.3333 5.0665 13.3333 7.99984V55.9998C13.3333 58.9332 15.7333 61.3332 18.6666 61.3332H45.3333C48.2666 61.3332 50.6666 58.9332 50.6666 55.9998V7.99984C50.6666 5.0665 48.2666 2.6665 45.3333 2.6665ZM42.6666 50.6665H21.3333C19.8666 50.6665 18.6666 49.4665 18.6666 47.9998V15.9998C18.6666 14.5332 19.8666 13.3332 21.3333 13.3332H42.6666C44.1333 13.3332 45.3333 14.5332 45.3333 15.9998V47.9998C45.3333 49.4665 44.1333 50.6665 42.6666 50.6665Z" fill="#40AD4C"/>
<path d="M40 16H24C22.5333 16 21.3333 17.2 21.3333 18.6667C21.3333 20.1333 22.5333 21.3333 24 21.3333H40C41.4666 21.3333 42.6666 20.1333 42.6666 18.6667C42.6666 17.2 41.4666 16 40 16Z" fill="#40AD4C"/>
</g>
<defs>
<clipPath id="clip0_2461_16240">
<rect width="64" height="64" fill="white"/>
</clipPath>
</defs>
</svg>
