<svg width="64" height="64" viewBox="0 0 64 64" fill="none" xmlns="http://www.w3.org/2000/svg">
<path d="M46.067 45.9999C47.2225 45.9999 48.2003 45.5777 49.0003 44.7333C49.8003 43.8888 50.2003 42.8888 50.2003 41.7333C50.2003 40.5777 49.8003 39.5999 49.0003 38.7999C48.2003 37.9999 47.2225 37.5999 46.067 37.5999C44.9114 37.5999 43.9114 37.9999 43.067 38.7999C42.2225 39.5999 41.8003 40.5777 41.8003 41.7333C41.8003 42.8888 42.2225 43.8888 43.067 44.7333C43.9114 45.5777 44.9114 45.9999 46.067 45.9999ZM46.0003 54.3333C47.467 54.3333 48.8003 54.0222 50.0003 53.3999C51.2003 52.7777 52.2225 51.8888 53.067 50.7333C51.9114 50.111 50.7559 49.6444 49.6003 49.3333C48.4448 49.0222 47.2448 48.8666 46.0003 48.8666C44.7559 48.8666 43.5448 49.0222 42.367 49.3333C41.1892 49.6444 40.0448 50.111 38.9337 50.7333C39.7781 51.8888 40.7892 52.7777 41.967 53.3999C43.1448 54.0222 44.4892 54.3333 46.0003 54.3333ZM32.0003 58.6666C25.867 57.2444 20.7781 53.7666 16.7337 48.2333C12.6892 42.6999 10.667 36.3555 10.667 29.1999V13.2666L32.0003 5.2666L53.3337 13.2666V31.2666C52.7114 30.9555 52.0448 30.6777 51.3337 30.4333C50.6225 30.1888 49.9559 30.0222 49.3337 29.9333V16.0666L32.0003 9.6666L14.667 16.0666V29.1999C14.667 32.5777 15.2114 35.6888 16.3003 38.5333C17.3892 41.3777 18.7781 43.8777 20.467 46.0333C22.1559 48.1888 24.0225 49.9777 26.067 51.3999C28.1114 52.8222 30.0892 53.8444 32.0003 54.4666C32.267 54.9999 32.667 55.5999 33.2003 56.2666C33.7337 56.9333 34.1781 57.4444 34.5337 57.7999C34.1337 58.0222 33.7114 58.1888 33.267 58.2999C32.8225 58.411 32.4003 58.5333 32.0003 58.6666ZM46.2003 58.6666C42.7337 58.6666 39.7781 57.4333 37.3337 54.9666C34.8892 52.4999 33.667 49.5777 33.667 46.1999C33.667 42.7333 34.8892 39.7666 37.3337 37.2999C39.7781 34.8333 42.7337 33.5999 46.2003 33.5999C49.6226 33.5999 52.567 34.8333 55.0337 37.2999C57.5003 39.7666 58.7337 42.7333 58.7337 46.1999C58.7337 49.5777 57.5003 52.4999 55.0337 54.9666C52.567 57.4333 49.6226 58.6666 46.2003 58.6666Z" fill="#2F7C38"/>
</svg>
