<svg width="64" height="64" viewBox="0 0 64 64" fill="none" xmlns="http://www.w3.org/2000/svg">
<path d="M47 18H31C28.24 18 26 20.24 26 23V57C26 59.76 28.24 62 31 62H47C49.76 62 52 59.76 52 57V23C52 20.24 49.76 18 47 18ZM39 60C37.34 60 36 58.66 36 57C36 55.34 37.34 54 39 54C40.66 54 42 55.34 42 57C42 58.66 40.66 60 39 60ZM48 52H30V24H48V52Z" fill="#40AD4C"/>
<rect x="13.3334" y="8" width="21.3333" height="34.6667" fill="white"/>
<path d="M32 2H16C12.68 2 10 4.68 10 8V40C10 43.32 12.68 46 16 46H32C35.32 46 38 43.32 38 40V8C38 4.68 35.32 2 32 2ZM27 42H21C20.44 42 20 41.56 20 41C20 40.44 20.44 40 21 40H27C27.56 40 28 40.44 28 41C28 41.56 27.56 42 27 42ZM34 36H14V8H34V36Z" fill="#40AD4C"/>
</svg>
