<svg width="64" height="64" viewBox="0 0 64 64" fill="none" xmlns="http://www.w3.org/2000/svg">
<path d="M56.0003 21.3335C52.1337 21.3335 49.9737 25.1735 50.8537 28.0268L41.387 37.5202C40.587 37.2802 39.4137 37.2802 38.6137 37.5202L31.8137 30.7202C32.7203 27.8668 30.5603 24.0002 26.667 24.0002C22.8003 24.0002 20.6137 27.8402 21.5203 30.7202L9.36032 42.8535C6.50699 41.9735 2.66699 44.1335 2.66699 48.0002C2.66699 50.9335 5.06699 53.3335 8.00033 53.3335C11.867 53.3335 14.027 49.4935 13.147 46.6402L25.2803 34.4802C26.0803 34.7202 27.2537 34.7202 28.0537 34.4802L34.8537 41.2802C33.947 44.1335 36.107 48.0002 40.0003 48.0002C43.867 48.0002 46.0537 44.1602 45.147 41.2802L54.6403 31.8135C57.4937 32.6935 61.3337 30.5335 61.3337 26.6668C61.3337 23.7335 58.9337 21.3335 56.0003 21.3335Z" fill="#2F7C38"/>
<path d="M40 24L42.5067 18.48L48 16L42.5067 13.52L40 8L37.5467 13.52L32 16L37.5467 18.48L40 24Z" fill="#323232"/>
<path d="M9.33366 29.3333L10.667 24L16.0003 22.6667L10.667 21.3333L9.33366 16L8.00033 21.3333L2.66699 22.6667L8.00033 24L9.33366 29.3333Z" fill="#323232"/>
</svg>
