<svg width="64" height="64" viewBox="0 0 64 64" fill="none" xmlns="http://www.w3.org/2000/svg">
<path d="M29.1337 58.6667C28.067 58.6667 27.1337 58.2778 26.3337 57.5C25.5337 56.7222 25.1337 55.7778 25.1337 54.6667V41.3333H14.667C13.6003 41.3333 12.667 40.9333 11.867 40.1333C11.067 39.3333 10.667 38.4 10.667 37.3333V17.1333C10.667 14.6889 11.5448 12.5556 13.3003 10.7333C15.0559 8.91111 17.1781 8 19.667 8H53.3337V37.3333C53.3337 38.4 52.9337 39.3333 52.1337 40.1333C51.3337 40.9333 50.4003 41.3333 49.3337 41.3333H38.867V54.6667C38.867 55.7778 38.467 56.7222 37.667 57.5C36.867 58.2778 35.9337 58.6667 34.867 58.6667H29.1337ZM14.667 27.0667H49.3337V12H45.6003V23.4H41.6003V12H36.867V17.6667H32.867V12H19.667C18.2448 12 17.0559 12.5111 16.1003 13.5333C15.1448 14.5556 14.667 15.7556 14.667 17.1333V27.0667ZM14.667 37.3333H49.3337V31.0667H14.667V37.3333ZM14.667 31.0667V37.3333V31.0667Z" fill="#2F7C38"/>
</svg>
