<svg width="64" height="64" viewBox="0 0 64 64" fill="none" xmlns="http://www.w3.org/2000/svg">
<path d="M59.8 28.9335C55.8889 25.2001 51.6111 22.2224 46.9667 20.0001C42.3222 17.7779 37.3333 16.6668 32 16.6668C30.3556 16.6668 28.7778 16.7668 27.2667 16.9668C25.7556 17.1668 24.4889 17.4446 23.4667 17.8001L18.6 12.9335C20.5556 12.2224 22.6778 11.6668 24.9667 11.2668C27.2556 10.8668 29.6 10.6668 32 10.6668C38.2222 10.6668 44.0778 11.9557 49.5667 14.5335C55.0556 17.1112 59.8667 20.5112 64 24.7335L59.8 28.9335ZM48.5333 40.2001C47.0667 38.7779 45.7333 37.6335 44.5333 36.7668C43.3333 35.9001 41.8 35.0446 39.9333 34.2001L32.4 26.6668C36.6222 26.7557 40.3444 27.6224 43.5667 29.2668C46.7889 30.9112 49.8444 33.1557 52.7333 36.0001L48.5333 40.2001ZM53.6667 59.4001L27.4 33.1335C25 33.7112 22.7889 34.6446 20.7667 35.9335C18.7444 37.2224 16.9778 38.6446 15.4667 40.2001L11.2667 36.0001C12.9111 34.3557 14.6111 32.9112 16.3667 31.6668C18.1222 30.4224 20.2222 29.3112 22.6667 28.3335L15.2667 20.9335C13.1778 21.9557 11.2 23.1668 9.33333 24.5668C7.46667 25.9668 5.75556 27.4224 4.2 28.9335L0 24.7335C1.6 23.089 3.31111 21.5557 5.13333 20.1335C6.95556 18.7112 8.82222 17.489 10.7333 16.4668L4.6 10.3335L7.46667 7.4668L56.5333 56.5335L53.6667 59.4001ZM32 56.7335L22.1333 46.8001C23.4222 45.5112 24.9 44.5001 26.5667 43.7668C28.2333 43.0335 30.0444 42.6668 32 42.6668C33.9556 42.6668 35.7667 43.0335 37.4333 43.7668C39.1 44.5001 40.5778 45.5112 41.8667 46.8001L32 56.7335Z" fill="#000000"/>
</svg>
